<svg width="130" height="130" viewBox="0 0 130 130" fill="none" xmlns="http://www.w3.org/2000/svg">
<path d="M53.6486 117.099C53.6648 117.007 53.78 116.696 53.9941 116.167C54.2067 115.646 54.3402 115.377 54.3946 115.361C55.0679 115.102 56.0963 115.095 57.4797 115.34C58.5798 115.535 59.4458 116.105 60.0777 117.051C60.7012 117.995 60.9141 119.026 60.7164 120.142C60.5068 121.326 59.9316 122.268 58.9909 122.97C58.0486 123.68 57.0024 123.933 55.8524 123.729C54.869 123.555 53.8748 123.271 52.87 122.879C53.0844 121.765 53.199 121.166 53.2138 121.083C53.2359 120.958 53.3345 120.911 53.5095 120.942C53.5929 120.957 53.6433 120.987 53.661 121.033C53.6668 121.146 53.6809 121.26 53.7034 121.376C53.7161 121.498 53.7694 121.658 53.8634 121.855C53.9476 122.059 54.0662 122.239 54.2191 122.395C54.3621 122.558 54.5839 122.714 54.8843 122.861C55.175 123.016 55.5161 123.128 55.9078 123.197C56.7246 123.342 57.4846 123.103 58.1881 122.479C58.89 121.865 59.3214 121.103 59.4823 120.195C59.6018 119.519 59.5951 118.878 59.4621 118.27C59.3291 117.662 59.0458 117.126 58.6122 116.663C58.1688 116.206 57.6012 115.916 56.9095 115.794C56.0844 115.648 55.4041 115.776 54.8685 116.18C54.7297 116.284 54.6009 116.429 54.4821 116.614C54.3536 116.807 54.2566 116.966 54.1913 117.092C54.1163 117.224 54.0662 117.289 54.0412 117.284C53.9912 117.275 53.9343 117.257 53.8706 117.228C53.7986 117.198 53.7432 117.171 53.7045 117.147L53.6486 117.099Z" fill="white"/>
<path d="M42.7009 112.385L40.1957 117.278C40.0646 117.534 39.9638 117.787 39.8932 118.036C39.8692 118.176 40.0304 118.335 40.377 118.512L40.4787 118.564C40.5239 118.587 40.5253 118.64 40.4828 118.723C40.4211 118.844 40.3677 118.892 40.3225 118.869C40.0849 118.776 39.8623 118.7 39.6547 118.641C39.4395 118.579 39.2696 118.539 39.1448 118.523C39.0125 118.503 38.901 118.488 38.8102 118.48C38.7156 118.479 38.6437 118.48 38.5944 118.484L38.5319 118.494L38.5093 118.483C38.4791 118.467 38.4606 118.429 38.4536 118.369C38.4427 118.316 38.4432 118.268 38.4549 118.227C38.6612 118.028 38.8705 117.722 39.0826 117.307L41.7209 112.154C41.9446 111.717 42.0861 111.367 42.1454 111.102C42.1573 111.042 42.0864 110.939 41.9326 110.794C41.7749 110.656 41.6584 110.568 41.5831 110.529C41.5605 110.518 41.5686 110.465 41.6073 110.37C41.6461 110.276 41.6826 110.214 41.717 110.184C42.4511 110.608 42.8445 110.833 42.8972 110.86C42.9424 110.883 43.3626 111.074 44.1579 111.434C44.1726 111.479 44.1568 111.547 44.1105 111.638C44.0603 111.736 44.0202 111.777 43.9901 111.762C43.8997 111.715 43.7563 111.67 43.5598 111.627C43.352 111.587 43.2271 111.59 43.185 111.635C43.0204 111.826 42.8591 112.076 42.7009 112.385Z" fill="white"/>
<path d="M28.6749 110.067C28.6826 110.24 28.6288 110.395 28.5134 110.53C28.3981 110.665 28.2569 110.739 28.0898 110.752C27.9109 110.767 27.7538 110.716 27.6186 110.601C27.4833 110.485 27.4119 110.341 27.4041 110.167C27.3845 109.995 27.4323 109.841 27.5477 109.706C27.663 109.571 27.8102 109.496 27.9892 109.482C28.1562 109.468 28.3074 109.519 28.4426 109.635C28.5778 109.75 28.6552 109.894 28.6749 110.067ZM31.3603 105.315C31.6789 104.942 31.8976 104.634 32.0164 104.39C32.042 104.334 31.9967 104.217 31.8807 104.041C31.7591 103.87 31.6661 103.757 31.6017 103.702C31.5824 103.686 31.6025 103.636 31.662 103.554C31.7215 103.471 31.7714 103.419 31.8117 103.398C32.4281 103.979 32.7588 104.289 32.8039 104.328C32.849 104.366 33.2136 104.649 33.8978 105.178C33.9016 105.225 33.8705 105.288 33.8046 105.365C33.7332 105.449 33.6846 105.48 33.6588 105.458C33.5816 105.392 33.4524 105.315 33.2714 105.227C33.0784 105.14 32.9562 105.114 32.9049 105.148C32.7005 105.296 32.4857 105.502 32.2605 105.766L30.7031 107.592C30.4889 107.843 30.3856 108.055 30.3933 108.229C30.3918 108.361 30.4283 108.481 30.5029 108.589C30.5656 108.698 30.6291 108.78 30.6935 108.835C30.7515 108.885 30.775 108.916 30.764 108.929C30.6321 109.083 30.5441 109.147 30.5 109.121C29.7296 108.641 29.214 108.346 28.953 108.235L28.9255 108.228C28.9126 108.217 28.9029 108.209 28.8965 108.203C28.8707 108.181 28.8794 108.138 28.9224 108.075C28.9599 108.018 28.9928 107.979 29.0212 107.959C29.2732 107.729 29.487 107.511 29.6628 107.305L31.3603 105.315Z" fill="white"/>
<path d="M19.448 97.9964C18.9182 97.2308 18.7296 96.5791 18.8822 96.0411C19.3485 95.7185 19.6708 95.6859 19.849 95.9434C19.9308 96.0617 19.9691 96.169 19.9637 96.2654C19.9514 96.3665 19.9094 96.514 19.8376 96.7077C19.6668 97.145 19.6849 97.5133 19.892 97.8126C20.0895 98.0979 20.4058 98.265 20.841 98.3138C21.2713 98.3556 21.7544 98.1911 22.2903 97.8202C22.8471 97.4349 23.216 96.9789 23.397 96.4522C23.5732 95.9186 23.4927 95.4082 23.1556 94.921C23.0544 94.7749 22.9442 94.6453 22.8248 94.5323C22.7055 94.4194 22.5971 94.3297 22.4997 94.2633C22.3905 94.1948 22.2969 94.1412 22.2187 94.1027C22.1288 94.062 22.0496 94.0293 21.9811 94.0047L21.8783 93.9677C21.8494 93.926 21.8802 93.8738 21.9707 93.8112C22.0263 93.7726 22.1034 93.7502 22.2019 93.7438C22.4931 93.7481 22.8127 93.8306 23.1606 93.9912C23.5015 94.1567 23.7828 94.3995 24.0043 94.7196C24.4041 95.2973 24.5327 95.9442 24.3902 96.6604C24.2359 97.3744 23.8456 97.9482 23.2192 98.3816C22.5789 98.8247 21.9052 99.0336 21.1981 99.0084C20.4841 98.9879 19.9007 98.6506 19.448 97.9964Z" fill="white"/>
<path d="M12.2733 81.5715C12.3975 81.683 12.6743 81.8837 13.1038 82.1736C13.5252 82.466 13.9259 82.7073 14.306 82.8974C14.4818 82.5841 14.7095 82.1965 14.9891 81.7348C15.2607 81.2756 15.4829 80.8987 15.6557 80.6041C15.8205 80.312 15.9264 80.1141 15.9734 80.0104C16.0428 79.8374 16.0764 79.6358 16.0744 79.4056C16.0642 79.1779 16.0451 79.0197 16.0169 78.931C16.0067 78.8987 16.0661 78.8621 16.1952 78.8211C16.2678 78.798 16.3134 78.788 16.3321 78.7909C16.5479 79.6104 16.6673 80.0565 16.6904 80.1291C16.6955 80.1452 16.8488 80.5583 17.1504 81.3682C17.1284 81.4108 17.073 81.4461 16.9843 81.4743C16.8875 81.505 16.834 81.5042 16.8237 81.472C16.7981 81.3913 16.7525 81.3037 16.687 81.209C16.6214 81.1144 16.5684 81.0735 16.5281 81.0863C16.512 81.0914 16.5012 81.0993 16.4957 81.1099L15.1448 83.4836L15.2272 83.6172L15.9532 83.3867C16.4804 83.2016 16.8292 83.0553 16.9993 82.948C17.0507 82.9139 17.0738 82.7911 17.0688 82.5796C17.0558 82.3706 17.0364 82.2258 17.0108 82.1452C17.0031 82.121 17.0464 82.0895 17.1407 82.0507C17.2349 82.0119 17.3047 81.9941 17.3502 81.9975C17.566 82.8169 17.6828 83.2549 17.7008 83.3114C17.7161 83.3598 17.8759 83.793 18.18 84.6111C18.158 84.6536 18.0986 84.6902 18.0018 84.7209C17.8969 84.7542 17.8394 84.7547 17.8291 84.7225C17.7984 84.6257 17.7294 84.4922 17.6221 84.322C17.5041 84.1464 17.4144 84.0594 17.3528 84.0612C17.1009 84.079 16.8096 84.1404 16.4789 84.2454L11.2396 85.909C10.9653 85.9961 10.7149 86.1022 10.4882 86.2275C10.372 86.3088 10.3727 86.535 10.4906 86.906L10.5251 87.0149C10.5405 87.0633 10.5038 87.1016 10.4151 87.1298C10.286 87.1708 10.2138 87.1671 10.1984 87.1187C10.0974 86.8843 9.99469 86.6727 9.89033 86.4839C9.7834 86.287 9.69184 86.1384 9.61565 86.0383C9.5369 85.9301 9.46858 85.8408 9.4107 85.7704C9.34476 85.7025 9.29456 85.6563 9.26012 85.6317L9.20461 85.5827L9.19692 85.5585C9.18668 85.5263 9.20063 85.4863 9.23879 85.4387C9.26888 85.3936 9.30281 85.3606 9.34058 85.3398C9.62689 85.3465 9.99188 85.2795 10.4355 85.1386L14.6706 83.794C14.5764 83.6374 14.5081 83.5481 14.4656 83.526C14.256 83.3972 14.0398 83.2617 13.817 83.1193C13.5942 82.9769 13.4271 82.8701 13.3157 82.7989C13.2043 82.7277 13.0942 82.6606 12.9853 82.5975C12.8765 82.5343 12.7927 82.4943 12.7341 82.4774C12.6754 82.4605 12.6219 82.4598 12.5735 82.4751C12.4767 82.5059 12.4484 82.6125 12.4886 82.7951C12.5288 82.9777 12.5422 83.0756 12.5286 83.0888C12.3852 83.1965 12.2911 83.2219 12.2465 83.1651L11.9429 82.2092C11.9045 82.0882 11.8608 81.9644 11.8117 81.8379C11.7601 81.7033 11.7021 81.5486 11.6377 81.3737C11.5707 81.1907 11.5114 81.0319 11.4598 80.8974C11.4657 80.86 11.4969 80.8323 11.5534 80.8144C11.6073 80.7884 11.661 80.7758 11.7145 80.7765C11.768 80.7773 11.7974 80.7858 11.8025 80.8019C11.8358 80.9068 11.9074 81.0483 12.0172 81.2265C12.1271 81.4048 12.2125 81.5198 12.2733 81.5715Z" fill="white"/>
<path d="M12.2929 57.8444C11.8686 57.765 11.6658 57.6755 11.6844 57.5756L11.6867 57.5632L12.0992 54.5277L12.1015 54.5152C12.1108 54.4653 12.1529 54.4473 12.2278 54.4613C12.4108 54.4955 12.5575 54.5402 12.6677 54.5952C12.7712 54.6404 12.8331 54.6778 12.8534 54.7074L12.8713 54.7495L12.4465 57.7827C12.4449 57.791 12.4434 57.7993 12.4418 57.8076C12.4402 57.8159 12.4254 57.8261 12.3974 57.8381C12.3693 57.85 12.3345 57.8521 12.2929 57.8444Z" fill="white"/>
<path d="M26.2729 29.1765C26.344 29.2367 26.5543 29.4926 26.9039 29.9441C27.247 30.3901 27.4118 30.6407 27.3984 30.6958C27.2831 31.408 26.7713 32.3 25.8631 33.3719C25.1409 34.2243 24.2122 34.6854 23.077 34.7552C21.9473 34.8185 20.9498 34.4836 20.0845 33.7505C19.1676 32.9736 18.6429 32.0021 18.5105 30.8361C18.3716 29.6646 18.6797 28.6332 19.4347 27.7421C20.0803 26.9802 20.8258 26.264 21.6711 25.5936C22.5255 26.3397 22.9849 26.7401 23.0495 26.7948C23.1464 26.8768 23.1374 26.9857 23.0225 27.1213C22.9677 27.1858 22.916 27.2141 22.8673 27.2062C22.767 27.1544 22.6611 27.1091 22.5498 27.0703C22.4376 27.0195 22.2726 26.9851 22.0549 26.9671C21.8362 26.9371 21.621 26.9489 21.4093 27.0024C21.1965 27.044 20.9507 27.1574 20.6718 27.3426C20.3918 27.5159 20.1233 27.7543 19.8662 28.0578C19.33 28.6906 19.154 29.4678 19.3383 30.3893C19.5161 31.3054 19.9569 32.0616 20.6608 32.658C21.1838 33.1012 21.7415 33.4184 22.3338 33.6096C22.9261 33.8008 23.5317 33.8258 24.1505 33.6846C24.7684 33.5315 25.3044 33.1869 25.7585 32.6509C26.3001 32.0117 26.5314 31.359 26.4523 30.693C26.4321 30.5205 26.3718 30.3363 26.2716 30.1404C26.1703 29.9326 26.0817 29.7688 26.0057 29.649C25.9288 29.5172 25.8985 29.4417 25.9149 29.4223C25.9478 29.3836 25.9925 29.3438 26.0492 29.3031C26.1114 29.2559 26.1626 29.2217 26.2028 29.2003L26.2729 29.1765Z" fill="white"/>
<path d="M35.8575 22.0911L32.8913 17.4629C32.7361 17.2207 32.5685 17.0063 32.3888 16.82C32.2801 16.7288 32.0618 16.7882 31.7341 16.9983L31.6379 17.06C31.5951 17.0874 31.5486 17.0619 31.4984 16.9835C31.4253 16.8695 31.4102 16.7988 31.4529 16.7714C31.653 16.613 31.8307 16.4589 31.986 16.3091C32.1484 16.1547 32.2681 16.0278 32.345 15.9282C32.4291 15.8241 32.4976 15.7349 32.5506 15.6608C32.599 15.5795 32.6342 15.5167 32.6561 15.4725L32.6783 15.413L32.6997 15.3993C32.7282 15.3811 32.7704 15.3842 32.8263 15.4087C32.8776 15.426 32.9183 15.4502 32.9482 15.4813C33.016 15.7596 33.1755 16.0946 33.4266 16.4866L36.5503 21.3605C36.8152 21.7738 37.0469 22.0727 37.2455 22.257C37.2917 22.2978 37.4163 22.2883 37.6193 22.2285C37.8178 22.1617 37.9526 22.1054 38.0238 22.0598C38.0452 22.0461 38.0869 22.0797 38.1488 22.1606C38.2107 22.2416 38.246 22.3044 38.2546 22.3492C37.5192 22.7702 37.1265 22.9968 37.0766 23.0287C37.0339 23.0561 36.657 23.3228 35.9458 23.8288C35.8991 23.8186 35.8483 23.7707 35.7935 23.6852C35.7341 23.5926 35.7187 23.5371 35.7472 23.5189C35.8327 23.4641 35.9437 23.3628 36.0802 23.215C36.2192 23.0555 36.2799 22.9462 36.2622 22.8872C36.1796 22.6486 36.0447 22.3832 35.8575 22.0911Z" fill="white"/>
<path d="M44.9228 11.14C44.7691 11.0593 44.6628 10.9351 44.6041 10.7674C44.5453 10.5996 44.5523 10.4402 44.625 10.2892C44.7028 10.1275 44.8257 10.0172 44.9934 9.95848C45.1612 9.89975 45.3219 9.91071 45.4757 9.99138C45.6347 10.0613 45.7435 10.1801 45.8023 10.3478C45.861 10.5156 45.8514 10.6803 45.7736 10.8421C45.7009 10.9931 45.5807 11.098 45.4129 11.1567C45.2452 11.2154 45.0818 11.2099 44.9228 11.14ZM47.6758 15.8524C47.838 16.3157 47.9944 16.66 48.145 16.8853C48.1806 16.9356 48.304 16.9551 48.5153 16.9439C48.7238 16.9247 48.868 16.9012 48.9478 16.8732C48.9718 16.8648 49.0046 16.9071 49.0461 17.0002C49.0877 17.0932 49.1074 17.1625 49.1054 17.2081C48.2927 17.4478 47.8583 17.5775 47.8024 17.5971C47.7465 17.6166 47.3181 17.789 46.5173 18.1143C46.4742 18.0935 46.4358 18.0352 46.4023 17.9393C46.3659 17.8355 46.3637 17.778 46.3957 17.7668C46.4915 17.7332 46.6229 17.6603 46.7899 17.548C46.962 17.425 47.0463 17.3327 47.0427 17.2712C47.0175 17.02 46.9475 16.7306 46.8329 16.4031L46.04 14.1385C45.9309 13.827 45.7995 13.6309 45.6457 13.5502C45.5322 13.4823 45.41 13.4534 45.279 13.4634C45.1532 13.4626 45.0503 13.4762 44.9704 13.5041C44.8985 13.5293 44.8598 13.5339 44.8542 13.5179C44.7871 13.3262 44.7761 13.218 44.8212 13.1932C45.6232 12.7689 46.138 12.4721 46.3657 12.3027L46.3854 12.2823C46.4014 12.2768 46.4134 12.2726 46.4214 12.2698C46.4533 12.2586 46.4859 12.2875 46.5191 12.3566C46.5494 12.4177 46.5662 12.4657 46.5694 12.5004C46.6413 12.8339 46.7221 13.1285 46.8116 13.3841L47.6758 15.8524Z" fill="white"/>
<path d="M59.9973 9.24544C60.9255 9.17316 61.5836 9.33838 61.9715 9.74112C62.0155 10.3065 61.8814 10.6013 61.5692 10.6256C61.4257 10.6368 61.3138 10.6158 61.2332 10.5626C61.152 10.5011 61.0458 10.3905 60.9145 10.2309C60.6227 9.86314 60.2954 9.69338 59.9325 9.72164C59.5866 9.74858 59.283 9.93776 59.0217 10.2892C58.7689 10.64 58.6678 11.1402 58.7184 11.7899C58.7709 12.465 58.9792 13.0133 59.3431 13.4349C59.7154 13.8558 60.1969 14.0433 60.7876 13.9973C60.9648 13.9835 61.1322 13.9534 61.2899 13.9072C61.4476 13.861 61.5797 13.8125 61.6861 13.7617C61.8003 13.7019 61.8937 13.648 61.9664 13.5998C62.0468 13.5426 62.1149 13.4907 62.1707 13.4439L62.2544 13.3737C62.305 13.3697 62.3346 13.4226 62.3431 13.5323C62.3484 13.5998 62.329 13.6777 62.2849 13.766C62.1345 14.0155 61.9024 14.25 61.5884 14.4697C61.2738 14.681 60.9224 14.8017 60.5343 14.8319C59.8339 14.8865 59.2102 14.6719 58.6632 14.1882C58.124 13.6953 57.8248 13.0692 57.7656 12.3098C57.7052 11.5335 57.8639 10.8463 58.2417 10.2481C58.619 9.64142 59.2042 9.30721 59.9973 9.24544Z" fill="white"/>
<path d="M77.8007 11.3165C77.6418 11.3677 77.329 11.5058 76.8623 11.731C76.3975 11.9478 75.9873 12.1725 75.6316 12.4052C75.8139 12.7148 76.034 13.1067 76.2922 13.5808C76.5522 14.0466 76.7659 14.4284 76.9335 14.726C77.1029 15.0155 77.2205 15.2066 77.2865 15.2994C77.401 15.4465 77.5582 15.5771 77.7582 15.6912C77.96 15.7971 78.1063 15.8602 78.1972 15.8805C78.2302 15.8879 78.2319 15.9577 78.2024 16.0899C78.1857 16.1642 78.1714 16.2087 78.1595 16.2234C77.3428 15.9972 76.8973 15.8758 76.823 15.8591C76.8064 15.8555 76.3723 15.78 75.5207 15.6327C75.495 15.5923 75.4924 15.5266 75.5127 15.4358C75.5349 15.3367 75.5625 15.2908 75.5955 15.2982C75.6781 15.3167 75.7768 15.3214 75.8916 15.3124C76.0063 15.3034 76.0683 15.2783 76.0776 15.237C76.0813 15.2205 76.0799 15.2071 76.0735 15.197L74.7029 12.8347L74.5459 12.8386L74.3795 13.582C74.274 14.1308 74.2248 14.5057 74.2318 14.7067C74.2354 14.7683 74.3298 14.8501 74.5151 14.9523C74.7022 15.0462 74.8371 15.1024 74.9197 15.1209C74.9445 15.1264 74.9499 15.1797 74.936 15.2807C74.922 15.3816 74.9022 15.4509 74.8764 15.4885C74.0598 15.2623 73.6225 15.1428 73.5647 15.1298C73.5152 15.1187 73.0604 15.0386 72.2005 14.8895C72.1748 14.8491 72.1731 14.7793 72.1953 14.6802C72.2193 14.5728 72.2479 14.5228 72.2809 14.5302C72.38 14.5524 72.5301 14.56 72.7311 14.553C72.9423 14.5395 73.0626 14.5057 73.0921 14.4516C73.2035 14.225 73.2971 13.9424 73.3729 13.6038L74.5736 8.23949C74.6365 7.95868 74.6709 7.68884 74.6768 7.42998C74.6651 7.28859 74.4692 7.17537 74.0893 7.09033L73.9778 7.06537C73.9283 7.05428 73.9137 7.00331 73.934 6.91246C73.9636 6.78031 74.0031 6.71978 74.0527 6.73088C74.306 6.76156 74.5405 6.77936 74.7563 6.78428C74.9802 6.79105 75.1547 6.78673 75.2795 6.77132C75.4127 6.75775 75.5242 6.7437 75.6142 6.72915C75.7061 6.70634 75.7713 6.68624 75.8098 6.66886L75.8801 6.64556L75.9049 6.6511C75.9379 6.6585 75.9654 6.69067 75.9874 6.74762C76.0111 6.79631 76.0226 6.84223 76.0216 6.88537C75.8716 7.12933 75.7457 7.47844 75.644 7.93269L74.6735 12.2688C74.8562 12.2663 74.9677 12.2522 75.0081 12.2266C75.225 12.1103 75.451 11.9918 75.6862 11.871C75.9214 11.7502 76.0978 11.6596 76.2154 11.5991C76.333 11.5387 76.4464 11.4774 76.5558 11.4152C76.6651 11.3529 76.7418 11.3007 76.786 11.2585C76.8301 11.2164 76.8577 11.1705 76.8688 11.121C76.891 11.0218 76.8131 10.9437 76.6351 10.8865C76.4571 10.8293 76.3658 10.7915 76.3612 10.7732C76.3404 10.595 76.3658 10.501 76.4374 10.491L77.4161 10.7101C77.54 10.7378 77.6689 10.7623 77.8029 10.7837C77.9452 10.8068 78.1081 10.8346 78.2916 10.867C78.4834 10.9013 78.6505 10.93 78.7927 10.9532C78.8221 10.9771 78.8303 11.0179 78.8173 11.0758C78.8126 11.1354 78.7965 11.1882 78.7689 11.234C78.7413 11.2799 78.7192 11.301 78.7027 11.2973C78.5953 11.2732 78.437 11.2638 78.2277 11.269C78.0184 11.2742 77.876 11.29 77.8007 11.3165Z" fill="white"/>
<path d="M98.291 23.2802C98.5731 22.9535 98.7526 22.8234 98.8295 22.8898L98.8391 22.8981L101.254 24.7827L101.264 24.791C101.302 24.8242 101.296 24.8697 101.247 24.9273C101.125 25.0682 101.013 25.1724 100.909 25.24C100.818 25.3066 100.755 25.3413 100.719 25.3439L100.674 25.3382L98.2669 23.4439C98.2605 23.4384 98.2541 23.4329 98.2477 23.4273C98.2413 23.4218 98.24 23.4039 98.2438 23.3736C98.2476 23.3433 98.2633 23.3122 98.291 23.2802Z" fill="white"/>
<path d="M116.021 49.7933C115.933 49.8243 115.606 49.8772 115.04 49.9519C114.482 50.0238 114.182 50.04 114.141 50.0007C113.584 49.5425 113.071 48.6512 112.602 47.3268C112.23 46.2736 112.299 45.2391 112.81 44.2232C113.324 43.2152 114.116 42.522 115.185 42.1435C116.318 41.7425 117.421 41.7783 118.495 42.251C119.577 42.7209 120.313 43.5063 120.703 44.6073C121.036 45.5488 121.28 46.5535 121.433 47.6214C120.359 47.9839 119.781 48.1792 119.702 48.2075C119.582 48.2498 119.492 48.1872 119.433 48.0197C119.405 47.9399 119.406 47.881 119.438 47.8429C119.533 47.7823 119.626 47.7137 119.715 47.637C119.816 47.5656 119.928 47.4404 120.054 47.2614C120.19 47.0876 120.288 46.8957 120.348 46.6858C120.419 46.481 120.445 46.2115 120.425 45.8773C120.417 45.5482 120.346 45.1961 120.213 44.8212C119.936 44.0393 119.354 43.4959 118.465 43.1911C117.584 42.8835 116.708 42.8836 115.839 43.1915C115.192 43.4202 114.637 43.7423 114.174 44.1578C113.711 44.5732 113.384 45.0839 113.194 45.6897C113.016 46.3006 113.044 46.9372 113.278 47.5994C113.558 48.3893 114.005 48.9177 114.62 49.1847C114.779 49.2541 114.969 49.2947 115.189 49.3067C115.419 49.3239 115.605 49.3298 115.747 49.3245C115.9 49.3244 115.98 49.3363 115.989 49.3602C116.006 49.4081 116.017 49.4668 116.024 49.5362C116.034 49.6137 116.037 49.6752 116.035 49.7207L116.021 49.7933Z" fill="white"/>
<path d="M117.317 61.6418L122.809 61.4093C123.096 61.3972 123.366 61.3603 123.617 61.2989C123.751 61.2509 123.809 61.0324 123.793 60.6434L123.788 60.5292C123.786 60.4785 123.831 60.4512 123.924 60.4472C124.06 60.4415 124.128 60.464 124.131 60.5148C124.167 60.7674 124.21 60.9985 124.262 61.2081C124.313 61.4261 124.363 61.5935 124.41 61.7101C124.458 61.8351 124.5 61.9392 124.538 62.0223C124.583 62.1051 124.62 62.1671 124.647 62.2083L124.687 62.2574L124.688 62.2828C124.69 62.3166 124.666 62.3515 124.617 62.3875C124.576 62.4231 124.534 62.446 124.492 62.4563C124.218 62.3747 123.848 62.3438 123.383 62.3635L117.599 62.6082C117.109 62.629 116.734 62.6788 116.474 62.7575C116.416 62.7769 116.361 62.8893 116.311 63.0948C116.269 63.2999 116.249 63.4447 116.253 63.5293C116.254 63.5546 116.204 63.5737 116.103 63.5865C116.002 63.5992 115.93 63.598 115.887 63.5829C115.893 62.7355 115.895 62.2822 115.893 62.223C115.891 62.1723 115.85 61.7123 115.771 60.8432C115.803 60.8079 115.87 60.7881 115.972 60.7838C116.082 60.7792 116.137 60.7938 116.139 60.8276C116.143 60.9291 116.175 61.076 116.234 61.2683C116.301 61.4687 116.365 61.5762 116.425 61.5906C116.673 61.6394 116.97 61.6565 117.317 61.6418Z" fill="white"/>
<path d="M122.214 74.9881C122.361 74.8958 122.522 74.8666 122.696 74.9003C122.871 74.934 123.005 75.0203 123.099 75.1591C123.199 75.3078 123.233 75.4694 123.199 75.6439C123.165 75.8184 123.075 75.9518 122.928 76.0441C122.788 76.1462 122.63 76.1805 122.456 76.1468C122.281 76.113 122.143 76.0218 122.043 75.8731C121.949 75.7343 121.919 75.5776 121.953 75.4031C121.986 75.2286 122.074 75.0903 122.214 74.9881ZM116.756 74.9939C116.274 74.9007 115.898 74.8625 115.628 74.8792C115.566 74.8846 115.487 74.9814 115.391 75.1696C115.302 75.3594 115.25 75.4959 115.234 75.579C115.229 75.6039 115.176 75.6109 115.075 75.5999C114.973 75.589 114.904 75.5712 114.865 75.5465C115.067 74.7236 115.174 74.283 115.185 74.2248C115.196 74.1667 115.263 73.7098 115.385 72.8541C115.425 72.8273 115.495 72.8235 115.594 72.8428C115.702 72.8637 115.753 72.8907 115.747 72.924C115.728 73.0237 115.724 73.1739 115.737 73.3747C115.757 73.5854 115.794 73.7046 115.849 73.7325C116.079 73.8372 116.364 73.9225 116.705 73.9883L119.061 74.4435C119.385 74.5061 119.62 74.4913 119.768 74.399C119.883 74.3352 119.97 74.2442 120.027 74.126C120.091 74.0176 120.131 73.9219 120.147 73.8388C120.162 73.7641 120.177 73.7283 120.194 73.7315C120.393 73.77 120.492 73.815 120.491 73.8665C120.454 74.773 120.451 75.3673 120.483 75.6492L120.49 75.6766C120.487 75.6932 120.485 75.7057 120.483 75.714C120.477 75.7472 120.435 75.7608 120.359 75.7546C120.291 75.7501 120.241 75.7404 120.209 75.7257C119.885 75.6199 119.59 75.5414 119.324 75.49L116.756 74.9939Z" fill="white"/>
<path d="M116.261 88.9662C115.856 89.8046 115.382 90.2899 114.839 90.4223C114.328 90.1757 114.141 89.9114 114.277 89.6294C114.339 89.4998 114.414 89.4137 114.5 89.3708C114.595 89.3317 114.744 89.2956 114.948 89.2625C115.412 89.1955 115.724 88.9982 115.882 88.6705C116.033 88.358 116.022 88.0005 115.85 87.5978C115.674 87.2027 115.293 86.8635 114.706 86.5801C114.097 86.2856 113.518 86.1895 112.971 86.2916C112.419 86.4014 112.015 86.723 111.757 87.2565C111.68 87.4165 111.622 87.5763 111.582 87.7358C111.543 87.8954 111.518 88.0339 111.508 88.1514C111.503 88.2801 111.502 88.388 111.507 88.475C111.516 88.5733 111.527 88.6583 111.539 88.7301L111.558 88.8377C111.535 88.8834 111.475 88.8824 111.376 88.8345C111.315 88.8051 111.257 88.7491 111.203 88.6666C111.063 88.4111 110.978 88.0924 110.946 87.7105C110.922 87.3323 110.994 86.9679 111.164 86.6173C111.469 85.9848 111.969 85.554 112.662 85.3249C113.359 85.1071 114.051 85.1639 114.737 85.4952C115.438 85.8338 115.952 86.3169 116.278 86.9446C116.613 87.576 116.607 88.2499 116.261 88.9662Z" fill="white"/>
<path d="M105.507 103.305C105.543 103.142 105.581 102.803 105.622 102.286C105.668 101.775 105.681 101.308 105.659 100.883C105.3 100.885 104.85 100.878 104.31 100.862C103.777 100.852 103.34 100.845 102.998 100.839C102.663 100.84 102.438 100.845 102.325 100.856C102.14 100.881 101.948 100.951 101.749 101.066C101.556 101.187 101.428 101.282 101.364 101.35C101.341 101.375 101.28 101.341 101.181 101.249C101.125 101.197 101.094 101.162 101.087 101.145C101.694 100.553 102.023 100.229 102.075 100.173C102.086 100.161 102.37 99.824 102.926 99.1623C102.974 99.1605 103.032 99.1912 103.1 99.2545C103.175 99.3236 103.2 99.3706 103.177 99.3954C103.12 99.4574 103.066 99.5403 103.016 99.644C102.966 99.7477 102.957 99.8139 102.988 99.8427C103 99.8542 103.012 99.8597 103.024 99.8593L105.755 99.8645L105.831 99.7269L105.272 99.2089C104.851 98.8414 104.552 98.6101 104.375 98.515C104.32 98.4871 104.202 98.5275 104.02 98.6361C103.845 98.7505 103.728 98.8387 103.671 98.9007C103.654 98.9194 103.605 98.8972 103.525 98.8344C103.444 98.7715 103.395 98.7195 103.375 98.6783C103.982 98.0866 104.305 97.769 104.345 97.7255C104.38 97.6883 104.678 97.3357 105.24 96.6679C105.288 96.6661 105.349 96.6997 105.423 96.7688C105.504 96.8436 105.533 96.8934 105.51 96.9182C105.441 96.9927 105.359 97.1185 105.264 97.2958C105.169 97.485 105.137 97.606 105.169 97.6587C105.309 97.869 105.506 98.0922 105.76 98.3282L109.791 102.067C110.002 102.262 110.217 102.428 110.438 102.563C110.566 102.624 110.763 102.512 111.027 102.227L111.105 102.143C111.14 102.106 111.191 102.119 111.259 102.182C111.359 102.274 111.391 102.339 111.356 102.376C111.202 102.579 111.069 102.773 110.956 102.957C110.837 103.147 110.753 103.3 110.704 103.416C110.648 103.538 110.604 103.641 110.572 103.726C110.545 103.817 110.53 103.883 110.525 103.925L110.51 103.998L110.493 104.017C110.47 104.041 110.428 104.049 110.368 104.039C110.314 104.035 110.268 104.022 110.232 103.999C110.096 103.747 109.858 103.462 109.517 103.146L106.259 100.124C106.169 100.283 106.125 100.387 106.127 100.434C106.118 100.68 106.107 100.935 106.093 101.199C106.079 101.463 106.068 101.661 106.061 101.793C106.054 101.925 106.05 102.054 106.049 102.18C106.048 102.306 106.054 102.399 106.068 102.458C106.082 102.517 106.108 102.564 106.145 102.599C106.22 102.668 106.327 102.64 106.466 102.515C106.605 102.39 106.683 102.33 106.701 102.335C106.866 102.407 106.934 102.476 106.907 102.543L106.225 103.278C106.139 103.372 106.052 103.471 105.967 103.576C105.875 103.687 105.769 103.814 105.648 103.956C105.522 104.104 105.413 104.234 105.322 104.345C105.286 104.359 105.247 104.345 105.203 104.305C105.154 104.271 105.117 104.23 105.091 104.183C105.065 104.137 105.058 104.107 105.07 104.094C105.145 104.014 105.232 103.882 105.333 103.698C105.434 103.515 105.492 103.384 105.507 103.305Z" fill="white"/>
<path d="M84.8539 114.985C84.994 115.393 85.0161 115.614 84.92 115.647L84.908 115.651L82.0637 116.789L82.0517 116.793C82.0037 116.809 81.9673 116.782 81.9425 116.71C81.8821 116.533 81.8486 116.384 81.8422 116.261C81.8305 116.148 81.8325 116.076 81.8483 116.044L81.876 116.008L84.7245 114.882C84.7325 114.879 84.7405 114.876 84.7485 114.874C84.7565 114.871 84.7726 114.879 84.7969 114.897C84.8211 114.916 84.8401 114.945 84.8539 114.985Z" fill="white"/>
</svg>
