<svg width="132" height="129" viewBox="0 0 132 129" fill="none" xmlns="http://www.w3.org/2000/svg">
<path d="M46.801 115.188L46.021 117.282C46.021 117.282 46.023 117.301 46.0271 117.338C46.7667 117.632 47.3506 117.858 47.7789 118.018C49.0003 118.473 49.6183 118.681 49.6331 118.641L50.3998 116.583C50.5712 116.123 50.6729 115.741 50.705 115.437C50.7098 115.375 50.6194 115.278 50.4339 115.146C50.2454 115.022 50.1115 114.945 50.0322 114.915C50.0084 114.906 50.0143 114.854 50.0497 114.759C50.0772 114.661 50.1063 114.595 50.137 114.561C50.9153 114.896 51.3679 115.087 51.4948 115.135C51.5345 115.15 52.0177 115.307 52.9445 115.607C52.9644 115.651 52.9581 115.716 52.9256 115.803C52.8843 115.914 52.8477 115.964 52.816 115.952C52.7129 115.914 52.5534 115.881 52.3374 115.855C52.1134 115.826 51.9777 115.839 51.9303 115.893C51.795 116.087 51.6358 116.429 51.4526 116.921L49.7329 121.537C49.5498 122.028 49.446 122.392 49.4218 122.627C49.4219 122.699 49.5162 122.797 49.7047 122.922C49.8823 123.051 50.0227 123.135 50.1258 123.173C50.1575 123.185 50.1542 123.243 50.1157 123.346C50.0803 123.441 50.0408 123.498 49.9972 123.518C49.8971 123.472 49.6928 123.378 49.3845 123.236C49.0731 123.102 48.8104 122.995 48.5962 122.915C48.4376 122.856 48.2815 122.802 48.1279 122.754C47.9742 122.706 47.8087 122.653 47.6312 122.596C47.4508 122.547 47.3036 122.506 47.1897 122.472C47.1856 122.435 47.2068 122.366 47.2531 122.266C47.2886 122.171 47.3182 122.127 47.342 122.136C47.4213 122.166 47.5744 122.191 47.8013 122.213C48.0282 122.234 48.1599 122.22 48.1964 122.17C48.3712 121.919 48.5443 121.564 48.7157 121.104L49.376 119.331L49.3656 119.286C48.5942 118.981 47.9944 118.749 47.5661 118.589C47.1061 118.418 46.5163 118.207 45.7966 117.957C45.7748 117.967 45.761 117.98 45.7551 117.996L45.0814 119.804C44.8982 120.296 44.7945 120.659 44.7702 120.894C44.7704 120.966 44.8647 121.064 45.0532 121.189C45.2308 121.318 45.3711 121.402 45.4742 121.44C45.5059 121.452 45.5041 121.506 45.4686 121.601C45.4302 121.704 45.3892 121.766 45.3457 121.785C45.2535 121.742 45.0492 121.648 44.7329 121.503C44.4136 121.366 44.1469 121.258 43.9328 121.178C43.7821 121.122 43.6299 121.069 43.4763 121.021C43.3227 120.973 43.1611 120.922 42.9916 120.868C42.8112 120.819 42.664 120.777 42.55 120.744C42.5519 120.69 42.5661 120.628 42.5927 120.557C42.6341 120.446 42.6706 120.396 42.7023 120.408C42.7816 120.437 42.9347 120.463 43.1616 120.484C43.3885 120.505 43.5202 120.491 43.5568 120.442C43.7118 120.219 43.8809 119.862 44.0641 119.371L45.7483 114.85C45.9315 114.358 46.0372 113.978 46.0653 113.708C46.0701 113.647 45.9798 113.55 45.7942 113.417C45.6058 113.293 45.4719 113.216 45.3926 113.187C45.3608 113.175 45.3671 113.109 45.4115 112.99C45.4351 112.927 45.4637 112.874 45.4973 112.833C46.2756 113.168 46.7203 113.356 46.8313 113.397C46.8789 113.415 47.3661 113.574 48.293 113.874C48.3129 113.918 48.3051 113.987 48.2697 114.082C48.2313 114.185 48.1962 114.231 48.1645 114.219C48.0614 114.181 47.9018 114.148 47.6858 114.122C47.4619 114.093 47.3262 114.106 47.2787 114.16C47.1435 114.354 46.9842 114.696 46.801 115.188Z" fill="white"/>
<path d="M30.9668 109.956C31.3118 110.242 31.7274 110.318 32.2138 110.183C32.6883 110.049 33.1148 109.755 33.4935 109.299C33.9371 108.765 34.1818 108.193 34.2276 107.581C34.2614 106.971 34.0928 106.512 33.7218 106.204C33.3769 105.917 32.9585 105.844 32.4667 105.986C31.9749 106.127 31.5397 106.426 31.161 106.882C30.7228 107.409 30.4895 107.974 30.4611 108.578C30.4272 109.188 30.5958 109.647 30.9668 109.956ZM30.5429 110.247C29.9571 109.76 29.6317 109.132 29.5668 108.363C29.5018 107.594 29.7155 106.913 30.2077 106.321C30.7054 105.722 31.3378 105.378 32.1049 105.289C32.8601 105.201 33.5338 105.404 34.1262 105.896C34.7185 106.388 35.0471 107.019 35.1121 107.788C35.1716 108.564 34.9526 109.251 34.4549 109.85C33.9518 110.456 33.3254 110.799 32.5756 110.88C31.8258 110.961 31.1483 110.75 30.5429 110.247Z" fill="white"/>
<path d="M17.8572 96.2689C17.6906 95.9742 17.6341 95.6853 17.6879 95.4021C17.7301 95.1157 17.8335 94.8773 17.9981 94.687C17.1626 94.4303 16.5782 94.0072 16.2449 93.4179C15.7199 92.4896 16.1647 91.6255 17.5791 90.8256L18.8057 90.1319C19.233 89.8902 19.5442 89.6754 19.7392 89.4873C19.7825 89.4434 19.7799 89.3184 19.7315 89.1125C19.6757 88.9107 19.6269 88.7729 19.5853 88.6993C19.5728 88.6772 19.6087 88.6374 19.6929 88.5801C19.7771 88.5227 19.8418 88.491 19.887 88.4849C20.2668 89.2424 20.4713 89.647 20.5004 89.6985C20.5254 89.7427 20.7709 90.1338 21.2369 90.8718C21.2241 90.9179 21.1735 90.966 21.0851 91.016C20.9893 91.0701 20.9331 91.0825 20.9164 91.053C20.8664 90.9646 20.7714 90.8482 20.6314 90.7037C20.4798 90.5561 20.3741 90.4895 20.3142 90.5039C20.0714 90.5732 19.8211 90.6807 19.5632 90.8265L18.3145 91.5327C17.18 92.1744 16.8231 92.8672 17.2439 93.6113C17.3981 93.8838 17.6124 94.0738 17.887 94.181C18.1542 94.2924 18.3394 94.319 18.4425 94.2606L18.4805 94.2246C18.5099 94.2079 18.5283 94.1975 18.5357 94.1933C18.7032 94.0597 18.9601 93.895 19.3064 93.6992L20.5551 92.993C20.9161 92.7888 21.1941 92.5927 21.3891 92.4046C21.4324 92.3607 21.4298 92.2358 21.3813 92.0298C21.3255 91.828 21.2768 91.6903 21.2352 91.6166C21.2227 91.5945 21.2585 91.5548 21.3428 91.4974C21.427 91.44 21.4917 91.4083 21.5369 91.4022C21.9167 92.1597 22.1212 92.5643 22.1503 92.6159C22.1753 92.6601 22.4208 93.0512 22.8868 93.7891C22.874 93.8353 22.8234 93.8833 22.735 93.9333C22.6392 93.9875 22.583 93.9998 22.5663 93.9704C22.5163 93.882 22.4213 93.7655 22.2813 93.6211C22.1297 93.4734 22.024 93.4068 21.9641 93.4213C21.7213 93.4905 21.4488 93.6106 21.1468 93.7814L20.0196 94.4188C18.8483 95.0813 18.4626 95.7661 18.8626 96.4734C18.9875 96.6944 19.1993 96.8712 19.4979 97.0037C19.785 97.1331 20.0059 97.154 20.1606 97.0665L22.1055 95.9666C22.5328 95.7249 22.8439 95.5101 23.039 95.322C23.0822 95.2781 23.0796 95.1531 23.0312 94.9472C22.9754 94.7453 22.9267 94.6076 22.885 94.5339C22.8725 94.5118 22.9084 94.4721 22.9926 94.4147C23.0769 94.3574 23.1416 94.3256 23.1867 94.3196C23.5665 95.0771 23.771 95.4816 23.8002 95.5332C23.8252 95.5774 24.0707 95.9685 24.5366 96.7065C24.5238 96.7526 24.4732 96.8007 24.3848 96.8507C24.2891 96.9048 24.2328 96.9172 24.2162 96.8877C24.1662 96.7993 24.0712 96.6829 23.9311 96.5384C23.7796 96.3908 23.6738 96.3242 23.6139 96.3386C23.3711 96.4079 23.0987 96.5279 22.7967 96.6987L20.7081 97.8799C20.4208 98.0424 20.251 98.2064 20.1989 98.3721C20.1521 98.4957 20.1453 98.6212 20.1783 98.7483C20.1998 98.8723 20.2314 98.9711 20.273 99.0448C20.3105 99.1111 20.3219 99.1484 20.3072 99.1567C20.1304 99.2567 20.0258 99.2867 19.9934 99.2467C19.4339 98.5324 19.0507 98.0783 18.8437 97.8842C18.8395 97.8768 18.8333 97.8658 18.8249 97.851C18.8092 97.8405 18.8014 97.8352 18.8014 97.8352C18.7847 97.8057 18.8074 97.7685 18.8696 97.7237C18.9244 97.683 18.9686 97.658 19.0022 97.6487C19.2251 97.5615 19.3808 97.4929 19.4692 97.4429C19.4987 97.4262 19.5092 97.4105 19.5009 97.3958C19.4967 97.3884 19.4831 97.3816 19.4601 97.3752C19.1874 97.3057 18.8925 97.1711 18.5753 96.9713C18.2466 96.7682 18.0072 96.5341 17.8572 96.2689Z" fill="white"/>
<path d="M10.4382 75.8783C10.5104 76.3124 10.7539 76.6151 11.1685 76.7863C11.5733 76.9506 11.8968 77.0126 12.1389 76.9723C12.1974 76.9625 12.2224 76.9326 12.2141 76.8825L11.8076 74.4405C11.8006 74.3988 11.7554 74.3849 11.6719 74.3988C11.4048 74.4432 11.1188 74.6067 10.814 74.8891C10.5009 75.1729 10.3756 75.5026 10.4382 75.8783ZM9.95396 75.8302C9.89003 75.4462 9.90888 75.0955 10.0105 74.7783C10.1038 74.4625 10.2548 74.21 10.4636 74.0208C10.6626 73.8246 10.8776 73.673 11.1086 73.5659C11.3298 73.4519 11.5573 73.3754 11.7911 73.3365C11.9581 73.3087 12.0666 73.3163 12.1167 73.3595C12.1584 73.404 12.1911 73.4973 12.2147 73.6392L12.74 76.795C12.7512 76.8618 12.7776 76.8917 12.8193 76.8847C13.3453 76.7972 13.8031 76.5579 14.1928 76.167C14.5825 75.7761 14.7273 75.2801 14.6272 74.679C14.598 74.5037 14.5535 74.3395 14.4937 74.1864C14.4339 74.0334 14.3741 73.906 14.3143 73.8045C14.2447 73.6959 14.1828 73.6076 14.1286 73.5394C14.0646 73.4642 14.0069 73.4009 13.9554 73.3494L13.8782 73.2722C13.8699 73.2221 13.92 73.188 14.0285 73.1699C14.0953 73.1588 14.1746 73.1714 14.2664 73.2075C14.528 73.3356 14.7819 73.5465 15.0281 73.8401C15.2659 74.1351 15.4169 74.4746 15.4808 74.8587C15.5961 75.5516 15.4367 76.1916 15.0025 76.7787C14.5585 77.3588 13.9608 77.7114 13.2094 77.8365C12.3328 77.9824 11.601 77.864 11.0139 77.4813C10.4254 77.0902 10.0721 76.5398 9.95396 75.8302Z" fill="white"/>
<path d="M13.8003 51.2569C13.3898 51.1235 13.2003 51.0085 13.2317 50.9119L13.2356 50.8998L14.0366 47.943L14.0405 47.931C14.0562 47.8827 14.1003 47.8703 14.1728 47.8938C14.3498 47.9514 14.4895 48.0146 14.5917 48.0834C14.6885 48.1416 14.745 48.1867 14.7613 48.2187L14.7737 48.2627L13.9606 51.2156C13.958 51.2236 13.9553 51.2317 13.9527 51.2397C13.9501 51.2478 13.9341 51.2559 13.9047 51.2642C13.8754 51.2724 13.8405 51.27 13.8003 51.2569Z" fill="white"/>
<path d="M30.7411 25.8832L29.2372 24.2307C29.2372 24.2307 29.2196 24.2239 29.1843 24.2103C28.5845 24.7332 28.1156 25.1485 27.7776 25.4561C26.8136 26.3334 26.3459 26.7876 26.3743 26.8189L27.8526 28.4433C28.183 28.8063 28.476 29.0718 28.7317 29.2396C28.7841 29.272 28.9116 29.2361 29.1143 29.1318C29.3112 29.0212 29.441 28.9375 29.5035 28.8805C29.5223 28.8634 29.5659 28.8924 29.6343 28.9675C29.7089 29.037 29.7542 29.093 29.7701 29.1357C29.1157 29.6741 28.7384 29.9888 28.6382 30.08C28.6069 30.1084 28.2456 30.4659 27.5543 31.1523C27.5064 31.15 27.4512 31.1145 27.3885 31.0456C27.3088 30.958 27.2814 30.9028 27.3065 30.88C27.3878 30.8059 27.4897 30.6789 27.612 30.4989C27.7405 30.3133 27.7914 30.1869 27.7646 30.1197C27.6547 29.9108 27.4231 29.6123 27.0699 29.2242L23.7545 25.5812C23.4013 25.1931 23.1259 24.9345 22.9283 24.8054C22.864 24.7724 22.7333 24.8112 22.5364 24.9217C22.34 25.0203 22.2012 25.1066 22.1198 25.1807C22.0948 25.2035 22.0452 25.1742 21.9712 25.0928C21.9028 25.0177 21.8698 24.9562 21.872 24.9084C21.9591 24.8406 22.1363 24.7022 22.4038 24.4931C22.6656 24.2778 22.881 24.0932 23.05 23.9394C23.1752 23.8254 23.2944 23.7112 23.4076 23.5967C23.5209 23.4822 23.6435 23.3592 23.7755 23.2276C23.9018 23.0898 24.0059 22.9779 24.0879 22.8918C24.1232 22.9055 24.1747 22.9559 24.2425 23.0429C24.3109 23.118 24.3357 23.1641 24.3169 23.1812C24.2543 23.2382 24.1616 23.3626 24.0387 23.5546C23.9158 23.7465 23.8681 23.8701 23.8954 23.9253C24.0385 24.1956 24.2752 24.5123 24.6056 24.8754L25.8787 26.2744L25.9232 26.2854C26.548 25.7397 27.0294 25.313 27.3674 25.0054C27.7305 24.675 28.188 24.2472 28.7399 23.722C28.7411 23.6981 28.7359 23.6799 28.7245 23.6674L27.4257 22.2402C27.0725 21.8521 26.7971 21.5935 26.5995 21.4644C26.5352 21.4314 26.4045 21.4702 26.2076 21.5807C26.0112 21.6793 25.8724 21.7656 25.791 21.8397C25.766 21.8625 25.7193 21.8363 25.6509 21.7612C25.5769 21.6798 25.541 21.6152 25.5432 21.5674C25.624 21.5053 25.8013 21.3669 26.075 21.1521C26.3431 20.9311 26.5616 20.7436 26.7306 20.5898C26.8495 20.4816 26.9656 20.3702 27.0788 20.2557C27.1921 20.1413 27.3116 20.0211 27.4373 19.8952C27.5636 19.7573 27.6677 19.6454 27.7497 19.5594C27.7964 19.5856 27.8454 19.6268 27.8966 19.6831C27.9764 19.7708 28.0037 19.826 27.9787 19.8488C27.9161 19.9057 27.8234 20.0302 27.7005 20.2221C27.5776 20.414 27.5299 20.5376 27.5572 20.5928C27.6837 20.8324 27.9236 21.1463 28.2768 21.5344L31.5238 25.1023C31.877 25.4904 32.1669 25.7587 32.3936 25.9071C32.4459 25.9396 32.5735 25.9036 32.7761 25.7993C32.973 25.6888 33.1028 25.605 33.1654 25.5481C33.1904 25.5253 33.2456 25.5608 33.3311 25.6547C33.3767 25.7048 33.4103 25.7543 33.4319 25.8033C32.7775 26.3416 32.4065 26.6507 32.3188 26.7304C32.2813 26.7646 31.9168 27.1249 31.2255 27.8113C31.1776 27.809 31.1195 27.7703 31.0512 27.6952C30.9771 27.6139 30.9526 27.5618 30.9777 27.539C31.059 27.4649 31.1609 27.3379 31.2832 27.158C31.4118 26.9723 31.4626 26.8459 31.4358 26.7787C31.3259 26.5698 31.0943 26.2713 30.7411 25.8832Z" fill="white"/>
<path d="M42.6455 14.2048C42.2326 14.3801 41.9748 14.7149 41.872 15.2091C41.7737 15.6922 41.8404 16.2064 42.0719 16.7517C42.3432 17.3905 42.74 17.8703 43.2623 18.191C43.7892 18.5006 44.2746 18.5611 44.7187 18.3725C45.1316 18.1972 45.3878 17.8586 45.4872 17.3566C45.5867 16.8546 45.5207 16.3309 45.2891 15.7856C45.0211 15.1546 44.6254 14.6882 44.1019 14.3864C43.575 14.0768 43.0896 14.0163 42.6455 14.2048ZM42.5806 13.6945C43.2817 13.3968 43.989 13.3953 44.7026 13.6899C45.4162 13.9846 45.9236 14.4864 46.2246 15.1953C46.5289 15.912 46.5448 16.6316 46.2724 17.3542C46.0044 18.0656 45.516 18.5719 44.807 18.8729C44.0981 19.1739 43.3869 19.1771 42.6733 18.8825C41.9564 18.58 41.4457 18.0704 41.1414 17.3537C40.8338 16.6292 40.8156 15.9151 41.0869 15.2115C41.3582 14.5078 41.8561 14.0021 42.5806 13.6945Z" fill="white"/>
<path d="M60.8171 8.82127C61.1554 8.80812 61.4381 8.8903 61.6652 9.06781C61.9004 9.23653 62.065 9.43765 62.1587 9.67116C62.7697 9.04604 63.4134 8.72033 64.09 8.69402C65.1556 8.65259 65.72 9.44376 65.7831 11.0675L65.8379 12.4757C65.8569 12.9662 65.9054 13.3412 65.9832 13.6007C66.0025 13.6593 66.1147 13.7142 66.32 13.7655C66.5249 13.8084 66.6697 13.8281 66.7542 13.8249C66.7796 13.8239 66.7985 13.874 66.8109 13.9751C66.8233 14.0763 66.8219 14.1483 66.8066 14.1913C65.9592 14.1819 65.506 14.1783 65.4468 14.1806C65.396 14.1826 64.9359 14.2216 64.0665 14.2978C64.0313 14.2653 64.0118 14.1983 64.0079 14.0968C64.0036 13.9869 64.0184 13.9312 64.0522 13.9299C64.1537 13.926 64.3007 13.8948 64.4932 13.8365C64.6939 13.7694 64.8015 13.706 64.8161 13.6461C64.8658 13.3986 64.8849 13.1268 64.8734 12.8308L64.8176 11.3973C64.767 10.0949 64.3146 9.46029 63.4604 9.4935C63.1475 9.50567 62.8805 9.60922 62.6594 9.80415C62.438 9.99063 62.3295 10.1431 62.3341 10.2615L62.3488 10.3117C62.3501 10.3455 62.3509 10.3667 62.3513 10.3751C62.3933 10.5853 62.4221 10.8891 62.4375 11.2865L62.4933 12.72C62.5094 13.1344 62.5564 13.4714 62.6342 13.7309C62.6534 13.7895 62.7657 13.8444 62.9709 13.8957C63.1759 13.9386 63.3206 13.9584 63.4052 13.9551C63.4306 13.9541 63.4495 14.0042 63.4619 14.1053C63.4743 14.2065 63.4728 14.2785 63.4576 14.3215C62.6102 14.3121 62.1569 14.3085 62.0977 14.3108C62.047 14.3128 61.5869 14.3519 60.7175 14.428C60.6823 14.3955 60.6628 14.3285 60.6588 14.227C60.6545 14.1171 60.6693 14.0614 60.7031 14.0601C60.8046 14.0562 60.9516 14.0251 61.1442 13.9667C61.3449 13.8997 61.4525 13.8362 61.4671 13.7763C61.5168 13.5288 61.5349 13.2316 61.5214 12.8849L61.4711 11.5909C61.4188 10.2462 60.9867 9.58968 60.1748 9.62124C59.9211 9.63111 59.667 9.73839 59.4123 9.9431C59.1659 10.139 59.0461 10.3258 59.053 10.5034L59.1398 12.7361C59.1589 13.2266 59.2073 13.6016 59.2852 13.8612C59.3044 13.9197 59.4166 13.9746 59.6219 14.0259C59.8268 14.0688 59.9716 14.0886 60.0562 14.0853C60.0815 14.0843 60.1004 14.1344 60.1128 14.2355C60.1252 14.3367 60.1238 14.4087 60.1085 14.4517C59.2612 14.4423 58.8079 14.4387 58.7487 14.441C58.698 14.443 58.2379 14.4821 57.3684 14.5582C57.3333 14.5257 57.3137 14.4587 57.3098 14.3572C57.3055 14.2473 57.3203 14.1916 57.3541 14.1903C57.4556 14.1864 57.6026 14.1553 57.7952 14.097C57.9958 14.0299 58.1035 13.9664 58.1181 13.9065C58.1677 13.659 58.1858 13.3618 58.1724 13.0151L58.0791 10.6175C58.0663 10.2876 57.9982 10.0616 57.8749 9.93935C57.7864 9.84115 57.678 9.77761 57.5499 9.74871C57.4298 9.71103 57.3275 9.69383 57.2429 9.69712C57.1668 9.70008 57.1284 9.6931 57.1278 9.67619C57.1199 9.47321 57.1412 9.36651 57.1916 9.35608C58.0828 9.18592 58.662 9.05328 58.9294 8.95819C58.9378 8.95786 58.9505 8.95737 58.9674 8.95671C58.984 8.9476 58.9923 8.94304 58.9923 8.94304C59.0261 8.94172 59.0488 8.97896 59.0602 9.05474C59.0713 9.12207 59.0732 9.17282 59.0661 9.20697C59.0415 9.44509 59.0311 9.61489 59.0351 9.71638C59.0364 9.7502 59.0455 9.76679 59.0624 9.76613C59.0709 9.7658 59.0832 9.75685 59.0995 9.73928C59.2861 9.52875 59.5409 9.32827 59.8638 9.13784C60.1949 8.93863 60.5126 8.83311 60.8171 8.82127Z" fill="white"/>
<path d="M82.3411 11.567C81.9221 11.4323 81.5415 11.5101 81.1994 11.8002C80.8679 12.0848 80.6647 12.344 80.5896 12.5777C80.5714 12.6341 80.5866 12.67 80.6349 12.6856L82.9918 13.4428C83.0321 13.4558 83.0652 13.422 83.0911 13.3414C83.1739 13.0835 83.1597 12.7545 83.0482 12.3542C82.9394 11.9459 82.7037 11.6835 82.3411 11.567ZM82.6057 11.1586C82.9763 11.2777 83.2794 11.455 83.5148 11.6907C83.7528 11.9183 83.9081 12.1682 83.9806 12.4404C84.0638 12.7072 84.1001 12.9678 84.0895 13.2221C84.0895 13.4711 84.0533 13.7083 83.9808 13.934C83.929 14.0951 83.8725 14.1881 83.8112 14.2128C83.7525 14.2295 83.6546 14.2159 83.5177 14.1718L80.4718 13.1932C80.4073 13.1725 80.3686 13.1823 80.3557 13.2226C80.1926 13.7302 80.1955 14.2468 80.3645 14.7722C80.5335 15.2977 80.9081 15.6536 81.4882 15.84C81.6574 15.8944 81.8238 15.93 81.9872 15.947C82.1507 15.9639 82.2913 15.9691 82.409 15.9625C82.5373 15.9504 82.6442 15.9358 82.7297 15.9188C82.8258 15.8964 82.9085 15.8741 82.9779 15.8519L83.0819 15.8187C83.1302 15.8342 83.1376 15.8943 83.1039 15.9991C83.0832 16.0635 83.0357 16.1283 82.9615 16.1933C82.7279 16.3672 82.4241 16.4963 82.0503 16.5806C81.6791 16.6569 81.3082 16.6356 80.9375 16.5165C80.2687 16.3016 79.7728 15.8667 79.4499 15.2117C79.1376 14.5514 79.0979 13.8586 79.3309 13.1333C79.6028 12.2873 80.0433 11.691 80.6524 11.3444C81.2697 11.0005 81.9207 10.9385 82.6057 11.1586Z" fill="white"/>
<path d="M102.687 25.8342C102.994 25.5304 103.183 25.4146 103.254 25.4868L103.263 25.4958L105.525 27.5623L105.533 27.5713C105.569 27.6074 105.56 27.6522 105.506 27.7058C105.374 27.8369 105.253 27.9321 105.145 27.9914C105.049 28.0508 104.983 28.0804 104.948 28.0802L104.903 28.071L102.65 25.9956C102.644 25.9896 102.638 25.9836 102.633 25.9776C102.627 25.9715 102.627 25.9536 102.633 25.9237C102.639 25.8938 102.657 25.864 102.687 25.8342Z" fill="white"/>
<path d="M117.482 52.5162L119.64 51.9364C119.64 51.9364 119.654 51.9238 119.682 51.8987C119.492 51.126 119.338 50.519 119.219 50.0776C118.881 48.8188 118.691 48.195 118.65 48.206L116.529 48.7759C116.055 48.9033 115.685 49.0422 115.419 49.1926C115.366 49.2243 115.339 49.3541 115.339 49.582C115.347 49.8077 115.362 49.9614 115.384 50.0432C115.391 50.0677 115.345 50.0931 115.247 50.1195C115.151 50.154 115.081 50.1686 115.035 50.1632C114.857 49.3349 114.75 48.8553 114.714 48.7246C114.704 48.6837 114.551 48.1988 114.258 47.2698C114.282 47.2283 114.339 47.1955 114.429 47.1713C114.543 47.1406 114.605 47.1415 114.613 47.1742C114.642 47.2805 114.708 47.4292 114.812 47.6204C114.918 47.8197 115.007 47.9229 115.079 47.9298C115.315 47.9277 115.687 47.8586 116.194 47.7224L120.951 46.4442C121.457 46.308 121.813 46.1817 122.019 46.0651C122.078 46.023 122.103 45.8892 122.095 45.6635C122.097 45.4438 122.084 45.2808 122.055 45.1745C122.047 45.1418 122.095 45.1112 122.202 45.0826C122.3 45.0563 122.37 45.0551 122.411 45.079C122.431 45.1874 122.473 45.4084 122.537 45.7419C122.608 46.0733 122.673 46.3493 122.733 46.57C122.777 46.7335 122.824 46.8917 122.874 47.0448C122.923 47.1979 122.977 47.3633 123.033 47.5409C123.098 47.7164 123.15 47.8602 123.189 47.9724C123.16 47.9976 123.092 48.0203 122.983 48.0407C122.885 48.067 122.833 48.068 122.826 48.0434C122.804 47.9617 122.736 47.8223 122.622 47.6251C122.508 47.428 122.42 47.3289 122.358 47.328C122.052 47.3313 121.662 47.3966 121.188 47.524L119.361 48.0149L119.331 48.0493C119.53 48.8547 119.689 49.4781 119.807 49.9195C119.935 50.3935 120.106 50.9962 120.32 51.7274C120.34 51.7394 120.359 51.7431 120.375 51.7387L122.239 51.238C122.746 51.1018 123.102 50.9755 123.307 50.859C123.366 50.8169 123.391 50.683 123.383 50.4573C123.385 50.2376 123.372 50.0746 123.344 49.9683C123.335 49.9356 123.379 49.9061 123.478 49.8798C123.584 49.8512 123.658 49.8489 123.699 49.8728C123.717 49.9731 123.759 50.1941 123.825 50.5358C123.898 50.8753 123.965 51.1554 124.024 51.3761C124.066 51.5314 124.112 51.6856 124.162 51.8387C124.212 51.9918 124.264 52.153 124.318 52.3225C124.383 52.4979 124.434 52.6417 124.473 52.754C124.429 52.7835 124.37 52.8082 124.296 52.8279C124.182 52.8587 124.12 52.8577 124.111 52.825C124.089 52.7433 124.021 52.6038 123.907 52.4067C123.792 52.2095 123.705 52.1105 123.643 52.1095C123.372 52.1122 122.983 52.1816 122.476 52.3178L117.817 53.5697C117.311 53.7059 116.939 53.8407 116.704 53.9742C116.651 54.0059 116.624 54.1357 116.624 54.3636C116.632 54.5893 116.647 54.743 116.669 54.8247C116.678 54.8574 116.621 54.8902 116.498 54.9232C116.433 54.9408 116.374 54.948 116.32 54.9448C116.141 54.1165 116.037 53.6451 116.006 53.5306C115.993 53.4816 115.839 52.9926 115.546 52.0636C115.57 52.0221 115.631 51.9882 115.729 51.9618C115.835 51.9333 115.893 51.9354 115.902 51.9681C115.93 52.0743 115.996 52.223 116.1 52.4142C116.206 52.6135 116.295 52.7167 116.367 52.7236C116.604 52.7215 116.975 52.6524 117.482 52.5162Z" fill="white"/>
<path d="M122.41 68.4479C122.443 68.0006 122.263 67.618 121.871 67.3003C121.487 66.9916 120.999 66.8153 120.408 66.7713C119.716 66.7198 119.108 66.8528 118.584 67.1702C118.067 67.4967 117.791 67.9005 117.755 68.3816C117.722 68.8289 117.906 69.2118 118.306 69.5302C118.707 69.8485 119.203 70.0297 119.793 70.0737C120.477 70.1245 121.073 69.9864 121.581 69.6593C122.098 69.3328 122.374 68.929 122.41 68.4479ZM122.893 68.6239C122.836 69.3835 122.514 70.013 121.925 70.5124C121.336 71.0117 120.658 71.2328 119.89 71.1756C119.113 71.1179 118.466 70.8024 117.949 70.2292C117.439 69.6651 117.213 68.999 117.27 68.2309C117.327 67.4629 117.65 66.8292 118.239 66.3298C118.836 65.8311 119.523 65.6106 120.3 65.6684C121.084 65.7268 121.728 66.0378 122.229 66.6013C122.73 67.1648 122.951 67.839 122.893 68.6239Z" fill="white"/>
<path d="M118.871 87.0669C118.728 87.3736 118.525 87.5872 118.263 87.7078C118.006 87.8396 117.752 87.8938 117.501 87.8701C117.777 88.6996 117.772 89.421 117.485 90.0345C117.034 91.0007 116.072 91.1399 114.6 90.4522L113.323 89.8559C112.878 89.6481 112.522 89.5194 112.256 89.4697C112.195 89.46 112.095 89.5346 111.955 89.6936C111.823 89.8561 111.739 89.9757 111.704 90.0524C111.693 90.0754 111.64 90.0693 111.544 90.0339C111.449 89.9986 111.385 89.9643 111.354 89.9311C111.751 89.1822 111.961 88.7809 111.986 88.7272C112.008 88.6812 112.184 88.2543 112.514 87.4466C112.559 87.4302 112.628 87.4436 112.72 87.4865C112.82 87.5331 112.862 87.5717 112.848 87.6024C112.805 87.6944 112.765 87.8393 112.729 88.0372C112.697 88.2463 112.704 88.3711 112.75 88.4115C112.948 88.569 113.181 88.7105 113.449 88.8359L114.749 89.443C115.93 89.9946 116.701 89.8831 117.063 89.1086C117.195 88.8249 117.225 88.5401 117.153 88.2543C117.089 87.972 117.003 87.8058 116.896 87.7557L116.845 87.7457C116.814 87.7313 116.795 87.7224 116.787 87.7188C116.581 87.6599 116.298 87.5463 115.937 87.378L114.638 86.7709C114.262 86.5954 113.941 86.4828 113.674 86.4331C113.614 86.4233 113.513 86.498 113.374 86.6569C113.242 86.8195 113.158 86.9391 113.122 87.0158C113.111 87.0388 113.058 87.0326 112.963 86.9973C112.867 86.962 112.804 86.9277 112.772 86.8945C113.169 86.1455 113.38 85.7442 113.405 85.6906C113.426 85.6446 113.602 85.2177 113.933 84.4099C113.978 84.3936 114.046 84.4069 114.138 84.4499C114.238 84.4965 114.281 84.5351 114.266 84.5658C114.223 84.6578 114.184 84.8027 114.147 85.0006C114.115 85.2097 114.122 85.3344 114.169 85.3749C114.366 85.5324 114.622 85.6846 114.936 85.8315L116.11 86.3795C117.329 86.949 118.11 86.8656 118.454 86.1295C118.562 85.8994 118.583 85.6244 118.517 85.3043C118.456 84.9954 118.345 84.8034 118.184 84.7282L116.16 83.7826C115.715 83.5748 115.359 83.4461 115.093 83.3964C115.032 83.3867 114.932 83.4613 114.792 83.6203C114.66 83.7828 114.576 83.9024 114.54 83.9791C114.53 84.0021 114.477 83.996 114.381 83.9607C114.285 83.9254 114.222 83.8911 114.191 83.8578C114.587 83.1089 114.798 82.7076 114.823 82.6539C114.845 82.6079 115.021 82.1811 115.351 81.3733C115.396 81.357 115.465 81.3703 115.557 81.4133C115.656 81.4598 115.699 81.4984 115.685 81.5291C115.642 81.6211 115.602 81.7661 115.566 81.9639C115.534 82.173 115.541 82.2978 115.587 82.3382C115.784 82.4958 116.04 82.648 116.355 82.7948L118.529 83.8103C118.828 83.9499 119.06 83.993 119.225 83.9393C119.353 83.9056 119.459 83.8384 119.543 83.7378C119.632 83.6483 119.694 83.5652 119.73 83.4886C119.762 83.4195 119.786 83.3886 119.801 83.3958C119.985 83.4817 120.07 83.5495 120.056 83.5991C119.8 84.4693 119.652 85.0449 119.614 85.3261C119.611 85.3338 119.605 85.3453 119.598 85.3606C119.599 85.3796 119.599 85.389 119.599 85.389C119.584 85.4197 119.541 85.4227 119.468 85.3982C119.403 85.3772 119.357 85.3557 119.33 85.3337C119.13 85.2027 118.984 85.1158 118.892 85.0728C118.861 85.0585 118.842 85.059 118.835 85.0743C118.831 85.082 118.834 85.0971 118.842 85.1196C118.944 85.3819 119.005 85.7002 119.026 86.0745C119.052 86.46 119 86.7908 118.871 87.0669Z" fill="white"/>
<path d="M106.571 104.942C106.882 104.631 106.987 104.257 106.886 103.82C106.785 103.395 106.648 103.096 106.475 102.922C106.433 102.88 106.394 102.877 106.358 102.913L104.605 104.661C104.575 104.691 104.59 104.736 104.65 104.796C104.841 104.988 105.14 105.126 105.547 105.21C105.96 105.3 106.301 105.211 106.571 104.942ZM106.812 105.364C106.537 105.639 106.24 105.827 105.923 105.929C105.612 106.036 105.318 106.059 105.043 105.999C104.768 105.951 104.52 105.864 104.298 105.738C104.077 105.624 103.883 105.483 103.716 105.315C103.596 105.195 103.539 105.103 103.545 105.037C103.557 104.977 103.614 104.896 103.716 104.795L105.981 102.535C106.029 102.488 106.038 102.449 106.008 102.419C105.632 102.041 105.171 101.807 104.627 101.717C104.082 101.626 103.594 101.796 103.163 102.226C103.037 102.352 102.929 102.483 102.839 102.621C102.749 102.759 102.68 102.881 102.632 102.989C102.584 103.108 102.548 103.21 102.524 103.294C102.5 103.39 102.482 103.473 102.47 103.545L102.452 103.653C102.416 103.689 102.359 103.668 102.281 103.59C102.234 103.542 102.198 103.47 102.174 103.374C102.127 103.087 102.151 102.758 102.247 102.387C102.349 102.022 102.538 101.702 102.814 101.427C103.311 100.931 103.925 100.689 104.655 100.702C105.385 100.727 106.019 101.009 106.557 101.549C107.185 102.178 107.513 102.843 107.542 103.543C107.565 104.249 107.322 104.856 106.812 105.364Z" fill="white"/>
<path d="M84.5682 116.492C84.6977 116.904 84.7141 117.125 84.6172 117.156L84.6051 117.159L81.7323 118.223L81.7201 118.227C81.6717 118.242 81.6361 118.213 81.6132 118.141C81.5573 117.963 81.5277 117.813 81.5245 117.689C81.5157 117.577 81.5196 117.505 81.5362 117.473L81.5649 117.437L84.4415 116.386C84.4496 116.383 84.4577 116.381 84.4657 116.378C84.4738 116.376 84.4897 116.384 84.5135 116.403C84.5373 116.422 84.5555 116.452 84.5682 116.492Z" fill="white"/>
</svg>
