<svg width="100" height="99" viewBox="0 0 100 99" fill="none" xmlns="http://www.w3.org/2000/svg">
<path d="M40.1189 92.3929C39.8199 92.2998 39.4419 92.2042 38.9849 92.1062C38.9862 91.9027 38.8166 89.6293 38.4762 85.2861C38.4731 85.2674 38.4595 85.2543 38.4352 85.2467C38.4029 85.2367 38.3777 85.2465 38.3595 85.2764C36.9888 86.8883 35.8816 88.2233 35.0379 89.2813C35.0379 89.2813 34.7253 89.7158 34.1001 90.5849C33.593 90.3915 33.2627 90.2709 33.1091 90.2231C32.6081 90.067 32.1506 89.9423 31.7365 89.8487C31.7349 89.7685 31.7416 89.7041 31.7567 89.6556C31.792 89.5425 31.8298 89.4922 31.8702 89.5048L31.8944 89.5123C31.9833 89.54 32.1093 89.5482 32.2724 89.537C32.4329 89.5338 32.5584 89.5152 32.6487 89.4813C32.7683 89.4388 32.9011 89.1832 33.0471 88.7145C33.0873 88.5852 33.5619 86.9335 34.4706 83.7594C34.606 83.2963 34.6612 82.9057 34.6361 82.5876C34.6264 82.5048 34.5254 82.4024 34.3329 82.2804C34.1379 82.1665 33.9959 82.0957 33.9071 82.068C33.8747 82.058 33.8762 81.9964 33.9114 81.8832C33.9341 81.8105 33.961 81.7524 33.9923 81.709C34.7878 82.001 35.2623 82.171 35.4158 82.2188C35.4562 82.2314 35.9474 82.3622 36.8892 82.6112C36.9115 82.6536 36.9075 82.7232 36.8773 82.8202C36.8446 82.9253 36.8121 82.9728 36.7797 82.9627C36.6989 82.9375 36.5714 82.92 36.3972 82.91C36.215 82.8976 36.0812 82.9003 35.9959 82.918C35.8813 82.9444 35.7787 83.103 35.6881 83.3939L35.488 84.0363L34.3047 88.3482C34.2725 88.4801 34.2502 88.6371 34.2377 88.8194C34.2147 89.0072 34.2234 89.1074 34.2638 89.12C34.2799 89.1251 34.3089 89.1031 34.3508 89.054L38.7716 83.7825C39.0333 83.4828 39.2369 83.3556 39.3824 83.4009C39.4066 83.4085 39.4405 83.4279 39.4839 83.4592L40.0626 91.3781C40.3204 90.6074 40.6214 89.7261 40.9658 88.7341C41.3102 87.7422 41.5965 86.9227 41.8246 86.2757C42.0501 85.6368 42.1654 85.3093 42.1705 85.2931C42.2158 85.1477 42.2242 85.0351 42.1959 84.9553C42.1675 84.8756 42.0422 84.7656 41.8199 84.6255C41.587 84.4909 41.4302 84.411 41.3494 84.3859C41.3171 84.3758 41.3198 84.3102 41.3575 84.1889C41.3777 84.1243 41.4034 84.0702 41.4346 84.0268C42.2301 84.3189 42.6925 84.485 42.8218 84.5253C42.838 84.5303 43.317 84.6574 44.2588 84.9064C44.2867 84.9594 44.288 85.0263 44.2628 85.1071C44.2276 85.2202 44.1898 85.2705 44.1494 85.2579C44.0362 85.2226 43.863 85.1953 43.6297 85.1758C43.3859 85.1619 43.2162 85.18 43.1209 85.2301C42.9463 85.3353 42.7641 85.6641 42.5743 86.2167C42.2964 87.052 42.0223 87.8753 41.7519 88.6864C41.4735 89.495 41.2545 90.1271 41.0949 90.5827C40.9327 91.0463 40.8315 91.3428 40.7913 91.4721C40.7283 91.6741 40.6942 91.8407 40.6887 91.972C40.6929 92.0442 40.8126 92.1436 41.048 92.2701C41.2809 92.4046 41.4539 92.4895 41.567 92.5248C41.5994 92.5348 41.5979 92.5964 41.5627 92.7096C41.535 92.7985 41.5 92.854 41.4576 92.8763C41.3227 92.8254 41.1757 92.7708 41.0166 92.7124C40.8495 92.6514 40.6984 92.5955 40.5636 92.5447C40.4287 92.4938 40.2805 92.4432 40.1189 92.3929Z" fill="white"/>
<path d="M24.014 80.9722C24.3556 81.2498 24.7384 81.3155 25.1625 81.1693C25.5747 81.0244 25.8582 80.8567 26.013 80.6662C26.0503 80.6203 26.0493 80.5813 26.0099 80.5492L24.0886 78.9881C24.0558 78.9614 24.0127 78.9809 23.9593 79.0466C23.7885 79.2568 23.6824 79.5686 23.6409 79.982C23.5941 80.402 23.7184 80.7321 24.014 80.9722ZM23.6193 81.2567C23.3171 81.0112 23.0991 80.7359 22.9653 80.4309C22.8262 80.1324 22.7722 79.8432 22.8034 79.5632C22.8227 79.2844 22.8835 79.0285 22.9857 78.7953C23.076 78.5633 23.1959 78.3554 23.3454 78.1715C23.4521 78.0401 23.5385 77.974 23.6046 77.9732C23.6654 77.979 23.7516 78.0272 23.8633 78.1179L26.3461 80.1354C26.3987 80.1781 26.4383 80.1831 26.465 80.1502C26.8012 79.7364 26.986 79.254 27.0193 78.7031C27.0526 78.1521 26.8327 77.6845 26.3598 77.3002C26.2219 77.1881 26.0798 77.0945 25.9337 77.0194C25.7875 76.9443 25.6584 76.8884 25.5463 76.8519C25.4223 76.8166 25.3174 76.7913 25.2316 76.7761C25.1339 76.7622 25.0487 76.7529 24.9761 76.7484L24.8671 76.7416C24.8277 76.7096 24.8427 76.6509 24.912 76.5655C24.9547 76.513 25.0225 76.4699 25.1153 76.4362C25.3961 76.359 25.726 76.349 26.1049 76.4061C26.4785 76.4697 26.8163 76.6243 27.1185 76.8698C27.6637 77.3128 27.9679 77.898 28.0311 78.6255C28.0824 79.3542 27.8678 80.0142 27.3875 80.6053C26.827 81.295 26.2001 81.6908 25.5067 81.7925C24.8068 81.889 24.1776 81.7104 23.6193 81.2567Z" fill="white"/>
<path d="M14.748 71.292C14.4254 70.7951 14.377 70.3321 14.6028 69.9028C14.8287 69.4736 15.3391 69.0009 16.1341 68.4846L17.103 67.8554C17.5147 67.5881 17.8121 67.3546 17.9953 67.1549C18.0358 67.1084 18.0255 66.9839 17.9646 66.7812C17.8965 66.5832 17.8395 66.4487 17.7934 66.3778C17.7795 66.3565 17.8129 66.3146 17.8935 66.2522C17.9741 66.1898 18.0367 66.1542 18.0814 66.1453C18.5069 66.8782 18.7357 67.2694 18.768 67.3191C18.7772 67.3333 19.037 67.6945 19.5472 68.4025C19.5373 68.4494 19.4897 68.5004 19.4045 68.5557C19.3122 68.6157 19.2569 68.6314 19.2384 68.603C19.1831 68.5179 19.0858 68.4146 18.9464 68.2932C18.7953 68.1693 18.6903 68.1164 18.6314 68.1344C18.3933 68.2184 18.1287 68.3549 17.8377 68.5439L16.773 69.2353C16.1128 69.664 15.7174 70.0419 15.5867 70.3689C15.456 70.696 15.5151 71.0512 15.764 71.4345C15.9115 71.6617 16.1396 71.8264 16.4482 71.9287C16.7451 72.0285 16.961 72.0347 17.0959 71.9471L18.9698 70.7302C19.3815 70.4628 19.6789 70.2293 19.8621 70.0296C19.9026 69.9832 19.8923 69.8586 19.8314 69.656C19.7634 69.458 19.7063 69.3235 19.6602 69.2525C19.6464 69.2312 19.6798 69.1894 19.7603 69.127C19.8409 69.0646 19.9035 69.0289 19.9482 69.0201C20.3737 69.7529 20.6026 70.1442 20.6348 70.1939C20.6625 70.2365 20.9314 70.6118 21.4417 71.3199C21.4318 71.3667 21.3842 71.4178 21.299 71.4731C21.2067 71.533 21.1514 71.5488 21.1329 71.5204C21.0776 71.4352 20.9757 71.3248 20.8271 71.1892C20.6667 71.0511 20.5571 70.9911 20.4982 71.0092C20.2601 71.0932 19.9955 71.2297 19.7045 71.4187L17.6922 72.7254C17.4153 72.9052 17.256 73.0794 17.214 73.2479C17.1749 73.3742 17.1758 73.4998 17.2165 73.6247C17.2456 73.7471 17.2831 73.8438 17.3292 73.9148C17.3707 73.9787 17.3844 74.0152 17.3702 74.0244C17.1998 74.1351 17.0972 74.1714 17.0625 74.1334C16.4603 73.4548 16.05 73.0249 15.8315 72.8439C15.8269 72.8368 15.82 72.8261 15.8108 72.8119C15.7944 72.8023 15.7863 72.7975 15.7863 72.7975C15.7678 72.7691 15.7883 72.7306 15.8475 72.6821C15.8997 72.6381 15.9423 72.6104 15.9753 72.5991C16.1925 72.4984 16.3437 72.4204 16.4289 72.3651C16.4572 72.3467 16.4668 72.3304 16.4576 72.3162C16.453 72.3091 16.439 72.303 16.4156 72.2981C16.1392 72.2454 15.8366 72.1291 15.5078 71.9491C15.1672 71.7665 14.914 71.5475 14.748 71.292Z" fill="white"/>
<path d="M10.4255 57.3408L12.8857 56.713C13.2383 56.623 13.5426 56.5148 13.7986 56.3883C13.8518 56.3572 13.8854 56.3006 13.8994 56.2184C13.9134 56.1363 13.914 56.0531 13.9012 55.969C13.8885 55.8849 13.8717 55.8019 13.8508 55.7199L13.8348 55.606C13.8367 55.5793 13.8787 55.5555 13.9607 55.5346C13.9853 55.5283 14.0295 55.5301 14.0931 55.5401C14.1465 55.5439 14.1764 55.5582 14.1826 55.5828C14.2222 55.7037 14.2742 55.8389 14.3386 55.9884C14.4008 56.1298 14.4651 56.2619 14.5314 56.3847C14.5977 56.5076 14.6619 56.6222 14.724 56.7286C14.7861 56.8351 14.8378 56.918 14.8792 56.9773L14.932 57.0817C14.9488 57.1473 14.8915 57.1969 14.7603 57.2303L14.133 57.3904L14.0777 57.4307C14.7981 57.8234 15.2263 58.2863 15.3623 58.8193C15.4398 59.1227 15.4329 59.404 15.3418 59.6631C15.2404 59.9161 15.0803 60.1273 14.8615 60.2966C14.6324 60.4599 14.4082 60.5914 14.1891 60.691C13.9617 60.7927 13.7209 60.8759 13.4667 60.9408L11.9168 61.3363C11.5969 61.418 11.3902 61.5319 11.2965 61.6781C11.219 61.7852 11.1795 61.9044 11.1781 62.0358C11.1664 62.1611 11.171 62.2647 11.1919 62.3467C11.2108 62.4206 11.212 62.4595 11.1956 62.4637C10.9988 62.514 10.89 62.5155 10.8692 62.4684C10.5162 61.6326 10.2652 61.094 10.1162 60.8525C10.1141 60.8443 10.111 60.832 10.1068 60.8156C10.0944 60.8013 10.0882 60.7941 10.0882 60.7941C10.0798 60.7613 10.1115 60.7314 10.1832 60.7043C10.2467 60.6794 10.2959 60.6668 10.3308 60.6667C10.737 60.6154 11.0467 60.5626 11.26 60.5082L12.9206 60.0844C13.5521 59.9233 13.9954 59.7097 14.2507 59.4436C14.4978 59.1797 14.567 58.8345 14.4581 58.408C14.3954 58.162 14.2414 57.9524 13.9963 57.7791C13.743 57.6079 13.5466 57.5401 13.4072 57.5756L11.1069 58.1627C10.7871 58.2443 10.5803 58.3582 10.4866 58.5044C10.4091 58.6115 10.3696 58.7308 10.3682 58.8621C10.3565 58.9874 10.3611 59.0911 10.3821 59.1731C10.4009 59.2469 10.4021 59.2859 10.3857 59.2901C10.1889 59.3403 10.0801 59.3418 10.0593 59.2947C9.70631 58.4589 9.4553 57.9203 9.30633 57.6788C9.30423 57.6706 9.30109 57.6583 9.29691 57.6419C9.28452 57.6276 9.27833 57.6204 9.27833 57.6204C9.26996 57.5876 9.30163 57.5577 9.37334 57.5307C9.43686 57.5057 9.48606 57.4932 9.52096 57.493C9.92715 57.4417 10.2287 57.391 10.4255 57.3408Z" fill="white"/>
<path d="M12.2339 41.1553C11.8175 41.0416 11.6226 40.9358 11.6494 40.8378L11.6527 40.8256L12.3114 37.8338L12.3147 37.8216C12.3281 37.7726 12.3715 37.7581 12.445 37.7782C12.6246 37.8272 12.7671 37.8837 12.8725 37.9475C12.972 38.001 13.0306 38.0433 13.0484 38.0745L13.0629 38.1179L12.392 41.1063C12.3898 41.1145 12.3875 41.1226 12.3853 41.1308C12.3831 41.1389 12.3675 41.1479 12.3385 41.1575C12.3096 41.1671 12.2747 41.1664 12.2339 41.1553Z" fill="white"/>
<path d="M17.6587 19.154C17.8942 18.9475 18.1729 18.6749 18.4949 18.3361C18.6678 18.4434 20.6958 19.4846 24.5789 21.4597C24.5965 21.4668 24.6148 21.462 24.6339 21.4453C24.6593 21.423 24.6641 21.3963 24.6481 21.3653C23.9879 19.355 23.4265 17.7139 22.9638 16.4422C22.9638 16.4422 22.7562 15.9489 22.3409 14.9621C22.7704 14.6304 23.0456 14.4115 23.1665 14.3054C23.561 13.9594 23.9061 13.6341 24.2019 13.3296C24.2712 13.3701 24.3226 13.4094 24.3561 13.4476C24.4343 13.5367 24.4574 13.5952 24.4256 13.6231L24.4065 13.6398C24.3365 13.7012 24.2638 13.8044 24.1884 13.9494C24.1073 14.088 24.0577 14.2048 24.0395 14.2995C24.0134 14.4238 24.1622 14.6704 24.4859 15.0394C24.5752 15.1412 25.7369 16.4076 27.9709 18.8387C28.2954 19.1958 28.5999 19.4466 28.8843 19.5911C28.96 19.6261 29.1001 19.5932 29.3046 19.4927C29.5035 19.3857 29.6379 19.3016 29.7079 19.2402C29.7334 19.2178 29.7851 19.2512 29.8633 19.3403C29.9135 19.3975 29.949 19.4508 29.9698 19.5002C29.3056 20.0265 28.9131 20.3427 28.7922 20.4487C28.7604 20.4766 28.3926 20.8274 27.6889 21.5011C27.6411 21.498 27.5837 21.4583 27.5168 21.3819C27.4442 21.2992 27.4206 21.2467 27.4461 21.2244C27.5097 21.1685 27.5912 21.0689 27.6905 20.9255C27.7962 20.7764 27.8638 20.6609 27.8931 20.5789C27.9304 20.4674 27.8486 20.2971 27.6476 20.068L27.2039 19.5622L24.1424 16.3034C24.0467 16.2072 23.9244 16.1062 23.7754 16.0005C23.6271 15.8829 23.5371 15.838 23.5053 15.8659C23.4926 15.8771 23.4962 15.9133 23.5162 15.9746L25.7077 22.4961C25.8268 22.8757 25.8291 23.1158 25.7146 23.2162C25.6955 23.233 25.6613 23.2517 25.6119 23.2725L18.5539 19.6354C19.077 20.2573 19.6718 20.9739 20.3385 21.7852C21.0051 22.5964 21.555 23.2681 21.988 23.8002C22.4154 24.3259 22.6347 24.5952 22.6459 24.6079C22.7463 24.7224 22.838 24.7884 22.9208 24.8058C23.0036 24.8232 23.1628 24.7736 23.3983 24.6571C23.6346 24.5286 23.7846 24.4365 23.8482 24.3806C23.8736 24.3583 23.9282 24.3949 24.012 24.4903C24.0566 24.5412 24.0893 24.5913 24.1101 24.6407C23.4459 25.167 23.063 25.4748 22.9612 25.5641C22.9484 25.5753 22.5902 25.9177 21.8864 26.5914C21.8267 26.5875 21.769 26.5537 21.7131 26.4901C21.635 26.401 21.6118 26.3425 21.6436 26.3146C21.7327 26.2365 21.8464 26.103 21.9847 25.9141C22.1238 25.7133 22.1968 25.5591 22.2039 25.4516C22.2052 25.2478 22.0197 24.9208 21.6473 24.4706C21.0795 23.7978 20.5201 23.1345 19.9691 22.4807C19.4245 21.8214 18.9995 21.3048 18.6941 20.931C18.3831 20.5508 18.1829 20.3098 18.0936 20.208C17.9541 20.049 17.8297 19.9329 17.7206 19.8598C17.6568 19.8256 17.5096 19.876 17.2789 20.0108C17.0426 20.1393 16.8799 20.2426 16.7908 20.3208C16.7654 20.3431 16.7136 20.3097 16.6354 20.2207C16.574 20.1507 16.5449 20.0918 16.548 20.044C16.6618 19.9555 16.785 19.8586 16.9179 19.7533C17.0571 19.6425 17.1835 19.5428 17.2973 19.4543C17.411 19.3658 17.5315 19.2657 17.6587 19.154Z" fill="white"/>
<path d="M35.8034 11.3713C35.3884 11.518 35.1326 11.8103 35.0361 12.2484C34.9447 12.6756 34.9399 13.0049 35.0217 13.2364C35.0414 13.2922 35.0752 13.3117 35.1231 13.2948L37.4573 12.47C37.4972 12.4559 37.503 12.4089 37.4748 12.3291C37.3846 12.0738 37.1739 11.8206 36.8428 11.5695C36.5089 11.3105 36.1625 11.2444 35.8034 11.3713ZM35.7666 10.8861C36.1336 10.7564 36.4822 10.714 36.8123 10.759C37.1395 10.7959 37.4144 10.9008 37.637 11.0734C37.8648 11.2353 38.0514 11.4207 38.1971 11.6296C38.3478 11.8276 38.4627 12.0384 38.5417 12.2618C38.5981 12.4214 38.6094 12.5296 38.5756 12.5864C38.539 12.6353 38.4529 12.6837 38.3172 12.7316L35.3008 13.7975C35.2369 13.8201 35.2121 13.8513 35.2262 13.8912C35.4038 14.3939 35.719 14.8032 36.1717 15.119C36.6244 15.4348 37.138 15.4911 37.7126 15.2881C37.8801 15.2289 38.0341 15.1565 38.1744 15.071C38.3148 14.9855 38.4298 14.9045 38.5194 14.8279C38.6142 14.7406 38.6905 14.6643 38.7482 14.599C38.8111 14.5229 38.8634 14.4551 38.9051 14.3954L38.9678 14.306C39.0157 14.289 39.0579 14.3325 39.0946 14.4362C39.1171 14.5 39.1186 14.5803 39.0989 14.677C39.0183 14.9569 38.8548 15.2435 38.6084 15.5371C38.3592 15.8226 38.0511 16.0302 37.684 16.1599C37.0217 16.394 36.3637 16.3482 35.7101 16.0227C35.0616 15.6863 34.6105 15.159 34.3567 14.4408C34.0606 13.6029 34.05 12.8616 34.3248 12.2169C34.6077 11.5694 35.0883 11.1258 35.7666 10.8861Z" fill="white"/>
<path d="M48.8958 8.51546C49.488 8.49936 49.9083 8.69961 50.1567 9.11619C50.4051 9.53277 50.5422 10.2148 50.5679 11.1624L50.5993 12.3173C50.6126 12.808 50.6567 13.1835 50.7315 13.444C50.7501 13.5027 50.8616 13.559 51.0663 13.6127C51.2707 13.6579 51.4153 13.6794 51.4999 13.6771C51.5252 13.6764 51.5435 13.7267 51.5548 13.828C51.566 13.9293 51.5637 14.0013 51.5479 14.0441C50.7007 14.0248 50.2475 14.0159 50.1883 14.0175C50.1714 14.018 49.7278 14.0512 48.8575 14.1172C48.8228 14.0843 48.804 14.0171 48.8012 13.9155C48.7983 13.8055 48.8137 13.7501 48.8475 13.7492C48.949 13.7464 49.088 13.7172 49.2642 13.6616C49.4488 13.5974 49.5487 13.5354 49.564 13.4757C49.6165 13.2287 49.6381 12.9318 49.6287 12.5849L49.5942 11.3159C49.5728 10.5291 49.4567 9.99458 49.2458 9.71245C49.0349 9.43031 48.7011 9.29545 48.2442 9.30787C47.9735 9.31523 47.714 9.42388 47.4657 9.63383C47.2256 9.83509 47.1078 10.0161 47.1121 10.1768L47.1728 12.4104C47.1862 12.9011 47.2302 13.2767 47.3051 13.5371C47.3236 13.5959 47.4352 13.6521 47.6398 13.7058C47.8443 13.751 47.9888 13.7725 48.0734 13.7702C48.0988 13.7695 48.1171 13.8198 48.1283 13.9211C48.1395 14.0224 48.1372 14.0944 48.1215 14.1372C47.2743 14.1179 46.8211 14.1091 46.7618 14.1107C46.7111 14.112 46.2506 14.1457 45.3803 14.2117C45.3455 14.1788 45.3268 14.1116 45.324 14.01C45.321 13.9001 45.3364 13.8446 45.3703 13.8437C45.4718 13.8409 45.6192 13.8115 45.8124 13.7555C46.0138 13.6907 46.1222 13.6285 46.1375 13.5688C46.1901 13.3219 46.2116 13.025 46.2022 12.6781L46.137 10.2795C46.128 9.94959 46.0626 9.72277 45.9407 9.59908C45.8534 9.49985 45.7458 9.43505 45.6179 9.40465C45.4983 9.36557 45.3962 9.34718 45.3116 9.34948C45.2355 9.35155 45.1972 9.34412 45.1967 9.3272C45.1912 9.12415 45.2137 9.01771 45.2642 9.00787C46.1574 8.84812 46.7382 8.72227 47.0066 8.63031C47.015 8.63008 47.0277 8.62973 47.0447 8.62927C47.0613 8.62035 47.0697 8.61589 47.0697 8.61589C47.1035 8.61497 47.1257 8.65247 47.1363 8.72838C47.1466 8.79584 47.1479 8.8466 47.1404 8.88067C47.113 9.11848 47.1007 9.28815 47.1034 9.38968C47.1043 9.42352 47.1133 9.44021 47.1302 9.43975C47.1386 9.43952 47.1511 9.43071 47.1676 9.41333C47.3566 9.20499 47.6137 9.00751 47.9389 8.82087C48.2722 8.62554 48.5912 8.52374 48.8958 8.51546Z" fill="white"/>
<path d="M63.0533 12.105L62.3056 14.5315C62.1984 14.8793 62.132 15.1954 62.1064 15.4797C62.1051 15.5413 62.1359 15.5995 62.1987 15.6543C62.2615 15.7091 62.3321 15.753 62.4105 15.786C62.4889 15.819 62.5685 15.848 62.6494 15.8729L62.7549 15.9187C62.7767 15.9343 62.7751 15.9825 62.7502 16.0634C62.7427 16.0876 62.7181 16.1243 62.6764 16.1735C62.6452 16.217 62.6175 16.2351 62.5933 16.2276C62.4695 16.1983 62.327 16.1721 62.1658 16.149C62.0128 16.1284 61.8665 16.1143 61.7272 16.1068C61.5878 16.0993 61.4565 16.0943 61.3333 16.0917C61.2101 16.0892 61.1124 16.0901 61.0402 16.0944L60.9235 16.085C60.8588 16.0651 60.8464 15.9904 60.8863 15.861L61.0769 15.2422L61.0714 15.1741C60.3606 15.5839 59.7423 15.7077 59.2166 15.5457C58.9173 15.4535 58.6809 15.301 58.5074 15.0881C58.3445 14.8696 58.2478 14.6229 58.2174 14.3478C58.1977 14.0672 58.2024 13.8074 58.2318 13.5684C58.2636 13.3214 58.3182 13.0725 58.3954 12.8218L58.8665 11.2931C58.9637 10.9777 58.9744 10.7419 58.8985 10.5856C58.8475 10.4637 58.7664 10.3678 58.655 10.2981C58.5542 10.2227 58.4634 10.1726 58.3825 10.1477C58.3097 10.1252 58.2758 10.1059 58.2808 10.0898C58.3406 9.89565 58.396 9.80202 58.4471 9.80889C59.3443 9.94366 59.9348 10.0105 60.2185 10.0094C60.2266 10.0119 60.2388 10.0156 60.2549 10.0206C60.2736 10.0175 60.2829 10.0159 60.2829 10.0159C60.3153 10.0259 60.3243 10.0685 60.31 10.1438C60.2981 10.211 60.2831 10.2595 60.2651 10.2894C60.0969 10.6627 59.9804 10.9545 59.9156 11.1648L59.4109 12.8026C59.219 13.4254 59.17 13.9151 59.2638 14.2717C59.3601 14.6202 59.6185 14.8593 60.0391 14.9889C60.2818 15.0636 60.541 15.0416 60.8167 14.9229C61.0949 14.7961 61.2551 14.6639 61.2975 14.5264L61.9966 12.2577C62.0938 11.9422 62.1045 11.7064 62.0287 11.5502C61.9777 11.4282 61.8965 11.3323 61.7852 11.2626C61.6844 11.1873 61.5936 11.1371 61.5127 11.1122C61.4399 11.0898 61.406 11.0705 61.411 11.0543C61.4708 10.8602 61.5262 10.7666 61.5772 10.7734C62.4745 10.9082 63.0649 10.975 63.3487 10.9739C63.3568 10.9764 63.3689 10.9801 63.3851 10.9851C63.4038 10.982 63.4131 10.9805 63.4131 10.9805C63.4454 10.9904 63.4544 11.0331 63.4401 11.1083C63.4283 11.1755 63.4133 11.2241 63.3952 11.2539C63.2271 11.6272 63.1131 11.9109 63.0533 12.105Z" fill="white"/>
<path d="M75.9189 22.0909C76.2331 21.7949 76.425 21.6839 76.4946 21.7578L76.5033 21.767L78.7122 23.8895L78.7209 23.8988C78.7557 23.9358 78.7454 23.9803 78.69 24.0326C78.5544 24.1603 78.4319 24.2524 78.3225 24.309C78.225 24.366 78.1583 24.3939 78.1224 24.3929L78.0778 24.3825L75.8782 22.2513C75.8724 22.2452 75.8666 22.239 75.8608 22.2328C75.855 22.2267 75.8555 22.2087 75.8624 22.179C75.8692 22.1493 75.8881 22.1199 75.9189 22.0909Z" fill="white"/>
<path d="M91.8598 38.1959C91.9132 38.5044 92.0004 38.8844 92.1214 39.3359C91.9397 39.4275 89.9935 40.6146 86.2828 42.8972C86.2676 42.9085 86.2621 42.9266 86.2665 42.9516C86.2722 42.985 86.2925 43.0029 86.3273 43.0055C88.3868 43.4909 90.0798 43.8679 91.4061 44.1366C91.4061 44.1366 91.9353 44.2168 92.9938 44.3772C93.0528 44.9167 93.096 45.2657 93.1234 45.4241C93.2129 45.9412 93.3104 46.4053 93.4159 46.8165C93.3451 46.8545 93.2848 46.8779 93.2347 46.8865C93.118 46.9067 93.056 46.896 93.0488 46.8543L93.0444 46.8293C93.0286 46.7375 92.9784 46.6217 92.8941 46.4817C92.8181 46.3402 92.7444 46.237 92.673 46.172C92.5807 46.0849 92.2926 46.0833 91.8089 46.167C91.6755 46.19 89.989 46.5205 86.7496 47.1584C86.2757 47.249 85.9029 47.3779 85.6312 47.5451C85.5619 47.5915 85.5168 47.7281 85.496 47.9551C85.4835 48.1805 85.4851 48.3392 85.501 48.4309C85.5068 48.4643 85.4513 48.491 85.3345 48.5112C85.2595 48.5242 85.1955 48.5267 85.1426 48.5187C85.04 47.6775 84.9749 47.1777 84.9475 47.0192C84.9403 46.9775 84.8329 46.4808 84.6252 45.5289C84.6528 45.4898 84.7166 45.4616 84.8167 45.4443C84.9251 45.4255 84.9822 45.4328 84.988 45.4662C85.0024 45.5496 85.0449 45.671 85.1155 45.8306C85.1875 45.9985 85.2508 46.1164 85.3055 46.1843C85.3812 46.2742 85.5692 46.2932 85.8694 46.2413L86.5324 46.1266L90.9097 45.2145C91.0417 45.1831 91.1917 45.1314 91.3596 45.0594C91.5373 44.9943 91.6225 44.9409 91.6153 44.8992C91.6124 44.8825 91.5796 44.8667 91.5169 44.8518L84.8098 43.3196C84.4238 43.2232 84.2178 43.0999 84.1918 42.9498C84.1875 42.9248 84.1893 42.8858 84.1974 42.8329L90.9822 38.7085C90.1787 38.8303 89.257 38.964 88.2171 39.1096C87.1772 39.2552 86.3174 39.3739 85.6375 39.4658C84.966 39.5562 84.6219 39.6029 84.6053 39.6058C84.4551 39.6317 84.3511 39.6755 84.293 39.7371C84.2349 39.7987 84.1942 39.9603 84.1708 40.2221C84.1571 40.4907 84.1575 40.6667 84.1719 40.7501C84.1777 40.7835 84.1181 40.811 83.993 40.8326C83.9263 40.8442 83.8664 40.8459 83.8135 40.8379C83.7109 39.9967 83.6481 39.5094 83.625 39.376C83.6221 39.3593 83.5168 38.875 83.3092 37.9232C83.3436 37.8743 83.4026 37.8426 83.486 37.8282C83.6027 37.808 83.6647 37.8187 83.6719 37.8604C83.6921 37.9772 83.7467 38.1438 83.8357 38.3603C83.9345 38.5837 84.0279 38.7265 84.116 38.7885C84.2892 38.896 84.6649 38.9083 85.2433 38.8254C86.1135 38.692 86.9712 38.5608 87.8163 38.4317C88.663 38.311 89.3254 38.2178 89.8037 38.1522C90.2902 38.0852 90.6002 38.0402 90.7337 38.0171C90.9422 37.981 91.1061 37.9355 91.2254 37.8805C91.2878 37.8439 91.3216 37.692 91.3269 37.4248C91.3406 37.1562 91.3373 36.9635 91.3171 36.8468C91.3113 36.8134 91.3668 36.7866 91.4836 36.7664C91.5753 36.7505 91.6407 36.7564 91.6799 36.784C91.6961 36.9272 91.7144 37.0829 91.7349 37.2512C91.7569 37.4277 91.776 37.5876 91.7922 37.7308C91.8084 37.8741 91.8309 38.0291 91.8598 38.1959Z" fill="white"/>
<path d="M89.0348 57.736C89.1262 57.3055 89.0102 56.9348 88.6868 56.6239C88.37 56.3231 88.0915 56.1472 87.8514 56.0963C87.7934 56.084 87.7592 56.1027 87.7487 56.1523L87.2348 58.574C87.226 58.6154 87.263 58.6449 87.3458 58.6624C87.6107 58.7187 87.9366 58.671 88.3235 58.5195C88.7187 58.3698 88.9558 58.1086 89.0348 57.736ZM89.468 57.9577C89.3872 58.3386 89.2415 58.6581 89.031 58.9162C88.8288 59.1761 88.5959 59.356 88.3325 59.4558C88.0756 59.5657 87.82 59.6283 87.5659 59.6436C87.3182 59.6689 87.0785 59.6569 86.8467 59.6078C86.6811 59.5726 86.5829 59.5258 86.552 59.4674C86.5295 59.4107 86.5331 59.3119 86.563 59.1712L87.2271 56.0417C87.2411 55.9754 87.2274 55.9379 87.186 55.9291C86.6645 55.8184 86.1509 55.8739 85.6453 56.0954C85.1398 56.3169 84.8237 56.7257 84.6973 57.3218C84.6604 57.4956 84.6418 57.6647 84.6415 57.829C84.6413 57.9934 84.6504 58.1338 84.669 58.2502C84.694 58.3766 84.7194 58.4815 84.745 58.5648C84.7771 58.6581 84.8077 58.7382 84.8368 58.8049L84.8804 58.905C84.8699 58.9547 84.8108 58.9681 84.7032 58.9453C84.6369 58.9312 84.5677 58.8906 84.4954 58.8233C84.2988 58.6085 84.1395 58.3195 84.0176 57.9562C83.9039 57.5947 83.8875 57.2235 83.9683 56.8426C84.1142 56.1555 84.4964 55.618 85.1151 55.2301C85.7404 54.8523 86.4256 54.7425 87.1707 54.9006C88.04 55.0851 88.678 55.4627 89.0846 56.0335C89.4895 56.6126 89.6173 57.254 89.468 57.9577Z" fill="white"/>
<path d="M84.6419 70.3957C84.3467 70.9094 83.9566 71.1635 83.4716 71.1581C82.9867 71.1528 82.3332 70.9139 81.5114 70.4416L80.5097 69.866C80.0841 69.6214 79.7407 69.4631 79.4795 69.391C79.4197 69.3762 79.3135 69.4421 79.1609 69.5887C79.0157 69.7395 78.922 69.8516 78.8798 69.925C78.8671 69.947 78.8147 69.9364 78.7224 69.8931C78.6301 69.8498 78.5699 69.8103 78.5416 69.7745C79 69.0618 79.244 68.6798 79.2735 68.6284C79.2819 68.6137 79.485 68.2179 79.8826 67.441C79.9289 67.4285 79.996 67.4476 80.084 67.4982C80.1794 67.553 80.2187 67.5951 80.2018 67.6245C80.1512 67.7125 80.1037 67.8463 80.0591 68.0257C80.0177 68.2166 80.0185 68.3342 80.0614 68.3784C80.2447 68.5521 80.4868 68.7253 80.7876 68.8982L81.8884 69.5308C82.5708 69.923 83.0874 70.1027 83.4381 70.07C83.7888 70.0372 84.078 69.8227 84.3057 69.4265C84.4407 69.1917 84.4833 68.9136 84.4337 68.5922C84.3873 68.2824 84.2943 68.0875 84.1549 68.0073L82.2176 66.894C81.792 66.6494 81.4486 66.4911 81.1874 66.4191C81.1276 66.4043 81.0214 66.4701 80.8688 66.6167C80.7236 66.7676 80.6299 66.8797 80.5877 66.953C80.575 66.975 80.5226 66.9644 80.4303 66.9212C80.338 66.8779 80.2778 66.8384 80.2495 66.8026C80.7079 66.0899 80.9519 65.7078 80.9814 65.6565C81.0067 65.6124 81.2182 65.202 81.6158 64.4251C81.6621 64.4126 81.7292 64.4316 81.8173 64.4822C81.9127 64.5371 81.9519 64.5792 81.9351 64.6085C81.8844 64.6966 81.8327 64.8376 81.7797 65.0317C81.7299 65.2373 81.7264 65.3623 81.7693 65.4065C81.9526 65.5801 82.1947 65.7534 82.4956 65.9263L84.5759 67.1218C84.8621 67.2863 85.0897 67.3488 85.2589 67.3093C85.3891 67.2865 85.5005 67.2286 85.5931 67.1354C85.6888 67.0537 85.7578 66.9762 85.8 66.9028C85.8379 66.8368 85.8642 66.808 85.8789 66.8164C86.055 66.9176 86.1341 66.9923 86.1161 67.0406C85.7865 67.8859 85.5909 68.447 85.5294 68.724C85.5252 68.7314 85.5188 68.7424 85.5104 68.7571C85.5093 68.7759 85.5088 68.7854 85.5088 68.7854C85.4919 68.8147 85.4483 68.8141 85.3781 68.7835C85.3151 68.7571 85.2711 68.7318 85.246 68.7076C85.0574 68.5602 84.9191 68.4611 84.831 68.4105C84.8016 68.3937 84.7828 68.3926 84.7743 68.4073C84.7701 68.4146 84.7711 68.4298 84.7774 68.4529C84.8565 68.7229 84.8909 69.0453 84.8805 69.42C84.8732 69.8063 84.7937 70.1316 84.6419 70.3957Z" fill="white"/>
<path d="M74.1943 80.602L72.5142 78.6983C72.2734 78.4255 72.0383 78.204 71.8091 78.0338C71.7572 78.0005 71.6915 77.9964 71.612 78.0215C71.5325 78.0465 71.4582 78.0838 71.3891 78.1335C71.3201 78.1831 71.2538 78.236 71.1904 78.292L71.0963 78.3581C71.0717 78.3685 71.0313 78.342 70.9753 78.2786C70.9585 78.2595 70.9401 78.2194 70.9199 78.1582C70.899 78.1089 70.898 78.0759 70.9171 78.0591C71.0067 77.9687 71.1033 77.8608 71.2071 77.7354C71.3045 77.6155 71.3928 77.4981 71.4719 77.3831C71.551 77.2681 71.6238 77.1587 71.6903 77.055C71.7567 76.9512 71.8069 76.8673 71.8408 76.8035L71.9097 76.7089C71.9605 76.6641 72.0307 76.6924 72.1203 76.7939L72.5487 77.2794L72.6098 77.3102C72.6309 76.49 72.8477 75.8979 73.2602 75.5339C73.495 75.3267 73.7484 75.2045 74.0206 75.1676C74.292 75.1425 74.5529 75.1888 74.8034 75.3063C75.0532 75.4358 75.2723 75.5754 75.4609 75.7251C75.655 75.8811 75.8389 76.0575 76.0125 76.2542L77.071 77.4535C77.2894 77.701 77.4851 77.8331 77.6579 77.8499C77.7886 77.87 77.9127 77.8508 78.0303 77.7921C78.1471 77.7455 78.2373 77.6941 78.3007 77.6381C78.3578 77.5877 78.392 77.5688 78.4032 77.5815C78.5376 77.7338 78.5886 77.8299 78.5561 77.8699C77.9731 78.5651 77.6081 79.034 77.461 79.2767C77.4547 79.2823 77.4451 79.2907 77.4325 79.3019C77.4254 79.3194 77.4218 79.3282 77.4218 79.3282C77.3964 79.3506 77.3554 79.336 77.2986 79.2845C77.2475 79.2394 77.2139 79.2013 77.1978 79.1703C76.9671 78.8321 76.7789 78.5805 76.6333 78.4156L75.4992 77.1306C75.0679 76.642 74.6757 76.3447 74.3225 76.2387C73.975 76.1391 73.6362 76.2349 73.3062 76.5261C73.1159 76.6941 72.9994 76.9267 72.9569 77.2239C72.92 77.5274 72.9491 77.7331 73.0444 77.841L74.6153 79.6209C74.8337 79.8684 75.0294 80.0005 75.2022 80.0173C75.3329 80.0374 75.457 80.0182 75.5746 79.9595C75.6914 79.9129 75.7816 79.8615 75.845 79.8055C75.9021 79.7551 75.9363 79.7362 75.9475 79.7489C76.0819 79.9012 76.1329 79.9973 76.1004 80.0373C75.5174 80.7325 75.1523 81.2014 75.0053 81.4441C74.9989 81.4497 74.9894 81.4581 74.9767 81.4693C74.9696 81.4868 74.9661 81.4956 74.9661 81.4956C74.9407 81.518 74.8996 81.5034 74.8429 81.4519C74.7917 81.4068 74.7581 81.3687 74.7421 81.3377C74.5113 80.9995 74.3288 80.7543 74.1943 80.602Z" fill="white"/>
<path d="M58.9635 86.3696C59.0522 86.792 59.0468 87.0137 58.9474 87.0345L58.935 87.0371L55.9719 87.8145L55.9594 87.8171C55.9097 87.8275 55.8771 87.7954 55.8614 87.7209C55.8232 87.5387 55.8085 87.3861 55.8173 87.2632C55.8195 87.1503 55.8305 87.0788 55.8501 87.0487L55.8822 87.0161L58.8479 86.2511C58.8562 86.2494 58.8644 86.2477 58.8727 86.2459C58.881 86.2442 58.896 86.254 58.9178 86.2754C58.9396 86.2968 58.9548 86.3282 58.9635 86.3696Z" fill="white"/>
</svg>
