<svg width="127" height="127" viewBox="0 0 127 127" fill="none" xmlns="http://www.w3.org/2000/svg">
<path d="M55.7308 118.64C55.6084 119.28 55.2631 119.757 54.6948 120.07C54.1249 120.392 53.5157 120.491 52.8673 120.367C52.6844 120.332 52.5164 120.287 52.3632 120.232C52.2001 120.184 52.0711 120.137 51.9761 120.093C51.8728 120.048 51.7311 119.978 51.551 119.883C51.361 119.795 51.1944 119.72 51.0511 119.658C51.0356 119.199 51.0993 118.595 51.2423 117.846C51.2534 117.788 51.3005 117.767 51.3836 117.783C51.5832 117.821 51.6833 117.883 51.684 117.97C51.6557 118.343 51.7669 118.731 52.0177 119.132C52.2585 119.54 52.6034 119.787 53.0523 119.873C53.5511 119.968 53.9282 119.911 54.1837 119.701C54.4309 119.49 54.5894 119.201 54.6593 118.836C54.6895 118.678 54.6898 118.518 54.6602 118.357C54.629 118.205 54.5939 118.073 54.5548 117.963C54.514 117.86 54.4308 117.732 54.305 117.579C54.1709 117.424 54.0753 117.315 54.0183 117.253C53.9531 117.188 53.8292 117.07 53.6468 116.897C53.4561 116.723 53.3348 116.614 53.283 116.569C53.2462 116.536 53.1182 116.417 52.899 116.211C52.6782 116.014 52.5284 115.873 52.4497 115.789C52.3693 115.714 52.2495 115.575 52.09 115.372C51.9207 115.176 51.8064 115.007 51.7471 114.867C51.6795 114.725 51.6265 114.551 51.5883 114.345C51.5401 114.146 51.5351 113.947 51.5732 113.748C51.7003 113.083 52.067 112.584 52.6734 112.252C53.2698 111.927 53.9172 111.831 54.6155 111.964C54.815 112.002 55.0238 112.059 55.2419 112.135C55.4616 112.203 55.6438 112.264 55.7887 112.317C55.932 112.379 56.1153 112.457 56.3385 112.552C56.5518 112.653 56.7026 112.72 56.7909 112.755C56.8033 113.817 56.7809 114.498 56.7237 114.797C56.7142 114.847 56.6429 114.859 56.5099 114.833C56.3603 114.805 56.2635 114.748 56.2196 114.662C56.1657 113.411 55.5901 112.68 54.4928 112.47C54.0772 112.391 53.7 112.448 53.3614 112.642C53.0228 112.836 52.8098 113.161 52.7224 113.618C52.6906 113.785 52.6862 113.943 52.709 114.094C52.7319 114.245 52.7637 114.372 52.8044 114.474C52.8368 114.575 52.9142 114.689 53.0364 114.816C53.1488 114.949 53.2376 115.048 53.3029 115.112C53.3682 115.177 53.4902 115.282 53.6691 115.428C53.8479 115.574 53.9708 115.675 54.0377 115.731C54.2518 115.918 54.4031 116.051 54.4918 116.128C54.5721 116.204 54.711 116.334 54.9084 116.518C55.0959 116.709 55.2293 116.868 55.3084 116.995C55.3859 117.13 55.4761 117.29 55.5789 117.473C55.6801 117.665 55.7423 117.858 55.7656 118.052C55.7805 118.244 55.7689 118.44 55.7308 118.64Z" fill="white"/>
<path d="M39.4956 111.61L40.5426 109.297C40.6927 108.965 40.7984 108.66 40.8596 108.381C40.8686 108.32 40.8454 108.259 40.7899 108.196C40.7345 108.134 40.67 108.082 40.5964 108.039C40.5227 107.997 40.4474 107.958 40.3703 107.923L40.2714 107.864C40.2518 107.846 40.2594 107.798 40.2943 107.721C40.3048 107.698 40.3338 107.665 40.3814 107.621C40.4177 107.582 40.4475 107.568 40.4706 107.578C40.5897 107.623 40.7278 107.667 40.8848 107.71C41.034 107.75 41.1773 107.782 41.3147 107.807C41.452 107.832 41.5816 107.853 41.7035 107.871C41.8254 107.889 41.9224 107.901 41.9946 107.906L42.1092 107.93C42.1708 107.958 42.1738 108.033 42.1179 108.157L41.8509 108.746L41.8479 108.815C42.6046 108.498 43.2335 108.453 43.7347 108.679C44.02 108.809 44.2353 108.99 44.3806 109.223C44.5148 109.46 44.5796 109.717 44.5752 109.993C44.5595 110.274 44.5221 110.532 44.4629 110.765C44.4002 111.006 44.3148 111.246 44.2066 111.485L43.547 112.942C43.4109 113.243 43.3706 113.476 43.4262 113.64C43.4614 113.768 43.5299 113.873 43.6316 113.956C43.7221 114.043 43.8059 114.105 43.883 114.139C43.9524 114.171 43.9836 114.194 43.9766 114.21C43.8928 114.395 43.8261 114.481 43.7763 114.467C42.9032 114.221 42.3258 114.08 42.0442 114.046C42.0365 114.042 42.0249 114.037 42.0095 114.03C41.9906 114.031 41.9811 114.031 41.9811 114.031C41.9503 114.017 41.9467 113.974 41.9704 113.901C41.9906 113.836 42.0115 113.789 42.0332 113.762C42.247 113.413 42.3993 113.138 42.49 112.938L43.1968 111.376C43.4655 110.783 43.5758 110.303 43.5276 109.937C43.4759 109.579 43.2496 109.31 42.8486 109.128C42.6173 109.024 42.3574 109.013 42.069 109.096C41.777 109.187 41.6014 109.298 41.542 109.429L40.5631 111.592C40.4269 111.892 40.3867 112.125 40.4423 112.289C40.4775 112.417 40.546 112.522 40.6477 112.605C40.7382 112.693 40.822 112.754 40.8991 112.789C40.9684 112.82 40.9997 112.844 40.9927 112.859C40.9089 113.044 40.8422 113.13 40.7924 113.117C39.9193 112.87 39.3419 112.73 39.0602 112.695C39.0525 112.692 39.041 112.686 39.0255 112.679C39.0066 112.68 38.9972 112.68 38.9972 112.68C38.9663 112.666 38.9628 112.623 38.9865 112.55C39.0067 112.485 39.0276 112.439 39.0493 112.411C39.2631 112.062 39.4118 111.795 39.4956 111.61Z" fill="white"/>
<path d="M30.7447 109.507C30.7654 109.679 30.7232 109.837 30.6182 109.981C30.5133 110.124 30.378 110.209 30.2124 110.234C30.035 110.262 29.8746 110.223 29.7311 110.118C29.5877 110.013 29.5057 109.874 29.485 109.702C29.4525 109.531 29.4888 109.374 29.5937 109.231C29.6987 109.088 29.8399 109.002 30.0173 108.975C30.1829 108.949 30.3374 108.989 30.4809 109.094C30.6243 109.199 30.7122 109.336 30.7447 109.507ZM33.0685 104.569C33.3584 104.173 33.5535 103.849 33.6538 103.597C33.6751 103.539 33.6213 103.426 33.4924 103.259C33.3585 103.098 33.2573 102.992 33.189 102.942C33.1685 102.927 33.1849 102.876 33.238 102.789C33.2912 102.702 33.3371 102.647 33.3757 102.623C34.0337 103.157 34.3866 103.441 34.4345 103.476C34.4823 103.511 34.867 103.766 35.5887 104.242C35.596 104.289 35.5697 104.354 35.5097 104.436C35.4447 104.525 35.3986 104.559 35.3712 104.539C35.2893 104.479 35.1548 104.412 34.9677 104.338C34.7688 104.266 34.645 104.249 34.5963 104.287C34.4036 104.45 34.2047 104.671 33.9998 104.951L32.5828 106.888C32.3879 107.154 32.3007 107.373 32.3214 107.546C32.3297 107.678 32.3751 107.795 32.4576 107.897C32.5282 108.001 32.5977 108.078 32.666 108.128C32.7274 108.173 32.7532 108.203 32.7432 108.216C32.6232 108.38 32.5402 108.451 32.4943 108.428C31.6903 108.007 31.1541 107.751 30.8855 107.659L30.8575 107.655C30.8439 107.645 30.8336 107.637 30.8268 107.632C30.7995 107.612 30.8049 107.569 30.843 107.502C30.8762 107.443 30.9062 107.402 30.933 107.379C31.1671 107.131 31.3641 106.898 31.524 106.679L33.0685 104.569Z" fill="white"/>
<path d="M27.315 98.3362C27.3051 98.15 27.2229 97.9728 27.0684 97.8043C26.914 97.6359 26.7154 97.5195 26.4725 97.4551C26.2235 97.3964 26.0459 97.4157 25.9399 97.513L24.9762 98.3968C25.0469 98.4238 25.2021 98.5054 25.4419 98.6416C25.6816 98.7777 25.8779 98.879 26.0307 98.9456C26.1716 99.0115 26.3469 99.0461 26.5564 99.0491C26.754 99.0517 26.9245 98.9872 27.0679 98.8556C27.2363 98.7012 27.3187 98.528 27.315 98.3362ZM23.0279 100.649C22.7133 100.306 22.5715 99.9821 22.6026 99.6779C22.6275 99.3795 22.8239 99.0615 23.192 98.724L25.3533 96.7418C25.4842 96.6217 25.5619 96.4873 25.5863 96.3386C25.6107 96.1899 25.5686 96.0563 25.4599 95.9377C25.3798 95.8504 25.236 95.7813 25.0286 95.7304C25.0057 95.7055 25.0192 95.6701 25.0691 95.6243C25.1502 95.55 25.23 95.5055 25.3085 95.4909C25.7613 95.5464 26.0707 95.6646 26.2366 95.8455C26.3682 95.989 26.4348 96.1806 26.4364 96.4202C26.438 96.6599 26.3962 96.8648 26.311 97.0348C26.3167 97.041 26.3614 97.046 26.4451 97.0496C26.5169 97.0527 26.6123 97.0628 26.7314 97.0799C26.8442 97.1028 26.9716 97.1352 27.1135 97.1773C27.2497 97.2132 27.3938 97.2763 27.5456 97.3667C27.6917 97.4509 27.822 97.5554 27.9364 97.6801C28.1996 97.9671 28.3421 98.2727 28.364 98.5972C28.3797 98.9273 28.2347 99.2325 27.9291 99.5128C27.7918 99.6387 27.6325 99.7216 27.4511 99.7617C27.2634 99.8075 27.0892 99.818 26.9286 99.793C26.7617 99.7738 26.5633 99.7203 26.3335 99.6325C26.1037 99.5447 25.9186 99.4619 25.7782 99.3839C25.6258 99.3054 25.4326 99.2012 25.1986 99.0713C24.9646 98.9414 24.7977 98.8533 24.6979 98.8071C24.6277 98.7681 24.5552 98.7829 24.4803 98.8516L23.7786 99.4951C23.579 99.6782 23.4834 99.8807 23.4918 100.103C23.4939 100.33 23.5751 100.532 23.7352 100.706C23.9069 100.893 24.1154 100.989 24.3608 100.994C24.5999 101.004 24.8224 100.915 25.0283 100.726C25.2466 100.526 25.473 100.554 25.7075 100.81C25.8677 100.984 25.92 101.16 25.8644 101.337C25.5962 101.583 25.1509 101.63 24.5286 101.477C23.8999 101.33 23.3997 101.054 23.0279 100.649Z" fill="white"/>
<path d="M15.7308 89.0131C15.4952 89.1467 15.5277 89.4785 15.8283 90.0086C15.845 90.038 15.8091 90.0778 15.7208 90.1279C15.6251 90.1822 15.5541 90.2029 15.508 90.1902C15.4694 90.105 15.3949 89.9478 15.2844 89.7186C15.1739 89.4894 15.0685 89.2864 14.9683 89.1097L14.2869 88.0367C14.3227 87.9969 14.3738 87.9583 14.4401 87.9207C14.5431 87.8622 14.6093 87.8588 14.6385 87.9103C14.6969 88.0134 14.8036 88.1329 14.9585 88.2688C15.1134 88.4048 15.2739 88.4646 15.4398 88.4484L20.4001 87.9563C20.4599 87.9418 20.5402 87.9546 20.6408 87.9949C20.7415 88.0351 20.8064 88.081 20.8356 88.1325C20.8649 88.184 20.8689 88.2255 20.8478 88.2569C20.6464 88.5366 20.1698 89.1717 19.418 90.1623C18.662 91.1455 18.0609 91.9728 17.6146 92.6442C17.5091 92.8013 17.5586 93.0603 17.7632 93.421C17.7799 93.4505 17.7404 93.4923 17.6447 93.5466C17.5563 93.5967 17.4891 93.6154 17.4429 93.6026C17.0498 92.8234 16.8511 92.4302 16.8469 92.4228L16.1655 91.3498C16.1866 91.3183 16.2492 91.2828 16.3532 91.2433C16.4458 91.2006 16.4983 91.1902 16.5108 91.2123C16.7154 91.5731 16.8802 91.718 17.0054 91.647C17.0201 91.6387 17.0327 91.6266 17.0433 91.6109L19.2847 88.5887L16.1122 88.9136C15.9389 88.934 15.8118 88.9672 15.7308 89.0131Z" fill="white"/>
<path d="M15.7197 78.9993C15.7921 78.8276 15.7958 78.6322 15.7306 78.4132C15.6653 78.1942 15.5376 78.0026 15.3475 77.8385C15.1492 77.6768 14.9811 77.6164 14.8432 77.6575L13.59 78.0307C13.6417 78.0859 13.7456 78.2272 13.9016 78.4545C14.0576 78.6818 14.1898 78.8588 14.2982 78.9855C14.396 79.1065 14.5385 79.2142 14.7256 79.3086C14.9021 79.3973 15.0837 79.4139 15.2702 79.3583C15.4892 79.2931 15.639 79.1734 15.7197 78.9993ZM10.8528 79.2035C10.72 78.7574 10.7341 78.4043 10.8951 78.1444C11.048 77.887 11.3638 77.687 11.8424 77.5444L14.653 76.7074C14.8233 76.6567 14.952 76.5698 15.039 76.4468C15.126 76.3237 15.1465 76.1851 15.1006 76.031C15.0668 75.9175 14.9677 75.7924 14.8035 75.6559C14.7938 75.6234 14.8214 75.5976 14.8863 75.5782C14.9918 75.5468 15.083 75.5417 15.1599 75.563C15.5429 75.811 15.7694 76.0526 15.8394 76.2879C15.895 76.4744 15.8711 76.6758 15.7677 76.8921C15.6643 77.1083 15.5371 77.2742 15.3861 77.3899C15.3885 77.398 15.4265 77.422 15.5002 77.4618C15.5634 77.496 15.6448 77.5468 15.7443 77.6143C15.8358 77.6842 15.9361 77.7691 16.0454 77.8691C16.1522 77.9609 16.2541 78.0807 16.3511 78.2284C16.4457 78.368 16.5171 78.519 16.5654 78.6812C16.6765 79.0543 16.671 79.3915 16.5488 79.6929C16.4185 79.9966 16.1546 80.2076 15.7571 80.326C15.5787 80.3792 15.3991 80.3841 15.2184 80.3407C15.0296 80.2998 14.8684 80.233 14.7348 80.1403C14.5931 80.0501 14.4382 79.9152 14.2699 79.7357C14.1017 79.5562 13.9715 79.4007 13.8793 79.2692C13.7766 79.132 13.6485 78.9538 13.4949 78.7346C13.3413 78.5154 13.2298 78.3632 13.1602 78.2779C13.1142 78.2121 13.0424 78.1938 12.9451 78.2227L12.0326 78.4945C11.773 78.5718 11.5984 78.7121 11.5088 78.9154C11.4111 79.1211 11.3961 79.3375 11.4638 79.5646C11.5362 79.808 11.6818 79.9854 11.9004 80.0969C12.111 80.2108 12.3501 80.2279 12.6178 80.1482C12.9017 80.0637 13.0931 80.1877 13.1922 80.5203C13.2598 80.7474 13.2299 80.9285 13.1023 81.0636C12.7535 81.1675 12.3327 81.0146 11.8398 80.6051C11.3388 80.1979 11.0099 79.7307 10.8528 79.2035Z" fill="white"/>
<path d="M8.60619 66.3729C8.56885 65.7817 8.75389 65.3544 9.16129 65.0913C9.56869 64.8281 10.2454 64.6666 11.1914 64.6069L12.3444 64.5341C12.8343 64.5032 13.2081 64.4456 13.4657 64.3615C13.5237 64.3409 13.5759 64.2274 13.6222 64.0209C13.6601 63.815 13.6764 63.6698 13.6711 63.5853C13.6695 63.56 13.7191 63.5399 13.8199 63.525C13.9207 63.5102 13.9928 63.5099 14.0361 63.5241C14.0472 64.3714 14.0546 64.8247 14.0583 64.8838C14.0594 64.9007 14.1085 65.3428 14.2057 66.2102C14.174 66.2461 14.1075 66.2672 14.0062 66.2736C13.8964 66.2806 13.8404 66.2672 13.8383 66.2334C13.8319 66.132 13.7977 65.9942 13.7358 65.8201C13.665 65.638 13.5995 65.5403 13.5393 65.5272C13.2906 65.4835 12.9931 65.4726 12.6468 65.4945L11.3797 65.5745C10.5942 65.6241 10.0642 65.7593 9.78985 65.9802C9.51546 66.201 9.39267 66.5395 9.42147 66.9956C9.43854 67.2659 9.55643 67.5214 9.77515 67.762C9.9849 67.9947 10.17 68.106 10.3305 68.0958L12.5604 67.955C13.0503 67.9241 13.4241 67.8666 13.6817 67.7824C13.7397 67.7618 13.7919 67.6483 13.8382 67.4418C13.8761 67.2359 13.8924 67.0907 13.8871 67.0062C13.8855 66.9809 13.9351 66.9608 14.0359 66.946C14.1367 66.9311 14.2088 66.9308 14.2521 66.945C14.2632 67.7924 14.2706 68.2456 14.2744 68.3047C14.2776 68.3554 14.3277 68.8144 14.4249 69.6818C14.3933 69.7177 14.3268 69.7388 14.2254 69.7452C14.1156 69.7522 14.0596 69.7388 14.0575 69.705C14.0511 69.6036 14.0164 69.4574 13.9535 69.2663C13.8815 69.0673 13.8155 68.9613 13.7553 68.9481C13.5066 68.9044 13.2091 68.8935 12.8628 68.9154L10.4681 69.0666C10.1387 69.0874 9.91437 69.1609 9.79514 69.2872C9.69911 69.3781 9.63821 69.4879 9.61242 69.6168C9.57765 69.7377 9.56294 69.8404 9.56827 69.9248C9.57307 70.0009 9.56703 70.0394 9.55013 70.0405C9.34741 70.0533 9.24023 70.0346 9.22858 69.9844C9.03689 69.0976 8.89028 68.5217 8.78875 68.2568C8.78822 68.2483 8.78742 68.2357 8.78635 68.2188C8.77684 68.2024 8.77208 68.1942 8.77208 68.1942C8.76995 68.1604 8.80662 68.1369 8.88211 68.1237C8.94915 68.111 8.99983 68.1078 9.03415 68.1141C9.27279 68.1329 9.44279 68.1392 9.54415 68.1328C9.57794 68.1306 9.5943 68.1211 9.59323 68.1042C9.5927 68.0958 9.58345 68.0836 9.56549 68.0678C9.3505 67.8863 9.14392 67.6365 8.94574 67.3183C8.73857 66.9921 8.62539 66.677 8.60619 66.3729Z" fill="white"/>
<path d="M9.76315 56.7196L9.65775 57.4484C9.65169 57.4903 9.56071 57.4985 9.38481 57.4731C9.33455 57.4658 9.30584 57.4574 9.29867 57.4478C9.22491 57.1891 9.0411 56.8931 8.74723 56.5599C8.65167 56.452 8.54293 56.3465 8.42102 56.2433C8.29195 56.1306 8.18139 56.0376 8.08936 55.9645C7.99732 55.8913 7.94711 55.8541 7.93874 55.8529C7.97508 55.6016 8.01419 55.479 8.05608 55.4851L9.29997 55.665C9.33147 55.4472 9.38351 55.1169 9.45609 54.6742C9.5203 54.2302 9.55422 53.9957 9.55785 53.9705C9.56755 53.9035 9.61009 53.8755 9.68547 53.8864C9.83625 53.9082 9.98934 53.9731 10.1448 54.0811L9.90307 55.7522L12.9814 56.1974C13.3165 56.2458 13.5966 56.2008 13.8219 56.0624C14.0483 55.9156 14.1816 55.7039 14.2215 55.4275C14.2579 55.1762 14.2159 54.905 14.0955 54.614C14.0824 54.5864 14.1255 54.5542 14.2249 54.5173C14.316 54.4791 14.3651 54.4648 14.3722 54.4744C14.4881 54.6195 14.5942 54.8315 14.6907 55.1105C14.7788 55.3884 14.8028 55.6655 14.7629 55.9419C14.7023 56.3608 14.5132 56.6926 14.1956 56.9374C13.8792 57.1738 13.4655 57.2551 12.9546 57.1812L9.76315 56.7196Z" fill="white"/>
<path d="M16.6819 40.6366C16.3006 40.4342 16.1338 40.2881 16.1815 40.1984L16.1874 40.1872L17.4877 37.4135L17.4937 37.4023C17.5175 37.3574 17.563 37.3529 17.6303 37.3886C17.7948 37.4759 17.9214 37.5623 18.0101 37.6478C18.0954 37.7218 18.1433 37.776 18.1538 37.8103L18.1584 37.8558L16.8469 40.6236C16.8429 40.6311 16.839 40.6385 16.835 40.646C16.831 40.6535 16.8138 40.6588 16.7835 40.6618C16.7531 40.6648 16.7193 40.6564 16.6819 40.6366Z" fill="white"/>
<path d="M25.2262 23.0408C24.8021 22.546 24.6446 21.9787 24.7538 21.3388C24.8576 20.6926 25.16 20.1546 25.6612 19.725C25.8026 19.6038 25.9426 19.5005 26.0812 19.4151C26.2207 19.3178 26.3373 19.2457 26.431 19.1989C26.531 19.1466 26.6742 19.0796 26.8606 18.9979C27.0478 18.9042 27.2103 18.8207 27.348 18.7472C27.7171 19.0217 28.1495 19.4481 28.6452 20.0264C28.6838 20.0714 28.6709 20.1214 28.6067 20.1765C28.4524 20.3087 28.3414 20.3482 28.2734 20.2949C27.9989 20.0398 27.6267 19.8851 27.1567 19.8309C26.6876 19.7649 26.2795 19.8805 25.9325 20.178C25.547 20.5085 25.3565 20.839 25.3611 21.1694C25.3721 21.4944 25.4988 21.7983 25.7412 22.081C25.8458 22.2031 25.9702 22.3027 26.1144 22.3798C26.253 22.4505 26.3778 22.5051 26.4889 22.5436C26.5945 22.5758 26.7464 22.5905 26.9447 22.5877C27.1494 22.5794 27.294 22.5725 27.3785 22.567C27.4693 22.556 27.6392 22.5331 27.8879 22.4982C28.1431 22.4578 28.3042 22.4311 28.3713 22.4183C28.4199 22.41 28.593 22.3843 28.8904 22.3411C29.1823 22.2916 29.3856 22.2622 29.5004 22.253C29.6096 22.2374 29.7932 22.2305 30.0512 22.2323C30.3101 22.2222 30.513 22.2378 30.6598 22.2791C30.8131 22.3149 30.9821 22.3819 31.1666 22.4801C31.352 22.5664 31.5108 22.6867 31.643 22.8409C32.0837 23.355 32.2448 23.9526 32.1264 24.6337C32.0089 25.303 31.6803 25.8689 31.1405 26.3316C30.9863 26.4638 30.8115 26.5914 30.6159 26.7144C30.4259 26.8439 30.2648 26.9485 30.1326 27.0284C29.9949 27.1019 29.8196 27.1964 29.6066 27.3121C29.3945 27.4158 29.2477 27.4916 29.166 27.5393C28.3278 26.8866 27.8096 26.4446 27.6113 26.2133C27.5782 26.1748 27.6131 26.1114 27.7159 26.0233C27.8316 25.9241 27.9367 25.8842 28.0313 25.9035C29.0429 26.6415 29.9729 26.647 30.8211 25.9199C31.1424 25.6445 31.3328 25.314 31.3925 24.9284C31.4521 24.5429 31.3305 24.1734 31.0275 23.82C30.9174 23.6915 30.7962 23.5891 30.664 23.5129C30.5318 23.4367 30.4129 23.3826 30.3074 23.3504C30.2082 23.3128 30.071 23.3023 29.8956 23.3188C29.7212 23.3234 29.5886 23.3312 29.4977 23.3422C29.4068 23.3532 29.2484 23.3831 29.0226 23.4317C28.7968 23.4804 28.6412 23.5134 28.5558 23.5309C28.2758 23.5814 28.078 23.6172 27.9623 23.6383C27.8531 23.6539 27.6649 23.6815 27.3978 23.721C27.1316 23.7485 26.9241 23.7536 26.7754 23.7361C26.6211 23.7123 26.4403 23.6833 26.2328 23.6494C26.0198 23.609 25.8303 23.5374 25.6641 23.4346C25.5044 23.3263 25.3584 23.195 25.2262 23.0408Z" fill="white"/>
<path d="M40.8454 14.7321L42.0008 16.993C42.1665 17.3171 42.3392 17.59 42.519 17.8117C42.5611 17.8568 42.6237 17.877 42.7069 17.8725C42.7902 17.868 42.8714 17.8503 42.9506 17.8193C43.0298 17.7883 43.1071 17.7536 43.1825 17.715L43.29 17.6743C43.3165 17.6703 43.349 17.706 43.3875 17.7814C43.399 17.804 43.407 17.8474 43.4113 17.9117C43.4194 17.9647 43.4121 17.9969 43.3895 18.0085C43.2803 18.0738 43.1599 18.1543 43.0282 18.2501C42.9041 18.342 42.7895 18.4339 42.6843 18.5257C42.5791 18.6174 42.4815 18.7053 42.3914 18.7894C42.3013 18.8735 42.2319 18.9422 42.1831 18.9956L42.0929 19.0702C42.0326 19.1011 41.9717 19.0562 41.9101 18.9356L41.6154 18.359L41.5639 18.3141C41.34 19.1034 40.9831 19.6232 40.4932 19.8735C40.2143 20.016 39.9385 20.0714 39.6657 20.0398C39.3966 19.9967 39.1553 19.8872 38.9417 19.7111C38.7319 19.5237 38.5542 19.3341 38.4087 19.1424C38.2593 18.9431 38.125 18.7266 38.0056 18.493L37.2776 17.0686C37.1274 16.7747 36.9707 16.5982 36.8074 16.539C36.6858 16.4871 36.5608 16.475 36.4324 16.5026C36.3076 16.5188 36.2075 16.5462 36.1322 16.5847C36.0643 16.6194 36.0266 16.6292 36.0189 16.6141C35.9264 16.4332 35.9009 16.3275 35.9423 16.2968C36.6795 15.768 37.1494 15.4043 37.3521 15.2056C37.3596 15.2018 37.3709 15.196 37.386 15.1883C37.3972 15.1731 37.4028 15.1655 37.4028 15.1655C37.433 15.1501 37.4692 15.1743 37.5114 15.2383C37.5497 15.2948 37.5728 15.34 37.5807 15.374C37.7203 15.7588 37.8402 16.0492 37.9404 16.2452L38.7203 17.7713C39.0168 18.3516 39.323 18.7369 39.6389 18.9272C39.9509 19.1099 40.3028 19.1011 40.6947 18.9009C40.9208 18.7853 41.0913 18.5889 41.2062 18.3115C41.3173 18.0267 41.34 17.8202 41.2746 17.6921L40.1942 15.5781C40.044 15.2842 39.8873 15.1077 39.724 15.0485C39.6024 14.9966 39.4774 14.9845 39.349 15.0121C39.2242 15.0283 39.1241 15.0557 39.0488 15.0942C38.9809 15.1289 38.9432 15.1387 38.9355 15.1236C38.843 14.9427 38.8175 14.837 38.8589 14.8063C39.5961 14.2775 40.0661 13.9138 40.2687 13.7151C40.2762 13.7113 40.2875 13.7055 40.3026 13.6978C40.3138 13.6826 40.3195 13.675 40.3195 13.675C40.3496 13.6596 40.3858 13.6838 40.428 13.7478C40.4663 13.8043 40.4894 13.8495 40.4973 13.8835C40.6369 14.2683 40.753 14.5512 40.8454 14.7321Z" fill="white"/>
<path d="M47.9464 9.20227C47.7987 9.11089 47.7015 8.97945 47.6548 8.80796C47.6081 8.63646 47.6264 8.47799 47.7096 8.33254C47.7988 8.1767 47.9291 8.07544 48.1006 8.02876C48.2721 7.98209 48.4317 8.00444 48.5794 8.09581C48.733 8.1768 48.8331 8.30304 48.8798 8.47454C48.9265 8.64603 48.9052 8.8097 48.8161 8.96554C48.7329 9.11099 48.6055 9.20705 48.434 9.25373C48.2625 9.30041 48.1 9.28325 47.9464 9.20227ZM50.3578 14.0982C50.4868 14.5719 50.6184 14.9264 50.7526 15.1618C50.7845 15.2145 50.9062 15.2428 51.1178 15.2466C51.3271 15.2422 51.4726 15.2289 51.5543 15.2067C51.5788 15.2 51.6084 15.2446 51.6433 15.3404C51.6781 15.4361 51.6929 15.5067 51.6877 15.5519C50.8599 15.7334 50.4175 15.8319 50.3603 15.8475C50.3031 15.863 49.8636 16.0046 49.0418 16.2721C49.0002 16.2484 48.9661 16.1875 48.9394 16.0895C48.9105 15.9833 48.9124 15.9258 48.9451 15.9169C49.0431 15.8902 49.1793 15.8268 49.3538 15.7267C49.5342 15.6162 49.6248 15.5301 49.6256 15.4685C49.6183 15.2161 49.5691 14.9225 49.478 14.5877L48.8478 12.2725C48.7611 11.954 48.6439 11.7491 48.4963 11.6577C48.3879 11.5819 48.2681 11.5444 48.1367 11.5451C48.0112 11.5354 47.9077 11.5416 47.826 11.5638C47.7525 11.5838 47.7136 11.5857 47.7091 11.5693C47.6558 11.3734 47.6525 11.2646 47.6993 11.2431C48.5293 10.8768 49.0639 10.6173 49.303 10.4645L49.3242 10.4456C49.3405 10.4411 49.3528 10.4378 49.3609 10.4356C49.3936 10.4267 49.424 10.4579 49.4522 10.5291C49.4781 10.5923 49.4915 10.6413 49.4922 10.6761C49.5403 11.0139 49.5999 11.3135 49.671 11.5748L50.3578 14.0982Z" fill="white"/>
<path d="M61.6594 9.37467C61.6434 9.10431 61.3312 8.98711 60.7229 9.02307C60.6891 9.02507 60.6692 8.97538 60.6632 8.87399C60.6567 8.76416 60.6694 8.69135 60.7012 8.65555C60.7946 8.65851 60.9686 8.66094 61.223 8.66285C61.4775 8.66476 61.7061 8.65972 61.9089 8.64774L63.1725 8.50944C63.1924 8.55913 63.2045 8.622 63.209 8.69804C63.216 8.81632 63.19 8.87721 63.1308 8.88071C63.0125 8.8877 62.8582 8.93074 62.6679 9.00982C62.4776 9.0889 62.3531 9.20648 62.2945 9.36255L60.5485 14.0314C60.5351 14.0915 60.4881 14.1579 60.4076 14.2304C60.3271 14.303 60.2573 14.3411 60.1982 14.3446C60.139 14.3481 60.1 14.3334 60.0811 14.3006C59.919 13.9965 59.5592 13.2886 59.0018 12.177C58.4528 11.0649 57.9754 10.1605 57.5696 9.46386C57.4751 9.29988 57.2209 9.23013 56.8069 9.2546C56.7731 9.2566 56.753 9.20268 56.7465 9.09285C56.7405 8.99146 56.7534 8.92288 56.7852 8.88708C57.6579 8.87787 58.0985 8.87302 58.1069 8.87252L59.3705 8.73423C59.3894 8.76702 59.3936 8.83884 59.3832 8.94967C59.3808 9.05156 59.3669 9.10325 59.3415 9.10475C58.9275 9.12922 58.7248 9.21328 58.7333 9.35691C58.7343 9.3738 58.7395 9.39045 58.749 9.40685L60.4728 12.7514L61.5805 9.76086C61.6386 9.59633 61.6649 9.4676 61.6594 9.37467Z" fill="white"/>
<path d="M70.6515 13.7812C70.7736 13.922 70.9474 14.0114 71.1727 14.0495C71.398 14.0875 71.6263 14.0574 71.8575 13.9591C72.0901 13.8525 72.2183 13.7282 72.2423 13.5864L72.4601 12.297C72.3877 12.3191 72.2151 12.35 71.9423 12.3898C71.6695 12.4296 71.4523 12.4701 71.2908 12.5115C71.1391 12.546 70.9796 12.6263 70.8124 12.7526C70.6549 12.8719 70.5599 13.0275 70.5275 13.2195C70.4894 13.4448 70.5308 13.632 70.6515 13.7812ZM72.6147 9.32322C73.0737 9.40074 73.3843 9.56908 73.5466 9.82824C73.7102 10.079 73.7504 10.4506 73.6673 10.943L73.1789 13.8347C73.1493 14.0099 73.1705 14.1637 73.2426 14.2961C73.3146 14.4284 73.4299 14.508 73.5885 14.5347C73.7053 14.5545 73.8613 14.5207 74.0562 14.4335C74.0896 14.4391 74.1007 14.4753 74.0894 14.5421C74.0711 14.6506 74.0354 14.7347 73.9824 14.7944C73.5909 15.0287 73.2742 15.1254 73.0321 15.0845C72.8402 15.0521 72.67 14.9418 72.5215 14.7537C72.3731 14.5655 72.2802 14.3781 72.2431 14.1916C72.2347 14.1902 72.1964 14.2138 72.1281 14.2623C72.0696 14.3039 71.9881 14.3546 71.8836 14.4142C71.7805 14.4654 71.6601 14.518 71.5222 14.572C71.3927 14.6274 71.2402 14.666 71.0649 14.6879C70.8979 14.7112 70.7309 14.7087 70.564 14.6805C70.1801 14.6157 69.8799 14.462 69.6634 14.2194C69.4482 13.9685 69.3752 13.6386 69.4443 13.2296C69.4753 13.046 69.5501 12.8827 69.6687 12.7397C69.7887 12.5883 69.9197 12.4731 70.0618 12.3941C70.2053 12.3067 70.3947 12.2271 70.63 12.1553C70.8653 12.0834 71.0623 12.0352 71.221 12.0105C71.3894 11.9788 71.6058 11.9424 71.8703 11.9013C72.1347 11.8601 72.3206 11.8271 72.4278 11.8023C72.5071 11.7899 72.5552 11.7337 72.5721 11.6335L72.7307 10.6947C72.7758 10.4276 72.7269 10.2091 72.584 10.039C72.4424 9.86062 72.2548 9.75168 72.0211 9.71222C71.7708 9.66993 71.5474 9.72232 71.3508 9.86938C71.1557 10.0081 71.0349 10.2151 70.9884 10.4905C70.9391 10.7826 70.7433 10.8998 70.4012 10.842C70.1675 10.8025 70.0182 10.6958 69.9532 10.5217C70.0138 10.1628 70.3366 9.85256 70.9215 9.59086C71.5079 9.32081 72.0723 9.2316 72.6147 9.32322Z" fill="white"/>
<path d="M85.1208 12.9657C85.668 13.193 85.9698 13.5475 86.0263 14.0292C86.0828 14.5109 85.9292 15.1895 85.5656 16.0649L85.1224 17.1318C84.9341 17.5851 84.8209 17.9459 84.7828 18.2142C84.7757 18.2754 84.8546 18.3723 85.0194 18.5049C85.1876 18.6297 85.3107 18.7084 85.3888 18.7408C85.4123 18.7506 85.4084 18.804 85.3773 18.901C85.3462 18.9981 85.3147 19.0629 85.2828 19.0955C84.5174 18.7317 84.1074 18.5385 84.0527 18.5157C84.037 18.5092 83.6186 18.3583 82.7973 18.063C82.779 18.0188 82.7894 17.9497 82.8283 17.8559C82.8705 17.7543 82.9073 17.71 82.9385 17.723C83.0323 17.762 83.171 17.7921 83.3546 17.8134C83.5493 17.8301 83.6658 17.8143 83.7042 17.7661C83.8531 17.5622 83.994 17.3 84.1272 16.9795L84.6142 15.8071C84.9161 15.0802 85.0285 14.5449 84.9513 14.2013C84.8741 13.8576 84.6245 13.5981 84.2024 13.4228C83.9523 13.3189 83.671 13.312 83.3586 13.4022C83.0573 13.4878 82.8758 13.6049 82.8141 13.7534L81.9569 15.8168C81.7686 16.2702 81.6554 16.631 81.6173 16.8993C81.6102 16.9605 81.6891 17.0574 81.854 17.19C82.0221 17.3148 82.1452 17.3935 82.2233 17.4259C82.2468 17.4357 82.2429 17.4891 82.2118 17.5861C82.1807 17.6831 82.1492 17.748 82.1173 17.7805C81.3519 17.4168 80.9419 17.2236 80.8872 17.2008C80.8403 17.1813 80.4062 17.0239 79.5849 16.7286C79.5666 16.6844 79.577 16.6153 79.6159 16.5215C79.6581 16.4199 79.6949 16.3756 79.7261 16.3886C79.8199 16.4276 79.9664 16.4609 80.1657 16.4887C80.376 16.5119 80.5003 16.4994 80.5387 16.4512C80.6876 16.2473 80.8285 15.9851 80.9617 15.6646L81.8821 13.4488C82.0087 13.1439 82.0417 12.9102 81.9809 12.7475C81.9417 12.6212 81.87 12.5181 81.7658 12.4381C81.6726 12.3536 81.5869 12.2951 81.5087 12.2626C81.4384 12.2334 81.4065 12.211 81.413 12.1954C81.4909 12.0078 81.5549 11.9198 81.6051 11.9315C82.4855 12.1506 83.067 12.273 83.3496 12.2987C83.3574 12.302 83.3691 12.3068 83.3848 12.3133C83.4036 12.312 83.4131 12.3114 83.4131 12.3114C83.4444 12.3243 83.4493 12.3676 83.4279 12.4412C83.4097 12.507 83.3902 12.5539 83.3694 12.5819C83.2473 12.7878 83.1667 12.9376 83.1277 13.0314C83.1148 13.0627 83.1161 13.0815 83.1317 13.088C83.1395 13.0913 83.1545 13.0883 83.1766 13.0792C83.4343 12.9663 83.7497 12.8911 84.1227 12.8535C84.5067 12.8115 84.8395 12.8489 85.1208 12.9657Z" fill="white"/>
<path d="M93.2742 18.2616L92.6667 17.8456C92.6318 17.8217 92.6645 17.7364 92.7649 17.5898C92.7936 17.5479 92.8138 17.5258 92.8256 17.5236C93.0903 17.5715 93.437 17.5371 93.8657 17.4203C94.0046 17.3821 94.1473 17.3311 94.2936 17.2672C94.4517 17.201 94.5839 17.1428 94.6902 17.0925C94.7965 17.0422 94.852 17.0135 94.8568 17.0065C95.0663 17.15 95.1591 17.2392 95.1352 17.2741L94.4251 18.3111C94.6066 18.4354 94.8801 18.6278 95.2454 18.8882C95.6156 19.1416 95.8111 19.2755 95.832 19.2899C95.8879 19.3281 95.8943 19.3787 95.8513 19.4415C95.7652 19.5672 95.6395 19.676 95.474 19.7678L94.0808 18.8139L92.3236 21.3803C92.1323 21.6596 92.0491 21.9309 92.074 22.1942C92.1059 22.4622 92.2371 22.6751 92.4675 22.8329C92.677 22.9763 92.9389 23.0582 93.2533 23.0785C93.2838 23.0789 93.2937 23.1319 93.283 23.2374C93.2771 23.3359 93.2682 23.3862 93.2565 23.3884C93.0752 23.4285 92.8381 23.4302 92.5451 23.3937C92.2569 23.3502 91.9976 23.2496 91.7671 23.0918C91.4179 22.8527 91.2035 22.5367 91.1239 22.1436C91.0512 21.7554 91.1607 21.3483 91.4524 20.9223L93.2742 18.2616Z" fill="white"/>
<path d="M104.657 31.5644C105.007 31.3116 105.212 31.2263 105.271 31.3086L105.278 31.3189L107.194 33.7092L107.202 33.7195C107.232 33.7606 107.216 33.8035 107.154 33.8482C107.003 33.9572 106.87 34.0328 106.754 34.0748C106.65 34.1186 106.58 34.1377 106.544 34.132L106.502 34.116L104.596 31.7183C104.591 31.7114 104.586 31.7046 104.581 31.6977C104.576 31.6908 104.579 31.6731 104.59 31.6445C104.6 31.6159 104.623 31.5892 104.657 31.5644Z" fill="white"/>
<path d="M116.681 46.9934C117.312 46.831 117.89 46.9399 118.416 47.3201C118.951 47.6982 119.3 48.2069 119.465 48.8463C119.511 49.0266 119.542 49.1978 119.557 49.3598C119.583 49.528 119.597 49.6644 119.597 49.7691C119.6 49.882 119.597 50.0401 119.588 50.2433C119.59 50.4527 119.593 50.6354 119.598 50.7914C119.189 51.0015 118.616 51.2015 117.878 51.3914C117.821 51.4061 117.781 51.3725 117.76 51.2906C117.71 51.0939 117.723 50.9768 117.801 50.9393C118.151 50.8055 118.454 50.5396 118.71 50.1416C118.976 49.7498 119.052 49.3325 118.938 48.8899C118.812 48.3982 118.599 48.0814 118.301 47.9398C118.004 47.8064 117.676 47.7861 117.315 47.8789C117.159 47.919 117.015 47.9867 116.882 48.082C116.758 48.1753 116.653 48.2632 116.57 48.3459C116.494 48.4265 116.414 48.5564 116.329 48.7356C116.246 48.9229 116.189 49.0557 116.157 49.134C116.126 49.2204 116.072 49.3829 115.994 49.6216C115.917 49.8685 115.87 50.0248 115.852 50.0906C115.838 50.1379 115.785 50.3046 115.692 50.5905C115.608 50.8744 115.545 51.0698 115.503 51.1769C115.468 51.2818 115.394 51.4496 115.278 51.6803C115.173 51.9171 115.07 52.0923 114.968 52.2059C114.868 52.3277 114.733 52.4498 114.564 52.5721C114.405 52.7004 114.227 52.7899 114.03 52.8406C113.374 53.0093 112.767 52.8904 112.208 52.4837C111.659 52.0831 111.296 51.5385 111.119 50.85C111.068 50.6533 111.031 50.4401 111.006 50.2104C110.974 49.9827 110.951 49.792 110.938 49.6381C110.933 49.4821 110.925 49.2831 110.915 49.0409C110.916 48.8048 110.912 48.6396 110.906 48.5452C111.861 48.0809 112.486 47.8107 112.781 47.7348C112.831 47.7221 112.872 47.7813 112.906 47.9125C112.944 48.06 112.933 48.172 112.874 48.2483C111.766 48.8308 111.351 49.663 111.629 50.7449C111.735 51.1547 111.947 51.4714 112.267 51.695C112.587 51.9186 112.972 51.9724 113.423 51.8564C113.587 51.8142 113.732 51.7506 113.859 51.6655C113.985 51.5805 114.086 51.4977 114.162 51.4171C114.239 51.3447 114.309 51.2262 114.372 51.0615C114.444 50.903 114.496 50.7805 114.526 50.6941C114.556 50.6076 114.599 50.4523 114.655 50.2282C114.711 50.0041 114.75 49.8498 114.772 49.7655C114.85 49.492 114.906 49.2986 114.938 49.1855C114.972 49.0806 115.03 48.8995 115.112 48.6424C115.205 48.3913 115.292 48.2029 115.373 48.0771C115.463 47.9492 115.568 47.7996 115.69 47.6284C115.821 47.4551 115.968 47.3165 116.134 47.2127C116.302 47.1172 116.484 47.044 116.681 46.9934Z" fill="white"/>
<path d="M117.249 64.6759L114.71 64.7157C114.346 64.7214 114.025 64.7561 113.747 64.8197C113.688 64.8375 113.642 64.8848 113.609 64.9615C113.577 65.0382 113.557 65.1189 113.55 65.2037C113.542 65.2884 113.54 65.3731 113.541 65.4578L113.53 65.5722C113.522 65.5977 113.476 65.6111 113.391 65.6125C113.366 65.6129 113.323 65.6008 113.263 65.5764C113.212 65.5603 113.187 65.5395 113.186 65.5141C113.176 65.3873 113.157 65.2437 113.129 65.0833C113.101 64.9314 113.069 64.788 113.033 64.6531C112.997 64.5183 112.961 64.3918 112.926 64.2739C112.89 64.156 112.859 64.0633 112.832 63.996L112.805 63.8822C112.804 63.8145 112.871 63.7796 113.007 63.7775L113.654 63.7673L113.717 63.7409C113.107 63.1918 112.798 62.6422 112.79 62.0922C112.785 61.7791 112.857 61.5071 113.006 61.2762C113.163 61.0536 113.368 60.8854 113.62 60.7714C113.88 60.6657 114.129 60.5899 114.365 60.5438C114.61 60.4977 114.864 60.4725 115.126 60.4684L116.725 60.4434C117.055 60.4382 117.283 60.3754 117.408 60.2549C117.508 60.1687 117.574 60.0618 117.606 59.9344C117.647 59.8152 117.666 59.7133 117.665 59.6287C117.664 59.5526 117.671 59.5143 117.688 59.5141C117.892 59.5109 117.998 59.5346 118.007 59.5853C118.156 60.4802 118.276 61.0624 118.364 61.3318C118.365 61.3403 118.365 61.353 118.365 61.3699C118.374 61.3867 118.378 61.3951 118.378 61.3951C118.379 61.4289 118.341 61.4507 118.265 61.4604C118.197 61.4699 118.147 61.4707 118.113 61.4627C117.706 61.4183 117.392 61.3979 117.172 61.4013L115.458 61.4282C114.807 61.4384 114.326 61.5433 114.016 61.7428C113.714 61.9422 113.567 62.262 113.574 62.702C113.578 62.9559 113.679 63.1956 113.877 63.421C114.084 63.6463 114.259 63.7578 114.403 63.7556L116.777 63.7183C117.107 63.7132 117.334 63.6503 117.459 63.5299C117.56 63.4437 117.626 63.3368 117.657 63.2094C117.698 63.0902 117.717 62.9883 117.716 62.9037C117.715 62.8275 117.723 62.7893 117.74 62.7891C117.943 62.7859 118.049 62.8096 118.058 62.8603C118.208 63.7552 118.327 64.3373 118.416 64.6068C118.416 64.6153 118.416 64.628 118.416 64.6449C118.425 64.6617 118.429 64.6701 118.429 64.6701C118.43 64.7039 118.392 64.7257 118.316 64.7353C118.249 64.7449 118.198 64.7457 118.164 64.7377C117.757 64.6933 117.452 64.6727 117.249 64.6759Z" fill="white"/>
<path d="M119.08 73.4878C119.227 73.3956 119.388 73.3663 119.562 73.4001C119.737 73.4338 119.871 73.5201 119.965 73.6589C120.065 73.8077 120.099 73.9693 120.065 74.1438C120.031 74.3183 119.941 74.4517 119.794 74.5439C119.653 74.6461 119.496 74.6803 119.321 74.6465C119.147 74.6128 119.009 74.5215 118.909 74.3728C118.815 74.2339 118.785 74.0773 118.819 73.9028C118.852 73.7283 118.939 73.5899 119.08 73.4878ZM113.622 73.4927C113.14 73.3995 112.764 73.3613 112.494 73.3779C112.432 73.3833 112.353 73.4801 112.256 73.6683C112.168 73.8581 112.116 73.9945 112.1 74.0776C112.095 74.1025 112.042 74.1095 111.94 74.0985C111.839 74.0876 111.769 74.0698 111.731 74.0451C111.933 73.2222 112.04 72.7816 112.051 72.7235C112.062 72.6653 112.129 72.2084 112.252 71.3528C112.291 71.326 112.361 71.3222 112.461 71.3415C112.569 71.3624 112.62 71.3894 112.613 71.4227C112.594 71.5224 112.591 71.6726 112.604 71.8734C112.623 72.0841 112.66 72.2034 112.715 72.2312C112.945 72.336 113.23 72.4213 113.571 72.4872L115.927 72.9427C116.251 73.0054 116.486 72.9906 116.634 72.8984C116.749 72.8346 116.836 72.7436 116.893 72.6253C116.957 72.517 116.997 72.4213 117.013 72.3382C117.028 72.2635 117.043 72.2277 117.06 72.2309C117.259 72.2695 117.359 72.3145 117.357 72.3659C117.32 73.2725 117.317 73.8667 117.349 74.1487L117.356 74.176C117.353 74.1926 117.351 74.2051 117.349 74.2134C117.343 74.2467 117.301 74.2602 117.225 74.254C117.157 74.2495 117.107 74.2399 117.075 74.2251C116.751 74.1193 116.456 74.0407 116.19 73.9893L113.622 73.4927Z" fill="white"/>
<path d="M112.877 85.719C113.127 85.8239 113.37 85.5954 113.606 85.0336C113.619 85.0024 113.672 85.0064 113.766 85.0458C113.867 85.0884 113.927 85.1318 113.945 85.1762C113.901 85.2587 113.822 85.4138 113.708 85.6413C113.594 85.8688 113.498 86.0762 113.419 86.2635L112.986 87.4585C112.933 87.4545 112.871 87.4377 112.801 87.4082C112.692 87.3623 112.648 87.312 112.671 87.2574C112.717 87.1482 112.747 86.9907 112.76 86.785C112.773 86.5793 112.722 86.4158 112.608 86.2943L109.188 82.6681C109.14 82.6296 109.101 82.5582 109.071 82.4539C109.041 82.3497 109.038 82.2702 109.061 82.2156C109.084 82.161 109.114 82.1324 109.152 82.13C109.497 82.1186 110.291 82.1079 111.534 82.0978C112.774 82.0956 113.797 82.066 114.601 82.0091C114.79 81.9967 114.964 81.7992 115.125 81.4169C115.138 81.3857 115.195 81.3914 115.297 81.434C115.39 81.4733 115.446 81.5152 115.464 81.5595C115.088 82.3468 114.898 82.7444 114.895 82.7522L114.461 83.9472C114.424 83.9497 114.357 83.9218 114.262 83.8636C114.172 83.8165 114.132 83.7812 114.142 83.7578C114.302 83.3754 114.316 83.1564 114.184 83.1007C114.168 83.0941 114.151 83.0915 114.132 83.0927L110.37 83.1648L112.565 85.4778C112.687 85.6025 112.791 85.6829 112.877 85.719Z" fill="white"/>
<path d="M104.956 91.8458C104.776 91.8933 104.619 92.0098 104.486 92.1952C104.352 92.3807 104.279 92.5988 104.265 92.8497C104.258 93.1054 104.313 93.2754 104.43 93.3594L105.491 94.1236C105.503 94.0488 105.551 93.8803 105.636 93.6179C105.72 93.3555 105.78 93.1428 105.814 92.9796C105.85 92.8282 105.848 92.6496 105.809 92.4438C105.771 92.2499 105.673 92.096 105.515 91.9822C105.33 91.8487 105.143 91.8032 104.956 91.8458ZM108.091 95.5739C107.819 95.9517 107.531 96.1562 107.227 96.1875C106.93 96.2237 106.579 96.096 106.173 95.8042L103.794 94.0905C103.649 93.9866 103.502 93.9378 103.351 93.9442C103.201 93.9505 103.079 94.0189 102.985 94.1494C102.915 94.2455 102.877 94.4003 102.869 94.6138C102.849 94.6413 102.812 94.6352 102.757 94.5957C102.668 94.5314 102.608 94.4623 102.578 94.3884C102.54 93.9337 102.593 93.6067 102.737 93.4076C102.85 93.2496 103.024 93.1455 103.259 93.0952C103.493 93.0449 103.702 93.0443 103.886 93.0932C103.891 93.0863 103.887 93.0415 103.873 92.9588C103.862 92.888 103.852 92.7925 103.845 92.6724C103.844 92.5573 103.85 92.426 103.863 92.2784C103.87 92.1378 103.903 91.9839 103.96 91.8169C104.013 91.6567 104.089 91.508 104.188 91.3706C104.415 91.0547 104.686 90.853 104.999 90.7657C105.319 90.6833 105.647 90.7632 105.984 91.0056C106.135 91.1144 106.248 91.2535 106.325 91.4231C106.408 91.5975 106.453 91.7659 106.461 91.9283C106.476 92.0956 106.464 92.3007 106.425 92.5436C106.386 92.7865 106.342 92.9845 106.294 93.1378C106.249 93.303 106.186 93.5133 106.106 93.7688C106.026 94.0243 105.974 94.2056 105.949 94.3127C105.925 94.3894 105.954 94.4574 106.037 94.5167L106.809 95.0731C107.029 95.2314 107.247 95.2839 107.463 95.2306C107.685 95.1823 107.866 95.0619 108.004 94.8696C108.152 94.6636 108.204 94.4399 108.159 94.1987C108.12 93.9624 107.988 93.7627 107.761 93.5995C107.521 93.4264 107.502 93.199 107.705 92.9175C107.843 92.7251 108.005 92.6382 108.19 92.6566C108.485 92.8693 108.621 93.2958 108.598 93.9362C108.582 94.5816 108.413 95.1275 108.091 95.5739Z" fill="white"/>
<path d="M99.3066 105.191C98.8613 105.582 98.41 105.697 97.9528 105.535C97.4955 105.373 96.9543 104.936 96.329 104.224L95.5669 103.355C95.2431 102.987 94.9692 102.726 94.7453 102.573C94.6935 102.54 94.5717 102.568 94.3799 102.657C94.1938 102.753 94.0689 102.829 94.0053 102.885C93.9862 102.902 93.94 102.875 93.8666 102.804C93.7933 102.733 93.749 102.676 93.7338 102.633C94.3978 102.107 94.7521 101.824 94.7966 101.785C94.8094 101.774 95.1294 101.465 95.7566 100.858C95.8044 100.861 95.8618 100.901 95.9288 100.977C96.0014 101.06 96.0249 101.112 95.9995 101.135C95.9232 101.202 95.8349 101.313 95.7349 101.468C95.634 101.636 95.5967 101.747 95.6231 101.803C95.7405 102.026 95.9136 102.269 96.1425 102.529L96.9799 103.484C97.4991 104.075 97.93 104.412 98.2725 104.494C98.6149 104.577 98.9579 104.467 99.3014 104.166C99.505 103.987 99.6352 103.738 99.692 103.417C99.7481 103.109 99.7231 102.895 99.617 102.774L98.1432 101.094C97.8193 100.725 97.5455 100.465 97.3215 100.312C97.2697 100.279 97.1479 100.307 96.9562 100.396C96.77 100.492 96.6451 100.568 96.5815 100.624C96.5624 100.641 96.5162 100.614 96.4429 100.543C96.3695 100.472 96.3252 100.415 96.31 100.372C96.9741 99.8458 97.3283 99.563 97.3729 99.5239C97.411 99.4904 97.7438 99.1702 98.371 98.5634C98.4188 98.5665 98.4762 98.6062 98.5432 98.6826C98.6158 98.7653 98.6393 98.8178 98.6139 98.8401C98.5376 98.9071 98.443 99.0239 98.3302 99.1905C98.2166 99.369 98.173 99.4861 98.1993 99.5418C98.3167 99.7653 98.4899 100.008 98.7187 100.268L100.301 102.072C100.519 102.32 100.714 102.452 100.887 102.47C101.018 102.49 101.142 102.471 101.26 102.413C101.377 102.367 101.467 102.316 101.531 102.26C101.588 102.209 101.622 102.191 101.633 102.203C101.767 102.356 101.818 102.452 101.785 102.492C101.2 103.186 100.834 103.654 100.686 103.896C100.68 103.902 100.67 103.91 100.658 103.921C100.651 103.939 100.647 103.947 100.647 103.947C100.622 103.97 100.581 103.955 100.524 103.903C100.473 103.858 100.439 103.82 100.423 103.789C100.293 103.588 100.194 103.45 100.127 103.374C100.104 103.348 100.087 103.341 100.074 103.352C100.068 103.358 100.064 103.373 100.062 103.396C100.05 103.678 99.9783 103.994 99.8475 104.345C99.7159 104.708 99.5356 104.99 99.3066 105.191Z" fill="white"/>
<path d="M90.9576 110.173L91.5989 109.811C91.6358 109.791 91.6979 109.858 91.7852 110.012C91.8101 110.057 91.821 110.085 91.8178 110.096C91.6581 110.313 91.5361 110.639 91.4518 111.075C91.4248 111.217 91.4077 111.367 91.4005 111.527C91.3901 111.698 91.3841 111.842 91.3824 111.96C91.3807 112.077 91.3819 112.14 91.3861 112.147C91.1649 112.272 91.044 112.316 91.0232 112.279L90.4056 111.184C90.214 111.292 89.9207 111.453 89.5259 111.666C89.1352 111.886 88.9288 112.003 88.9067 112.015C88.8477 112.049 88.7995 112.032 88.7621 111.966C88.6872 111.833 88.6451 111.672 88.6356 111.483L90.1062 110.654L88.5779 107.945C88.4116 107.65 88.2048 107.455 87.9576 107.362C87.703 107.272 87.454 107.296 87.2108 107.433C86.9896 107.558 86.8006 107.757 86.6437 108.03C86.6299 108.057 86.5781 108.043 86.4881 107.987C86.4023 107.938 86.361 107.908 86.3642 107.896C86.4082 107.716 86.5112 107.502 86.6732 107.255C86.8393 107.016 87.044 106.828 87.2873 106.69C87.6559 106.482 88.0341 106.429 88.4219 106.531C88.8024 106.637 89.1195 106.915 89.3732 107.365L90.9576 110.173Z" fill="white"/>
<path d="M73.9982 114.522C74.0708 114.948 74.0571 115.169 73.957 115.186L73.9445 115.188L70.9542 115.853L70.9417 115.855C70.8917 115.864 70.8602 115.831 70.8474 115.756C70.816 115.572 70.8071 115.419 70.8205 115.297C70.827 115.184 70.8406 115.113 70.8614 115.084L70.8947 115.052L73.8871 114.399C73.8954 114.398 73.9037 114.397 73.9121 114.395C73.9204 114.394 73.9351 114.404 73.956 114.426C73.977 114.448 73.991 114.48 73.9982 114.522Z" fill="white"/>
</svg>
