<svg width="131" height="130" viewBox="0 0 131 130" fill="none" xmlns="http://www.w3.org/2000/svg">
<path d="M49.4279 123.315C49.2371 123.245 48.7371 123.085 47.9276 122.834C47.9234 122.796 47.9441 122.727 47.9898 122.627C48.0247 122.531 48.0541 122.488 48.0779 122.497C48.1336 122.517 48.212 122.537 48.3132 122.556C48.4144 122.575 48.5323 122.573 48.6668 122.55C48.8013 122.527 48.8875 122.464 48.9253 122.361C49.0096 122.13 48.9986 120.608 48.8924 117.793C48.8754 117.174 48.8586 116.69 48.8419 116.342C48.8325 116.293 48.8051 116.27 48.7596 116.271C48.7031 116.278 48.6597 116.298 48.6293 116.332L45.2624 119.994C44.969 120.328 44.7917 120.579 44.7307 120.746C44.69 120.857 44.7187 120.975 44.8168 121.101C44.9149 121.227 45.0207 121.32 45.1341 121.38C45.2367 121.444 45.3237 121.49 45.3952 121.516C45.427 121.527 45.4255 121.581 45.3906 121.676C45.3528 121.78 45.3122 121.841 45.2688 121.862C44.5441 121.551 44.1261 121.376 44.0148 121.335C44.0069 121.332 43.5982 121.206 42.7888 120.955C42.7903 120.901 42.8042 120.839 42.8304 120.767C42.8711 120.656 42.9073 120.606 42.9391 120.618C43.2968 120.748 43.5759 120.724 43.7766 120.545C44.0815 120.278 44.4259 119.94 44.8099 119.531L49.2787 114.704C49.4779 114.479 49.665 114.399 49.8399 114.463C49.8955 114.483 49.9265 114.522 49.9329 114.578L50.123 121.636C50.1298 122.233 50.1691 122.68 50.2409 122.977C50.2646 123.085 50.3551 123.194 50.5126 123.306C50.67 123.418 50.8004 123.492 50.9037 123.53C50.9355 123.542 50.9325 123.599 50.8947 123.703C50.8598 123.798 50.8207 123.856 50.7773 123.876C50.653 123.821 50.5049 123.758 50.3329 123.686C50.1609 123.615 50.0088 123.55 49.8766 123.493C49.7365 123.432 49.5869 123.373 49.4279 123.315Z" fill="white"/>
<path d="M30.2679 112.286C30.2823 112.459 30.2345 112.615 30.1244 112.755C30.0143 112.894 29.876 112.974 29.7096 112.994C29.5313 113.015 29.3724 112.97 29.2328 112.86C29.0933 112.75 29.0164 112.608 29.002 112.435C28.9757 112.264 29.0176 112.108 29.1277 111.968C29.2378 111.829 29.382 111.749 29.5603 111.728C29.7268 111.708 29.8797 111.753 30.0193 111.863C30.1588 111.973 30.2417 112.114 30.2679 112.286ZM32.7694 107.435C33.0735 107.05 33.2802 106.733 33.3896 106.485C33.413 106.428 33.3633 106.314 33.2406 106.141C33.1126 105.976 33.0153 105.867 32.9489 105.814C32.929 105.799 32.9471 105.748 33.0034 105.663C33.0597 105.578 33.1075 105.524 33.1471 105.502C33.7853 106.059 34.1276 106.356 34.1741 106.393C34.2206 106.43 34.5958 106.699 35.2998 107.2C35.3054 107.248 35.2767 107.312 35.2138 107.391C35.1456 107.478 35.0983 107.51 35.0717 107.489C34.992 107.426 34.86 107.355 34.6757 107.274C34.4795 107.195 34.3565 107.173 34.3065 107.209C34.1079 107.365 33.9012 107.579 33.6862 107.852L32.1999 109.735C31.9954 109.994 31.9004 110.21 31.9148 110.383C31.9183 110.516 31.9594 110.634 32.0381 110.739C32.1049 110.846 32.1715 110.926 32.2379 110.978C32.2977 111.025 32.3224 111.055 32.3119 111.069C32.1861 111.228 32.1006 111.296 32.0555 111.271C31.2674 110.821 30.7407 110.546 30.4757 110.445L30.4479 110.439C30.4346 110.428 30.4247 110.421 30.418 110.415C30.3914 110.394 30.3984 110.351 30.439 110.286C30.4743 110.228 30.5057 110.188 30.5333 110.167C30.7763 109.927 30.9816 109.701 31.1494 109.488L32.7694 107.435Z" fill="white"/>
<path d="M20.6291 100.718C20.5162 100.569 20.3953 100.369 20.2663 100.116C20.1255 99.8616 20.0285 99.6855 19.9752 99.5877C20.2335 99.2844 20.5459 98.9823 20.9126 98.6814C20.9462 98.6558 20.9964 98.6867 21.0631 98.7742C21.135 98.8684 21.1499 98.9369 21.1079 98.9795C20.9451 99.1568 20.8412 99.3904 20.7961 99.6802C20.7458 99.9633 20.7977 100.206 20.9517 100.408C21.3211 100.892 21.7044 100.983 22.1015 100.68C22.2025 100.604 22.2831 100.521 22.3433 100.432C22.3968 100.349 22.4324 100.242 22.4499 100.111C22.4557 99.9794 22.46 99.8803 22.4628 99.8143C22.459 99.7534 22.4461 99.6249 22.4242 99.4287C22.3905 99.2309 22.3709 99.1075 22.3654 99.0584C22.3584 99.0212 22.3465 98.9079 22.3297 98.7185C22.3011 98.5274 22.2831 98.3921 22.2757 98.3126C22.2683 98.2331 22.2665 98.1121 22.2703 97.9496C22.269 97.7803 22.284 97.6465 22.3154 97.548C22.34 97.4547 22.3874 97.3494 22.4576 97.232C22.5159 97.1131 22.5955 97.0151 22.6965 96.9381C23.0936 96.6354 23.5448 96.5362 24.05 96.6405C24.5486 96.75 24.9569 97.0133 25.2751 97.4306C25.3828 97.572 25.4728 97.7109 25.545 97.8474C25.6188 97.9721 25.697 98.1306 25.7798 98.3229C25.8626 98.5153 25.9306 98.6603 25.9839 98.7581C25.907 98.8805 25.7695 99.0492 25.5714 99.2641C25.3683 99.4722 25.1994 99.6276 25.0648 99.7302C24.9833 99.7072 24.9324 99.6822 24.9118 99.6552C24.8349 99.5543 24.814 99.4851 24.8492 99.4475C25.0204 99.2532 25.124 98.9773 25.1601 98.6198C25.1843 98.2608 25.1015 97.9568 24.9116 97.7077C24.7474 97.4924 24.5568 97.361 24.3397 97.3136C24.1108 97.2646 23.8853 97.3248 23.6632 97.4942C23.5488 97.5814 23.4624 97.6845 23.4041 97.8035C23.334 97.9208 23.3004 98.0582 23.3033 98.2156C23.2944 98.3714 23.2997 98.511 23.3193 98.6344C23.3271 98.7563 23.3496 98.9254 23.3868 99.1417C23.4241 99.3581 23.4474 99.5213 23.4567 99.6312C23.5541 100.387 23.3942 100.924 22.9769 101.242C22.6134 101.519 22.207 101.601 21.7575 101.486C21.3029 101.364 20.9267 101.108 20.6291 100.718Z" fill="white"/>
<path d="M12.0713 89.5217C12.0006 89.6803 11.8833 89.7942 11.7196 89.8634C11.5559 89.9327 11.3965 89.9358 11.2412 89.8728C11.0748 89.8053 10.957 89.6897 10.8878 89.526C10.8185 89.3624 10.8193 89.2012 10.8901 89.0426C10.9498 88.8796 11.0614 88.7634 11.2251 88.6942C11.3888 88.6249 11.5539 88.6241 11.7203 88.6915C11.8755 88.7545 11.9878 88.8679 12.057 89.0315C12.1263 89.1952 12.131 89.3586 12.0713 89.5217ZM16.6002 86.4761C17.0523 86.2849 17.386 86.107 17.6012 85.9425C17.6492 85.9038 17.6609 85.7794 17.6364 85.5692C17.604 85.3624 17.5714 85.22 17.5384 85.142C17.5285 85.1186 17.5687 85.0833 17.6589 85.0359C17.7492 84.9886 17.8171 84.9644 17.8626 84.9635C18.1533 85.7595 18.3102 86.1848 18.3333 86.2394C18.3564 86.2939 18.5555 86.7105 18.9308 87.4892C18.9128 87.5335 18.857 87.5755 18.7635 87.615C18.6621 87.6579 18.6049 87.6637 18.5917 87.6326C18.5521 87.539 18.471 87.4125 18.3484 87.253C18.2148 87.089 18.1173 87.0107 18.0562 87.0182C17.807 87.0592 17.5227 87.1473 17.2031 87.2825L14.9932 88.2171C14.6892 88.3457 14.5018 88.4893 14.431 88.6478C14.3704 88.7654 14.3493 88.8892 14.3675 89.0193C14.3747 89.1449 14.3948 89.2467 14.4278 89.3246C14.4574 89.3948 14.4645 89.4332 14.4489 89.4397C14.2618 89.5189 14.1545 89.5367 14.1269 89.4932C13.6527 88.7197 13.3239 88.2247 13.1405 88.0082L13.1189 87.9898C13.1123 87.9742 13.1073 87.9625 13.1041 87.9547C13.0909 87.9235 13.1177 87.8892 13.1846 87.8517C13.2436 87.8175 13.2904 87.7978 13.3249 87.7924C13.6532 87.6995 13.942 87.6003 14.1915 87.4948L16.6002 86.4761Z" fill="white"/>
<path d="M10.2372 76.1049L10.356 76.8316C10.3628 76.8734 10.2785 76.9086 10.1031 76.9372C10.053 76.9454 10.023 76.946 10.0133 76.9391C9.86516 76.7146 9.60081 76.4876 9.22028 76.2583C9.09668 76.1841 8.96123 76.1162 8.81394 76.0545C8.65692 75.9859 8.52352 75.9305 8.41373 75.8884C8.30394 75.8463 8.24487 75.8259 8.23652 75.8273C8.19557 75.5767 8.19597 75.448 8.23773 75.4412L9.47811 75.2385C9.44262 75.0213 9.39287 74.6907 9.32887 74.2466C9.25651 73.8039 9.21829 73.5701 9.21419 73.545C9.20327 73.4782 9.2354 73.4386 9.31057 73.4263C9.46092 73.4018 9.62645 73.4176 9.80716 73.4738L10.0795 75.1402L13.1491 74.6385C13.4832 74.5839 13.7369 74.4567 13.91 74.2568C14.0818 74.0487 14.1452 73.8068 14.1002 73.5311C14.0592 73.2805 13.9375 73.0346 13.7351 72.7932C13.7143 72.7709 13.7458 72.7272 13.8295 72.662C13.9048 72.5983 13.9473 72.5699 13.9571 72.5769C14.1112 72.6803 14.2762 72.8506 14.4522 73.0877C14.6198 73.3261 14.7261 73.5832 14.7712 73.8588C14.8394 74.2765 14.7589 74.6498 14.5297 74.9788C14.2991 75.2995 13.9291 75.5015 13.4196 75.5848L10.2372 76.1049Z" fill="white"/>
<path d="M13.017 51.8089C12.6048 51.6809 12.4137 51.5684 12.4438 51.4714L12.4476 51.4593L13.209 48.4921L13.2128 48.48C13.2279 48.4315 13.2718 48.4185 13.3445 48.4411C13.5223 48.4963 13.6628 48.5576 13.7659 48.6251C13.8635 48.6819 13.9206 48.7263 13.9374 48.758L13.9503 48.8019L13.1767 51.7654C13.1742 51.7735 13.1717 51.7816 13.1692 51.7896C13.1667 51.7977 13.1508 51.8061 13.1215 51.8147C13.0923 51.8234 13.0574 51.8214 13.017 51.8089Z" fill="white"/>
<path d="M22.1367 23.9444C22.2884 23.8093 22.6662 23.4446 23.2701 22.8501C23.3053 22.8642 23.3563 22.9151 23.4232 23.0029C23.4907 23.0787 23.515 23.1251 23.496 23.142C23.4518 23.1814 23.3974 23.2412 23.3328 23.3213C23.2682 23.4015 23.2141 23.5063 23.1707 23.6357C23.1272 23.765 23.1421 23.8708 23.2152 23.953C23.3785 24.1363 24.725 24.8467 27.255 26.0844C27.8084 26.3622 28.2426 26.5762 28.5576 26.7264C28.6047 26.7411 28.6385 26.728 28.6588 26.6873C28.6798 26.6345 28.6826 26.5867 28.6671 26.5439L27.0331 21.8453C26.8774 21.4286 26.7404 21.1539 26.6222 21.0212C26.5435 20.9327 26.4253 20.9019 26.2679 20.9287C26.1105 20.9556 25.9788 21.0049 25.8727 21.0767C25.7673 21.1365 25.6862 21.1917 25.6293 21.2424C25.604 21.2649 25.5576 21.2382 25.4901 21.1624C25.4169 21.0802 25.3817 21.0152 25.3845 20.9674C26.0004 20.4756 26.3527 20.1903 26.4412 20.1115C26.4475 20.1059 26.7526 19.8058 27.3566 19.2114C27.403 19.238 27.4515 19.2798 27.5022 19.3367C27.581 19.4252 27.6077 19.4807 27.5824 19.5032C27.298 19.7565 27.1872 20.0138 27.25 20.2752C27.341 20.6702 27.476 21.1336 27.655 21.6655L29.7943 27.8861C29.8978 28.1678 29.8801 28.3706 29.741 28.4944C29.6968 28.5338 29.6483 28.543 29.5955 28.522L23.2871 25.3509C22.7576 25.0744 22.3452 24.8977 22.0499 24.8206C21.9438 24.7905 21.8043 24.8184 21.6315 24.9043C21.4586 24.9902 21.3311 25.0697 21.249 25.1429C21.2237 25.1654 21.1745 25.1355 21.1013 25.0534C21.0337 24.9775 21.0014 24.9157 21.0041 24.8679C21.1109 24.7842 21.2366 24.6835 21.3813 24.566C21.526 24.4485 21.6549 24.3451 21.768 24.2557C21.8874 24.1608 22.0103 24.057 22.1367 23.9444Z" fill="white"/>
<path d="M40.9166 12.28C40.7573 12.2108 40.6423 12.0947 40.5714 11.9317C40.5005 11.7687 40.4958 11.6092 40.5573 11.4533C40.6231 11.2863 40.7375 11.1673 40.9005 11.0965C41.0635 11.0256 41.2246 11.0248 41.3839 11.094C41.5476 11.152 41.6648 11.2626 41.7357 11.4256C41.8065 11.5886 41.8091 11.7536 41.7432 11.9206C41.6818 12.0765 41.5696 12.1899 41.4066 12.2608C41.2436 12.3316 41.0803 12.338 40.9166 12.28ZM44.0071 16.7782C44.2028 17.2284 44.384 17.5603 44.5507 17.774C44.5898 17.8216 44.7143 17.832 44.9242 17.8054C45.1308 17.771 45.2728 17.7369 45.3505 17.7032C45.3738 17.693 45.4095 17.7329 45.4578 17.8226C45.506 17.9124 45.5308 17.9801 45.5322 18.0256C44.7391 18.3242 44.3154 18.4853 44.2611 18.5089C44.2067 18.5326 43.7922 18.7359 43.0173 19.1188C42.9728 19.1013 42.9302 19.0459 42.8898 18.9528C42.8459 18.8519 42.8395 18.7947 42.8705 18.7812C42.9637 18.7407 43.0894 18.6584 43.2477 18.5342C43.4103 18.3989 43.4876 18.3007 43.4795 18.2396C43.436 17.9909 43.3451 17.7074 43.2068 17.3892L42.2502 15.1887C42.1186 14.886 41.9732 14.7 41.8139 14.6308C41.6958 14.5714 41.5718 14.5515 41.4419 14.571C41.3163 14.5795 41.2147 14.6006 41.1371 14.6343C41.0673 14.6647 41.029 14.6721 41.0222 14.6566C40.9412 14.4703 40.9223 14.3631 40.9655 14.3351C41.7343 13.8533 42.226 13.5196 42.4407 13.334L42.4589 13.3122C42.4744 13.3055 42.4861 13.3004 42.4938 13.297C42.5249 13.2835 42.5595 13.31 42.5976 13.3765C42.6323 13.4352 42.6526 13.4818 42.6583 13.5162C42.7545 13.8436 42.8565 14.1314 42.9645 14.3798L44.0071 16.7782Z" fill="white"/>
<path d="M55.6683 9.25949C55.8522 9.23006 56.086 9.21835 56.3698 9.22434C56.6606 9.22064 56.8617 9.21845 56.973 9.21778C57.1181 9.58883 57.2365 10.007 57.3281 10.4723C57.3348 10.5141 57.2838 10.5437 57.1752 10.5611C57.0582 10.5798 56.9908 10.5606 56.9731 10.5035C56.8939 10.2761 56.7372 10.0741 56.5032 9.89726C56.2776 9.7191 56.0394 9.65008 55.7887 9.69022C55.187 9.78654 54.9256 10.0812 55.0045 10.5743C55.0246 10.6997 55.0593 10.8098 55.1088 10.9047C55.157 10.9913 55.2344 11.0732 55.341 11.1504C55.4547 11.2179 55.5399 11.2686 55.5967 11.3023C55.6522 11.3277 55.7716 11.3772 55.9548 11.4507C56.145 11.5146 56.263 11.5557 56.3088 11.5741C56.3449 11.5854 56.4504 11.6285 56.6252 11.7034C56.8071 11.7686 56.9348 11.8167 57.0083 11.8478C57.0819 11.8789 57.1893 11.9345 57.3308 12.0148C57.4805 12.0936 57.5913 12.1702 57.6632 12.2444C57.7338 12.3102 57.8041 12.4018 57.8744 12.5192C57.9516 12.6268 58.0002 12.7433 58.0203 12.8686C58.0992 13.3617 57.9732 13.8062 57.6423 14.202C57.3101 14.5895 56.8849 14.8247 56.3667 14.9076C56.1912 14.9357 56.0262 14.9492 55.8718 14.9483C55.7271 14.9543 55.5504 14.9483 55.3418 14.9302C55.1332 14.9122 54.9732 14.9035 54.8619 14.9042C54.7904 14.7785 54.7068 14.5776 54.6111 14.3015C54.5239 14.024 54.4669 13.8017 54.4401 13.6346C54.4989 13.5738 54.5451 13.5407 54.5785 13.5353C54.7039 13.5152 54.7747 13.5296 54.7911 13.5784C54.8814 13.8211 55.0755 14.0429 55.3733 14.2438C55.6782 14.435 55.9853 14.5058 56.2945 14.4563C56.5619 14.4135 56.7678 14.3077 56.9122 14.1389C57.0636 13.9603 57.1173 13.7332 57.0731 13.4574C57.0504 13.3153 57.0004 13.1905 56.9232 13.0828C56.853 12.9655 56.7478 12.8709 56.6077 12.7991C56.4747 12.7175 56.3492 12.6562 56.2312 12.6151C56.1202 12.5642 55.9605 12.5041 55.7523 12.4346C55.544 12.3651 55.3892 12.3084 55.2879 12.2646C54.5759 11.9929 54.1784 11.598 54.0954 11.0798C54.0232 10.6285 54.144 10.2321 54.4579 9.89039C54.7801 9.54738 55.1836 9.33709 55.6683 9.25949Z" fill="white"/>
<path d="M69.5803 7.01524C69.4741 6.87787 69.4292 6.7207 69.4456 6.54373C69.4621 6.36676 69.5347 6.22476 69.6637 6.11773C69.8018 6.00306 69.9594 5.95394 70.1364 5.97038C70.3133 5.98681 70.4549 6.06371 70.5612 6.20107C70.6766 6.33079 70.7261 6.48414 70.7097 6.66111C70.6933 6.83809 70.616 6.98391 70.4778 7.09858C70.3489 7.20561 70.1959 7.2509 70.019 7.23447C69.842 7.21804 69.6958 7.14496 69.5803 7.01524ZM70.1215 12.446C70.0762 12.9347 70.075 13.3129 70.1182 13.5804C70.1296 13.641 70.2337 13.7101 70.4304 13.7879C70.628 13.8572 70.7689 13.8958 70.8532 13.9036C70.8785 13.906 70.8906 13.9581 70.8897 14.06C70.8887 14.1619 70.8778 14.2332 70.8571 14.2738C70.0182 14.1534 69.5693 14.0904 69.5104 14.085C69.4514 14.0795 68.9901 14.0579 68.1266 14.0202C68.096 13.9834 68.0854 13.9144 68.0948 13.8133C68.105 13.7037 68.127 13.6505 68.1607 13.6536C68.2618 13.663 68.4116 13.6514 68.6101 13.6189C68.8179 13.5787 68.9329 13.5298 68.9552 13.4724C69.0369 13.2335 69.0938 12.9413 69.1259 12.5958L69.3477 10.2066C69.3783 9.87796 69.3404 9.64494 69.2342 9.50758C69.1593 9.39863 69.0602 9.32143 68.9369 9.27598C68.8228 9.22289 68.7237 9.19243 68.6394 9.1846C68.5635 9.17756 68.5264 9.16561 68.528 9.14876C68.5468 8.9465 68.5818 8.84351 68.6332 8.83978C69.539 8.78789 70.1306 8.73233 70.4081 8.6731L70.4346 8.6628C70.4514 8.66437 70.4641 8.66554 70.4725 8.66633C70.5062 8.66946 70.5238 8.70934 70.5252 8.78596C70.5273 8.85416 70.5226 8.90473 70.5111 8.93765C70.4376 9.27083 70.3884 9.57226 70.3633 9.84193L70.1215 12.446Z" fill="white"/>
<path d="M82.2689 11.7454L81.5725 11.5063C81.5325 11.4926 81.5413 11.4017 81.599 11.2336C81.6155 11.1855 81.6291 11.1589 81.6399 11.1536C81.9077 11.1293 82.2327 11.0037 82.6148 10.7769C82.7386 10.7031 82.8625 10.6159 82.9865 10.5153C83.1213 10.4094 83.2332 10.3181 83.3222 10.2413C83.4112 10.1644 83.4571 10.122 83.4598 10.114C83.7 10.1965 83.8132 10.2577 83.7994 10.2977L83.3914 11.4865C83.5995 11.5579 83.9143 11.6705 84.3358 11.8241C84.7601 11.9698 84.9842 12.0467 85.0082 12.055C85.0723 12.0769 85.0919 12.124 85.0672 12.196C85.0177 12.3401 84.9255 12.4784 84.7905 12.6111L83.1935 12.0628L82.1836 15.0047C82.0737 15.3249 82.0658 15.6085 82.1599 15.8556C82.2621 16.1054 82.4452 16.2757 82.7094 16.3663C82.9495 16.4488 83.2238 16.4579 83.5322 16.3938C83.5617 16.386 83.5853 16.4344 83.6031 16.5389C83.6237 16.6355 83.6286 16.6864 83.6178 16.6916C83.4538 16.7785 83.2257 16.8434 82.9336 16.8863C82.6442 16.9211 82.3674 16.8932 82.1033 16.8026C81.703 16.6651 81.4122 16.4176 81.2307 16.06C81.0572 15.7052 81.0543 15.2836 81.2219 14.7953L82.2689 11.7454Z" fill="white"/>
<path d="M102.36 25.6867C102.668 25.384 102.858 25.2689 102.929 25.3413L102.938 25.3504L105.192 27.4248L105.201 27.4338C105.236 27.47 105.227 27.5148 105.173 27.5682C105.04 27.6988 104.919 27.7936 104.811 27.8525C104.715 27.9116 104.649 27.941 104.613 27.9407L104.568 27.9313L102.323 25.848C102.317 25.842 102.311 25.836 102.305 25.8299C102.299 25.8239 102.3 25.8059 102.306 25.7761C102.312 25.7462 102.33 25.7164 102.36 25.6867Z" fill="white"/>
<path d="M122.597 46.9017C122.644 47.0992 122.787 47.6046 123.025 48.4179C122.996 48.4423 122.927 48.4631 122.818 48.4805C122.719 48.5041 122.667 48.5036 122.661 48.4789C122.647 48.4213 122.62 48.345 122.58 48.2502C122.54 48.1554 122.473 48.0582 122.38 47.9587C122.287 47.8592 122.186 47.8223 122.079 47.8479C121.841 47.905 120.578 48.7554 118.291 50.399C117.784 50.7552 117.39 51.0365 117.109 51.243C117.074 51.2776 117.069 51.3135 117.095 51.3507C117.132 51.3941 117.173 51.4192 117.218 51.4258L122.13 52.2086C122.571 52.2685 122.878 52.2778 123.051 52.2364C123.166 52.2088 123.249 52.1194 123.3 51.968C123.351 51.8166 123.37 51.6772 123.357 51.5498C123.354 51.4286 123.343 51.331 123.326 51.2569C123.318 51.224 123.363 51.1957 123.462 51.1721C123.569 51.1465 123.643 51.1462 123.684 51.1713C123.826 51.9466 123.91 52.3919 123.938 52.5072C123.94 52.5154 124.06 52.9262 124.298 53.7394C124.253 53.7677 124.193 53.7907 124.119 53.8084C124.004 53.836 123.942 53.8333 123.934 53.8004C123.846 53.43 123.671 53.2106 123.411 53.1423C123.02 53.0357 122.548 52.9354 121.995 52.8415L115.502 51.784C115.205 51.742 115.035 51.6305 114.991 51.4494C114.978 51.3918 114.992 51.3447 115.036 51.3082L120.814 47.25C121.308 46.9142 121.659 46.6345 121.866 46.4108C121.943 46.3315 121.984 46.1954 121.99 46.0025C121.996 45.8096 121.987 45.6597 121.961 45.5527C121.953 45.5197 122.003 45.4905 122.11 45.4649C122.208 45.4412 122.278 45.442 122.319 45.467C122.342 45.6007 122.372 45.759 122.407 45.9421C122.442 46.1252 122.472 46.2876 122.497 46.4295C122.524 46.5797 122.558 46.737 122.597 46.9017Z" fill="white"/>
<path d="M123.991 68.9652C124.127 68.8576 124.284 68.8112 124.461 68.8258C124.638 68.8405 124.781 68.9118 124.889 69.0396C125.006 69.1766 125.056 69.3337 125.042 69.5108C125.027 69.688 124.951 69.8303 124.815 69.9379C124.687 70.0547 124.534 70.1057 124.357 70.091C124.179 70.0764 124.033 70.0005 123.917 69.8635C123.808 69.7357 123.762 69.5832 123.776 69.406C123.791 69.2289 123.863 69.082 123.991 68.9652ZM118.566 69.5604C118.077 69.5199 117.699 69.5226 117.432 69.5684C117.371 69.5804 117.303 69.6851 117.227 69.8827C117.16 70.0809 117.123 70.2222 117.116 70.3065C117.114 70.3319 117.062 70.3445 116.96 70.3446C116.858 70.3446 116.787 70.3345 116.746 70.3141C116.858 69.4741 116.916 69.0246 116.921 68.9656C116.926 68.9065 116.943 68.4451 116.972 67.5813C117.009 67.5503 117.078 67.5391 117.179 67.5474C117.288 67.5565 117.342 67.5779 117.339 67.6117C117.331 67.7129 117.344 67.8626 117.378 68.0608C117.421 68.2681 117.47 68.3826 117.528 68.4044C117.768 68.4837 118.061 68.5377 118.406 68.5663L120.798 68.7644C121.127 68.7916 121.359 68.7515 121.496 68.6439C121.604 68.5679 121.68 68.4681 121.724 68.3443C121.776 68.2297 121.806 68.1303 121.813 68.0459C121.819 67.97 121.83 67.9328 121.847 67.9341C122.05 67.9509 122.153 67.985 122.157 68.0363C122.218 68.9415 122.28 69.5326 122.342 69.8095L122.352 69.8358C122.351 69.8527 122.35 69.8654 122.349 69.8738C122.346 69.9075 122.307 69.9255 122.23 69.9276C122.162 69.9305 122.111 69.9263 122.078 69.915C121.744 69.8449 121.442 69.7987 121.172 69.7763L118.566 69.5604Z" fill="white"/>
<path d="M119.675 83.3911C119.614 83.567 119.514 83.7786 119.374 84.0258C119.24 84.2838 119.147 84.462 119.094 84.5604C118.699 84.5127 118.274 84.4192 117.821 84.2798C117.781 84.2659 117.779 84.207 117.815 84.1031C117.854 83.9911 117.903 83.9409 117.962 83.9523C118.199 83.99 118.452 83.9476 118.718 83.825C118.982 83.7105 119.155 83.5333 119.238 83.2934C119.438 82.7177 119.302 82.348 118.83 82.1843C118.71 82.1427 118.597 82.1212 118.49 82.1199C118.391 82.1214 118.282 82.1509 118.164 82.2083C118.05 82.2765 117.965 82.3277 117.909 82.3618C117.86 82.3986 117.76 82.4804 117.609 82.607C117.462 82.7444 117.37 82.8289 117.333 82.8606C117.306 82.887 117.218 82.9596 117.069 83.0782C116.926 83.2076 116.823 83.2973 116.761 83.3474C116.698 83.3975 116.599 83.4659 116.461 83.5526C116.321 83.6472 116.201 83.7086 116.101 83.7369C116.01 83.7679 115.896 83.7866 115.759 83.7929C115.628 83.81 115.502 83.7978 115.382 83.7562C114.911 83.5925 114.579 83.2713 114.386 82.7925C114.202 82.3165 114.196 81.8306 114.368 81.3349C114.426 81.1669 114.493 81.0152 114.566 80.8796C114.63 80.7492 114.718 80.5964 114.833 80.4211C114.948 80.2459 115.031 80.109 115.083 80.0106C115.228 80.007 115.444 80.0284 115.733 80.0748C116.018 80.1291 116.241 80.184 116.401 80.2395C116.427 80.3201 116.434 80.3764 116.423 80.4084C116.381 80.5284 116.335 80.584 116.285 80.5754C116.028 80.5401 115.741 80.6062 115.423 80.7736C115.11 80.9518 114.903 81.1888 114.8 81.4847C114.711 81.7405 114.707 81.972 114.787 82.1791C114.873 82.3969 115.048 82.5516 115.312 82.6432C115.448 82.6904 115.581 82.7054 115.713 82.6882C115.849 82.6819 115.982 82.634 116.112 82.5446C116.247 82.4659 116.36 82.3843 116.452 82.2998C116.549 82.226 116.678 82.1139 116.838 81.9632C116.997 81.8126 117.121 81.7031 117.207 81.6345C117.783 81.1357 118.319 80.9723 118.815 81.1443C119.247 81.2941 119.539 81.5881 119.692 82.0262C119.841 82.4724 119.836 82.9273 119.675 83.3911Z" fill="white"/>
<path d="M115.072 96.7099C115.243 96.6813 115.403 96.7161 115.551 96.8143C115.699 96.9125 115.79 97.0437 115.823 97.2079C115.859 97.3838 115.827 97.5459 115.729 97.694C115.631 97.8422 115.496 97.9306 115.325 97.9592C115.156 97.9996 114.998 97.9707 114.849 97.8725C114.701 97.7743 114.609 97.6372 114.574 97.4613C114.54 97.297 114.573 97.1409 114.671 96.9927C114.769 96.8446 114.903 96.7503 115.072 96.7099ZM110.031 94.618C109.622 94.3468 109.289 94.167 109.033 94.0785C108.974 94.0599 108.864 94.1189 108.702 94.2554C108.548 94.3967 108.447 94.5026 108.401 94.5732C108.386 94.5943 108.335 94.5804 108.245 94.5313C108.156 94.4823 108.099 94.439 108.073 94.4015C108.575 93.7194 108.843 93.3537 108.876 93.3043C108.909 93.2549 109.146 92.8587 109.587 92.1158C109.634 92.1062 109.7 92.1295 109.785 92.1856C109.877 92.2464 109.913 92.2909 109.894 92.3191C109.838 92.4038 109.778 92.5413 109.712 92.7316C109.65 92.9336 109.638 93.0581 109.678 93.1049C109.85 93.2899 110.081 93.4782 110.37 93.6699L112.37 94.9955C112.645 95.1778 112.868 95.2547 113.04 95.226C113.171 95.2116 113.286 95.1608 113.384 95.0737C113.485 94.9983 113.559 94.9253 113.605 94.8548C113.647 94.7913 113.676 94.7642 113.69 94.7736C113.859 94.8858 113.933 94.9654 113.912 95.0124C113.529 95.835 113.299 96.3826 113.219 96.6551L113.216 96.6833C113.207 96.6974 113.2 96.708 113.195 96.715C113.176 96.7432 113.133 96.7398 113.065 96.7048C113.004 96.6745 112.961 96.6464 112.938 96.6207C112.679 96.3984 112.437 96.2124 112.211 96.0628L110.031 94.618Z" fill="white"/>
<path d="M104.902 105.652L105.442 105.151C105.474 105.123 105.549 105.173 105.67 105.304C105.705 105.341 105.722 105.366 105.721 105.378C105.616 105.625 105.573 105.971 105.592 106.415C105.599 106.559 105.617 106.709 105.647 106.866C105.676 107.035 105.704 107.177 105.729 107.291C105.755 107.406 105.771 107.467 105.776 107.473C105.59 107.645 105.483 107.716 105.454 107.685L104.6 106.763C104.438 106.913 104.19 107.137 103.855 107.436C103.526 107.741 103.353 107.902 103.334 107.919C103.284 107.965 103.234 107.96 103.182 107.904C103.078 107.793 103 107.646 102.947 107.464L104.185 106.316L102.071 104.035C101.841 103.787 101.595 103.646 101.333 103.612C101.064 103.584 100.828 103.664 100.623 103.854C100.437 104.027 100.299 104.264 100.209 104.566C100.202 104.596 100.148 104.594 100.048 104.56C99.9532 104.533 99.906 104.513 99.9065 104.501C99.9075 104.315 99.9583 104.084 100.059 103.806C100.165 103.534 100.32 103.304 100.525 103.114C100.836 102.826 101.191 102.687 101.592 102.696C101.987 102.711 102.36 102.908 102.711 103.287L104.902 105.652Z" fill="white"/>
<path d="M83.116 116.759C83.2371 117.174 83.2489 117.395 83.1514 117.424L83.1393 117.427L80.2454 118.432L80.2332 118.436C80.1845 118.45 80.1494 118.42 80.128 118.347C80.0758 118.169 80.0493 118.018 80.0485 117.894C80.042 117.782 80.0474 117.71 80.0646 117.678L80.094 117.643L82.9915 116.65C82.9996 116.648 83.0077 116.646 83.0159 116.643C83.024 116.641 83.0397 116.649 83.0631 116.669C83.0865 116.689 83.1041 116.719 83.116 116.759Z" fill="white"/>
</svg>
